SplineFontDB: 1.0
FontName: Kinnari-BoldOblique
FullName: Kinnari Bold Oblique
FamilyName: Kinnari
Weight: Bold
Copyright: KinnariBoldItalic by Db Type : Fontographer 3.5
Version: 001.002: 2006-01-03
ItalicAngle: -12
UnderlinePosition: -70
UnderlineWidth: 25
Ascent: 800
Descent: 200
NeedsXUIDChange: 1
FSType: 0
PfmFamily: 17
TTFWeight: 700
TTFWidth: 5
LineGap: 138
VLineGap: 0
Panose: 0 0 0 0 0 0 0 0 0 0
OS2TypoAscent: 0
OS2TypoAOffset: 1
OS2TypoDescent: 0
OS2TypoDOffset: 1
OS2TypoLinegap: 0
OS2WinAscent: 0
OS2WinAOffset: 1
OS2WinDescent: 0
OS2WinDOffset: 1
HheadAscent: 0
HheadAOffset: 1
HheadDescent: 0
HheadDOffset: 1
OS2Vendor: 'PfEd'
ScriptLang: 5
 1 DFLT 1 dflt 
 1 thai 4 KUY  PAL  THA  dflt 
 1 latn 1 dflt 
 1 thai 1 dflt 
 1 thai 1 PAL  
ContextSub: glyph 0 4 ' RQD' 0 0 0 1
 String: 15 uni0E0D uni0E10
 BString: 0 
 FString: 0 
 1
  SeqLookup: 0 'nds0'
EndFPST
ChainSub: coverage 0 1 'ccmp' 0 0 0 1
 2 0 0
  Coverage: 19 uni0E4B uni0E4B.low
  Coverage: 7 uni0E4D
 2
  SeqLookup: 0 'amni'
  SeqLookup: 1 'G006'
EndFPST
ChainSub: coverage 0 1 'ccmp' 0 0 0 1
 2 0 0
  Coverage: 19 uni0E4A uni0E4A.low
  Coverage: 7 uni0E4D
 2
  SeqLookup: 0 'amni'
  SeqLookup: 1 'G005'
EndFPST
ChainSub: coverage 0 1 'ccmp' 0 0 0 1
 2 0 0
  Coverage: 19 uni0E49 uni0E49.low
  Coverage: 7 uni0E4D
 2
  SeqLookup: 0 'amni'
  SeqLookup: 1 'G004'
EndFPST
ChainSub: coverage 0 1 'ccmp' 0 0 0 1
 2 0 0
  Coverage: 19 uni0E48 uni0E48.low
  Coverage: 7 uni0E4D
 2
  SeqLookup: 0 'amni'
  SeqLookup: 1 'G003'
EndFPST
ChainSub: coverage 0 1 'ccmp' 0 0 0 1
 1 0 1
  Coverage: 15 uni0E0D uni0E10
  FCoverage: 23 uni0E38 uni0E39 uni0E3A
 1
  SeqLookup: 0 'ndsc'
EndFPST
ChainSub: coverage 0 1 'ccmp' 0 0 0 1
 1 2 0
  Coverage: 39 uni0E48 uni0E49 uni0E4A uni0E4B uni0E4C
  BCoverage: 23 uni0E38 uni0E39 uni0E3A

StartChar: .notdef
Encoding: 0 -1 0
Width: 384
Flags: W
HStem: 0 23<28 384> 568 23<126 482>
Fore
144 568 m 1
 28 23 l 1
 366 23 l 1
 482 568 l 1
 144 568 l 1
384 0 m 1
 0 0 l 1
 126 591 l 1
 510 591 l 1
 384 0 l 1
EndSplineSet
EndChar
StartChar: exclam
Encoding: 33 33 2
Width: 333
Flags: W
HStem: -14 140<163 201>
Fore
395 608 m 0
 395 608 l 0
 390 591 384 573 378 558 c 2
 232 177 l 1
 197 177 l 1
 255 559 l 1
 258 574 260 591 264 608 c 0
 275 647 304 700 355 700 c 0
 409 700 406 647 395 608 c 0
250 54 m 0
 240 14 200 -14 163 -14 c 0
 129 -14 101 17 111 54 c 0
 121 92 160 126 201 126 c 0
 240 126 261 92 250 54 c 0
EndSplineSet
EndChar
StartChar: quotedbl
Encoding: 34 34 3
Width: 407
Flags: W
Fore
524 651 m 0
 433 444 l 1
 392 444 l 1
 413 651 l 1
 415 679 453 708 484 708 c 0
 516 708 538 680 524 651 c 0
344 651 m 1
 252 444 l 1
 210 444 l 1
 233 651 l 1
 235 680 272 708 304 708 c 0
 335 708 355 679 344 651 c 1
EndSplineSet
EndChar
StartChar: numbersign
Encoding: 35 35 4
Width: 499
Flags: W
HStem: 0 21G<65 147 258 341> 217 78<70 155 270 347 462 541> 217 267<147 347 350 541> 404 80<146 235 350 425 541 614>
Fore
614 404 m 1x90
 508 404 l 1
 462 295 l 1
 561 295 l 1
 541 217 l 1xd0
 430 217 l 1xa0
 341 0 l 1
 258 0 l 1
 347 217 l 1xc0
 238 217 l 1xa0
 147 0 l 1
 65 0 l 1
 155 217 l 1xc0
 51 217 l 1xa0
 71 295 l 1
 187 295 l 1
 235 404 l 1
 126 404 l 1xd0
 147 484 l 1
 267 484 l 1
 353 687 l 1
 436 687 l 1
 350 484 l 1
 458 484 l 1
 544 687 l 1
 625 687 l 1
 541 484 l 1xa0
 636 484 l 1
 614 404 l 1x90
425 404 m 1
 318 404 l 1
 270 295 l 1
 379 295 l 1
 425 404 l 1
EndSplineSet
EndChar
StartChar: dollar
Encoding: 36 36 5
Width: 499
Flags: W
Fore
516 178 m 0
 516 178 l 0
 485 61 381 0 273 -11 c 1
 250 -100 l 1
 192 -100 l 1
 215 -12 l 1
 152 -11 94 8 45 43 c 1
 84 194 l 1
 123 194 l 1
 112 100 147 46 229 40 c 1
 300 303 l 1
 233 347 149 406 177 508 c 0
 204 613 303 667 399 674 c 1
 416 739 l 1
 475 739 l 1
 458 674 l 1
 511 670 564 653 601 616 c 1
 567 487 l 1
 530 487 l 1
 538 564 507 613 444 622 c 1
 382 398 l 1
 459 349 548 298 516 178 c 0
333 430 m 0
 386 622 l 0
 352 614 295 581 283 533 c 0
 269 481 303 456 333 430 c 0
407 152 m 0
 422 210 389 244 349 272 c 1
 287 41 l 1
 346 54 390 92 407 152 c 0
EndSplineSet
EndChar
StartChar: percent
Encoding: 37 37 6
Width: 832
Flags: W
HStem: -11 56<573 599> 290 60<258 292> 327 57<761 770> 636 54<445 461>
Fore
843 703 m 1xd0
 253 -11 l 1
 177 -11 l 1
 685 604 l 1
 634 588 584 585 548 591 c 1
 548 579 548 565 545 554 c 0
 507 412 350 290 258 290 c 0
 174 290 141 346 167 439 c 0
 197 553 343 690 461 690 c 0
 498 690 519 680 539 654 c 1
 558 637 578 634 607 634 c 0
 662 634 722 659 768 703 c 1
 843 703 l 1xd0
854 263 m 0
 854 263 l 0
 809 98 664 -11 573 -11 c 0
 461 -11 452 55 473 138 c 0
 504 252 650 384 768 384 c 0xb0
 843 384 869 321 854 263 c 0
498 568 m 0
 498 568 l 0
 501 581 501 593 502 605 c 1
 473 616 467 636 452 636 c 0
 416 636 293 541 260 412 c 0
 250 376 253 350 292 350 c 1xd0
 387 359 473 478 498 568 c 0
802 257 m 0
 811 290 802 327 763 327 c 0xb0
 714 327 668 275 637 235 c 0
 561 131 527 45 599 45 c 0
 687 45 782 181 802 257 c 0
EndSplineSet
EndChar
StartChar: ampersand
Encoding: 38 38 7
Width: 777
Flags: W
HStem: -11 79<217 281> 433 20G<604 843> 647 56<524 544>
Fore
800 120 m 1
 800 120 l 0
 717 31 668 -11 596 -11 c 0
 528 -11 484 31 449 75 c 1
 378 25 293 -11 217 -11 c 0
 97 -11 45 51 74 160 c 0
 104 273 238 356 327 398 c 1
 323 441 321 485 333 531 c 0
 358 625 447 703 544 703 c 0
 624 703 677 656 656 571 c 0
 631 482 541 427 459 393 c 1
 476 330 498 270 524 214 c 1
 568 255 634 326 647 373 c 0
 653 396 642 407 593 412 c 1
 604 453 l 1
 843 453 l 1
 833 412 l 1
 760 402 742 378 703 332 c 0
 653 270 582 195 553 164 c 1
 578 123 608 86 667 86 c 0
 702 86 733 106 770 146 c 1
 800 120 l 1
579 574 m 0
 579 574 l 0
 590 613 571 647 533 647 c 0
 481 647 456 607 444 564 c 0
 435 530 441 481 447 449 c 1
 502 473 564 518 579 574 c 0
419 121 m 1
 384 189 359 264 338 341 c 1
 270 304 217 263 197 187 c 0
 180 126 220 68 281 68 c 0
 316 68 373 91 419 121 c 1
EndSplineSet
EndChar
StartChar: quotesingle
Encoding: 39 39 8
Width: 179
Flags: W
Fore
319 650 m 2
 229 442 l 1
 187 442 l 1
 209 650 l 1
 210 679 247 707 280 707 c 0
 310 707 332 677 319 650 c 2
EndSplineSet
EndChar
StartChar: parenleft
Encoding: 40 40 9
Width: 333
Flags: W
Fore
281 -147 m 1
 246 -181 l 1
 131 -86 52 55 109 272 c 0
 158 450 287 599 488 707 c 1
 499 667 l 1
 335 571 261 432 221 281 c 0
 178 120 158 -23 281 -147 c 1
EndSplineSet
EndChar
StartChar: parenright
Encoding: 41 41 10
Width: 333
Flags: W
Fore
362 244 m 0
 315 68 170 -86 -14 -181 c 1
 -26 -146 l 1
 141 -48 212 91 252 241 c 0
 295 404 316 561 192 668 c 1
 227 705 l 1
 269 679 439 533 362 244 c 0
EndSplineSet
EndChar
StartChar: asterisk
Encoding: 42 42 11
Width: 499
Flags: W
Fore
547 372 m 0
 508 327 468 349 453 379 c 0
 441 402 425 418 392 447 c 1
 384 404 387 370 387 343 c 0
 387 309 370 257 321 257 c 0
 269 257 280 307 303 343 c 0
 321 370 332 396 349 447 c 1
 298 421 273 404 250 379 c 1
 218 350 167 327 152 373 c 0
 140 416 194 445 227 455 c 1
 255 459 292 468 332 485 c 1
 295 507 273 515 246 518 c 1
 212 525 175 551 214 598 c 0
 250 641 290 616 309 591 c 0
 324 571 339 545 369 521 c 1
 379 571 381 596 378 624 c 0
 373 659 390 710 442 710 c 0
 492 710 481 657 462 624 c 0
 447 598 429 562 412 521 c 1
 452 545 482 574 507 594 c 0
 539 619 591 642 605 599 c 0
 619 556 570 527 530 522 c 0
 499 516 472 504 419 484 c 1
 455 467 488 459 515 453 c 0
 545 444 582 415 547 372 c 0
EndSplineSet
EndChar
StartChar: plus
Encoding: 43 43 12
Width: 563
Flags: W
HStem: 241 89<107 303 415 610>
Fore
610 241 m 1
 390 241 l 1
 330 20 l 1
 243 20 l 1
 303 241 l 1
 83 241 l 1
 108 330 l 1
 327 330 l 1
 386 548 l 1
 473 548 l 1
 415 330 l 1
 634 330 l 1
 610 241 l 1
EndSplineSet
EndChar
StartChar: comma
Encoding: 44 44 13
Width: 250
Flags: W
HStem: -22 20G<142.5 148>
Fore
220 18 m 0
 204 -40 114 -120 46 -143 c 1
 37 -103 l 1
 80 -84 141 -35 149 -5 c 0
 149 -3 149 -2 147 -2 c 0
 138 -2 123 -5 114 -5 c 0
 80 -2 55 20 66 57 c 0
 78 103 112 129 158 129 c 0
 226 129 233 69 220 18 c 0
EndSplineSet
EndChar
StartChar: hyphen
Encoding: 45 45 14
Width: 333
Flags: W
HStem: 241 88<117 366>
Fore
366 241 m 1
 95 241 l 1
 118 329 l 1
 389 329 l 1
 366 241 l 1
EndSplineSet
EndChar
StartChar: period
Encoding: 46 46 15
Width: 250
Flags: W
HStem: -11 21G<102.5 140.5>
Fore
210 58 m 0
 200 17 160 -11 121 -11 c 0
 84 -11 61 23 71 58 c 0
 81 95 121 129 160 129 c 0
 198 129 221 100 210 58 c 0
EndSplineSet
EndChar
StartChar: slash
Encoding: 47 47 16
Width: 278
Flags: W
Fore
510 710 m 1
 32 -104 l 1
 -57 -104 l 1
 421 710 l 1
 510 710 l 1
EndSplineSet
EndChar
StartChar: zero
Encoding: 48 48 17
Width: 537
Flags: W
HStem: -14 52<258 280> 650 50<434 455>
Fore
596 339 m 0
 596 339 l 0
 558 197 444 -14 258 -14 c 0
 111 -14 68 143 121 346 c 0
 161 495 273 700 453 700 c 0
 610 700 651 544 596 339 c 0
475 338 m 0
 521 508 536 650 445 650 c 0
 338 650 281 485 238 326 c 0
 200 184 177 38 280 38 c 0
 387 38 435 192 475 338 c 0
EndSplineSet
EndChar
StartChar: one
Encoding: 49 49 18
Width: 537
Flags: W
HStem: 0 21G<129 427>
Fore
427 0 m 1
 129 0 l 1
 138 37 l 1
 221 43 238 55 247 92 c 1
 367 541 l 1
 386 605 355 588 270 561 c 1
 280 599 l 1
 524 708 l 1
 358 92 l 1
 349 55 359 43 436 37 c 1
 427 0 l 1
EndSplineSet
EndChar
StartChar: two
Encoding: 50 50 19
Width: 537
Flags: W
HStem: 0 101<207 450> 604 96<379 456>
Fore
554 155 m 1
 450 0 l 1
 40 0 l 1
 51 31 l 1
 270 214 l 2
 352 281 449 373 475 472 c 0
 496 551 459 604 379 604 c 0
 307 604 255 542 209 470 c 1
 169 484 l 1
 227 613 329 700 456 700 c 0
 561 700 625 617 596 513 c 0
 571 416 505 346 386 247 c 2
 207 101 l 1
 392 101 l 2
 459 101 465 104 528 172 c 1
 554 155 l 1
EndSplineSet
EndChar
StartChar: three
Encoding: 51 51 20
Width: 537
Flags: W
HStem: -11 115<132 180> 619 84<398 453>
Fore
527 229 m 0
 484 71 323 -11 180 -11 c 0
 137 -11 54 -3 71 58 c 0
 78 88 104 104 132 104 c 0
 181 104 201 49 261 49 c 0
 336 49 399 111 419 183 c 0
 447 287 402 333 253 333 c 1
 261 369 l 1
 349 393 445 435 470 525 c 0
 485 582 455 619 398 619 c 0
 336 619 284 584 226 513 c 1
 192 524 l 1
 263 641 352 703 453 703 c 0
 567 703 604 642 581 558 c 0
 564 495 518 452 464 419 c 1
 530 382 553 326 527 229 c 0
EndSplineSet
EndChar
StartChar: four
Encoding: 52 52 21
Width: 537
Flags: W
HStem: 0 21G<303 404> 157 87<164 344 470 547>
Fore
547 157 m 1
 445 157 l 1
 404 0 l 1
 303 0 l 1
 344 157 l 1
 63 157 l 1
 84 237 l 1
 522 690 l 1
 588 690 l 1
 470 244 l 1
 571 244 l 1
 547 157 l 1
369 244 m 1
 445 531 l 1
 164 244 l 1
 369 244 l 1
EndSplineSet
EndChar
StartChar: five
Encoding: 53 53 22
Width: 537
Flags: W
HStem: -11 123<131 177> 585 105<372 578>
Fore
664 700 m 1
 578 585 l 1
 369 585 l 1
 321 522 l 1
 470 495 579 442 525 243 c 0
 484 86 332 -11 177 -11 c 0
 132 -11 51 -3 57 54 c 0
 61 89 92 112 131 112 c 0
 194 112 200 49 253 49 c 0
 333 49 399 123 424 210 c 0
 464 359 327 407 209 415 c 1
 192 418 187 432 194 444 c 1
 373 690 l 1
 578 690 l 2
 604 690 610 690 642 719 c 1
 664 700 l 1
EndSplineSet
EndChar
StartChar: six
Encoding: 54 54 23
Width: 537
Flags: W
HStem: -11 52<283 312> 386 69<370 425>
Fore
564 229 m 0
 564 229 l 0
 530 103 418 -11 283 -11 c 0
 151 -11 72 97 123 289 c 0
 183 511 379 671 596 702 c 0
 614 703 633 710 670 710 c 1
 664 670 l 1
 619 659 588 657 551 641 c 0
 461 604 362 538 306 422 c 1
 346 442 384 455 425 455 c 0
 550 455 601 369 564 229 c 0
450 240 m 0
 461 315 452 386 370 386 c 0
 339 386 303 375 273 356 c 0
 270 353 270 353 267 352 c 1
 250 327 243 296 233 263 c 0
 200 137 220 41 312 41 c 0
 381 41 433 131 450 240 c 0
EndSplineSet
EndChar
StartChar: seven
Encoding: 55 55 24
Width: 537
Flags: W
HStem: -11 21G<172 264> 590 100<280 533>
Fore
660 660 m 1
 264 -11 l 1
 172 -11 l 1
 533 590 l 1
 346 590 l 2
 278 590 260 573 201 507 c 1
 170 525 l 1
 280 690 l 1
 668 690 l 1
 660 660 l 1
EndSplineSet
EndChar
StartChar: eight
Encoding: 56 56 25
Width: 537
Flags: W
HStem: -11 49<263 292> 653 50<437 462>
Fore
522 169 m 0
 522 169 l 0
 492 54 370 -11 263 -11 c 0
 158 -11 78 52 109 167 c 0
 132 250 209 304 280 347 c 1
 235 406 189 442 217 542 c 0
 235 616 330 703 462 703 c 0
 548 703 631 653 605 554 c 0
 582 470 510 421 436 386 c 1
 492 330 550 267 522 169 c 0
510 551 m 0
 510 551 l 0
 527 611 498 653 439 653 c 0
 387 653 335 619 321 565 c 0
 303 501 353 452 393 419 c 1
 449 449 495 495 510 551 c 0
415 141 m 0
 436 221 364 270 315 312 c 0
 313 312 313 310 313 310 c 2
 267 280 224 226 212 178 c 0
 192 101 212 38 292 38 c 0
 350 38 398 83 415 141 c 0
EndSplineSet
EndChar
StartChar: nine
Encoding: 57 57 26
Width: 537
Flags: W
HStem: 240 67<298 356> 653 50<429 456>
Fore
564 304 m 0
 564 304 l 0
 502 195 379 69 241 17 c 0
 175 -9 111 -20 68 -20 c 1
 72 23 l 1
 146 35 243 61 330 147 c 0
 369 186 407 232 436 280 c 1
 386 253 339 240 298 240 c 0
 184 240 129 324 166 462 c 0
 189 550 286 703 456 703 c 0
 550 703 607 636 616 551 c 0
 622 476 610 387 564 304 c 0
488 429 m 0
 510 510 535 653 429 653 c 0
 349 653 307 554 290 492 c 0
 269 412 261 307 356 307 c 0
 384 307 438 326 464 350 c 1
 473 375 481 399 488 429 c 0
EndSplineSet
EndChar
StartChar: colon
Encoding: 58 58 27
Width: 278
Flags: W
HStem: -8 140<138 175> 392 139<244 283>
Fore
333 461 m 0
 333 461 l 0
 323 419 283 392 244 392 c 0
 204 392 184 425 194 461 c 0
 204 498 241 531 283 531 c 0
 319 531 346 502 333 461 c 0
227 61 m 0
 215 20 177 -8 138 -8 c 0
 98 -8 78 26 88 61 c 0
 97 98 134 132 175 132 c 0
 212 132 238 103 227 61 c 0
EndSplineSet
EndChar
StartChar: semicolon
Encoding: 59 59 28
Width: 278
Flags: W
HStem: -5 134<129 174> 392 139<244 283>
Fore
333 464 m 0
 333 464 l 0
 324 429 280 392 244 392 c 0
 203 392 184 429 194 464 c 0
 203 499 246 531 283 531 c 0
 318 531 343 499 333 464 c 0
235 18 m 0
 220 -40 129 -120 61 -143 c 1
 52 -103 l 1
 95 -84 157 -35 164 -5 c 0
 164 -3 164 -2 163 -2 c 0
 154 -2 138 -5 129 -5 c 0
 95 -2 71 20 81 57 c 0
 94 103 127 129 174 129 c 0
 237 129 250 72 235 18 c 0
EndSplineSet
EndChar
StartChar: less
Encoding: 60 60 29
Width: 563
Flags: W
Fore
544 -18 m 1
 75 226 l 1
 94 295 l 1
 693 541 l 1
 670 452 l 1
 206 261 l 1
 567 71 l 1
 544 -18 l 1
EndSplineSet
EndChar
StartChar: equal
Encoding: 61 61 30
Width: 563
Flags: W
HStem: 120 89<73 578> 313 89<125 630>
Fore
630 313 m 1
 103 313 l 1
 126 402 l 1
 653 402 l 1
 630 313 l 1
578 120 m 1
 51 120 l 1
 74 209 l 1
 601 209 l 1
 578 120 l 1
EndSplineSet
EndChar
StartChar: greater
Encoding: 62 62 31
Width: 563
Flags: W
Fore
613 241 m 1
 14 -3 l 1
 38 86 l 1
 501 276 l 1
 140 467 l 1
 164 556 l 1
 631 310 l 1
 613 241 l 1
EndSplineSet
EndChar
StartChar: question
Encoding: 63 63 32
Width: 443
Flags: W
HStem: -14 140<214 250> 647 53<369 404>
Fore
548 530 m 0
 548 530 l 0
 531 462 472 399 421 355 c 0
 352 293 307 230 280 164 c 1
 240 164 l 1
 284 332 396 398 432 528 c 0
 449 588 433 647 369 647 c 0
 336 647 273 624 275 585 c 0
 275 576 280 576 284 567 c 0
 293 550 296 542 290 522 c 0
 281 490 253 470 220 470 c 0
 177 470 175 515 184 548 c 0
 210 645 316 700 404 700 c 0
 525 700 571 614 548 530 c 0
301 55 m 0
 290 15 247 -14 214 -14 c 0
 178 -14 151 18 161 55 c 0
 170 92 215 126 250 126 c 0
 284 126 310 94 301 55 c 0
EndSplineSet
EndChar
StartChar: at
Encoding: 64 64 33
Width: 920
Flags: W
HStem: -155 64<448 482> 40 68<670 696> 427 71<637 646> 636 63<656 696>
Fore
972 343 m 0
 972 343 l 0
 928 177 776 40 670 40 c 0
 636 40 579 49 567 109 c 1
 518 66 452 41 412 41 c 0
 335 41 290 86 319 197 c 0
 361 349 525 498 644 498 c 0
 685 498 708 478 720 455 c 1
 736 484 l 1
 848 484 l 1
 674 154 l 2
 659 124 673 108 696 108 c 0
 766 108 877 232 906 341 c 0
 954 518 825 636 671 636 c 0
 465 636 276 427 233 261 c 0
 194 115 195 -91 470 -91 c 0
 564 -91 685 -55 753 -2 c 1
 771 -14 l 1
 731 -81 l 1
 731 -81 613 -155 452 -155 c 0
 243 -155 34 -35 115 269 c 0
 161 441 373 699 688 699 c 0
 819 699 1044 611 972 343 c 0
665 356 m 0
 680 410 664 427 639 427 c 0
 588 427 476 344 435 187 c 0
 419 134 425 109 462 109 c 0
 493 109 542 147 556 166 c 0
 576 189 647 287 665 356 c 0
EndSplineSet
EndChar
StartChar: A
Encoding: 65 65 34
Width: 721
Flags: W
HStem: 0 45<210 238> 217 64<310 511>
Fore
717 0 m 1
 438 0 l 1
 450 45 l 1
 533 48 533 65 522 138 c 1
 511 217 l 1
 267 217 l 1
 241 177 186 108 177 74 c 0
 169 48 200 45 238 45 c 1
 226 0 l 1
 3 0 l 1
 15 43 l 1
 86 49 127 120 190 210 c 2
 519 690 l 1
 564 690 l 1
 656 134 l 1
 662 98 665 41 730 45 c 1
 717 0 l 1
504 281 m 1
 467 513 l 1
 310 281 l 1
 504 281 l 1
EndSplineSet
EndChar
StartChar: B
Encoding: 66 66 35
Width: 666
Flags: W
HStem: 0 45<20 47.2461> 0 61<295 345> 645 45<181 201>
Fore
660 195 m 0xa0
 660 195 l 0
 627 69 499 0 335 0 c 2
 8 0 l 1x60
 20 45 l 1
 101 45 123 68 129 92 c 1
 264 598 l 2
 270 621 263 645 181 645 c 1
 192 690 l 1
 472 690 l 2
 634 690 746 642 711 508 c 0
 691 433 637 386 570 361 c 1
 636 335 684 281 660 195 c 0xa0
582 505 m 0
 582 505 l 0
 601 574 568 611 508 622 c 1
 430 628 398 625 390 598 c 2
 335 390 l 1
 404 390 l 2
 496 390 562 432 582 505 c 0
521 197 m 0
 551 309 444 326 355 326 c 2
 318 326 l 1
 258 103 l 2
 250 74 257 61 316 61 c 0
 413 61 493 89 521 197 c 0
EndSplineSet
EndChar
StartChar: C
Encoding: 67 67 36
Width: 666
Flags: W
HStem: -14 69<373 401> 450 250<562 757> 634 66<544 564>
Fore
684 123 m 1xa0
 594 38 473 -14 373 -14 c 0
 172 -14 52 115 114 343 c 0
 169 548 353 700 562 700 c 0
 691 700 717 614 774 699 c 1
 816 699 l 1
 757 450 l 1
 713 450 l 1xc0
 711 562 664 634 554 634 c 0
 398 634 296 507 250 335 c 0
 215 201 246 55 401 55 c 0
 496 55 567 86 664 163 c 1
 684 123 l 1xa0
EndSplineSet
EndChar
StartChar: D
Encoding: 68 68 37
Width: 721
Flags: W
HStem: 0 45<20 44.862> 627 63<192 464> 645 45<181 201>
Fore
793 344 m 0xc0
 793 344 l 0
 737 135 562 0 286 0 c 2
 8 0 l 1
 20 45 l 1
 94 45 114 68 120 92 c 1
 255 598 l 2
 261 621 255 645 181 645 c 1xa0
 192 690 l 1
 462 690 l 2
 725 690 854 576 793 344 c 0xc0
659 343 m 0
 710 531 611 627 435 627 c 0xc0
 398 627 390 627 381 588 c 1
 250 103 l 2
 243 75 260 68 276 66 c 0
 470 57 611 166 659 343 c 0
EndSplineSet
EndChar
StartChar: E
Encoding: 69 69 38
Width: 609
Flags: W
HStem: 0 45<12 36.3163> 0 66<241 561> 326 66<319 449> 522 168<184 694> 624 66<184 587> 645 45<174 193>
Fore
665 194 m 1x68
 561 0 l 1
 0 0 l 1x68
 12 45 l 1
 84 45 106 68 112 92 c 1
 247 598 l 2
 253 621 246 645 174 645 c 1xa4
 184 690 l 1x30
 739 690 l 1x24
 694 522 l 1
 650 522 l 1x30
 654 581 636 624 574 624 c 2
 413 624 l 2
 396 624 379 614 375 598 c 2
 319 392 l 1
 447 392 l 2
 507 392 564 406 585 487 c 1
 630 487 l 1
 561 229 l 1
 516 229 l 1
 538 310 490 326 430 326 c 2
 303 326 l 1
 240 92 l 2
 237 81 233 66 246 66 c 2
 378 66 l 2
 453 66 527 68 613 194 c 1
 665 194 l 1x68
EndSplineSet
EndChar
StartChar: F
Encoding: 70 70 39
Width: 556
Flags: W
HStem: 0 45<12 36.3163 301 316> 326 66<319 440> 522 168<184 696> 624 66<184 593> 645 45<174 193>
Fore
696 522 m 1xe0
 648 522 l 1xe0
 665 633 608 624 544 624 c 2
 412 624 l 2xd0
 389 624 379 613 375 598 c 1
 319 392 l 1
 438 392 l 2
 498 392 554 406 576 487 c 1
 622 487 l 1
 553 229 l 1
 507 229 l 1
 528 310 481 326 421 326 c 2
 303 326 l 1
 240 92 l 1
 233 68 241 45 316 45 c 1
 304 0 l 1
 0 0 l 1
 12 45 l 1
 84 45 106 68 112 92 c 1
 247 598 l 2
 253 621 246 645 174 645 c 1xc8
 184 690 l 1xe0
 740 690 l 1xc8
 696 522 l 1xe0
EndSplineSet
EndChar
StartChar: G
Encoding: 71 71 40
Width: 721
Flags: W
HStem: -14 66<379 409> 336 45<527 552 538 806> 464 236<558 760> 636 64<528 572>
Fore
806 336 m 1xd0
 739 336 728 307 714 260 c 1
 662 61 l 1
 588 26 462 -14 379 -14 c 0
 203 -14 41 98 106 341 c 0
 161 547 350 700 558 700 c 0xe0
 673 700 727 622 773 700 c 1
 816 700 l 1xd0
 760 464 l 1
 717 464 l 1xe0
 708 573 662 636 550 636 c 0
 392 636 289 501 244 333 c 0
 204 186 249 52 409 52 c 0
 444 52 485 58 522 72 c 0
 545 83 547 88 553 111 c 2
 593 260 l 1
 607 309 610 336 527 336 c 1
 538 381 l 1
 817 381 l 1
 806 336 l 1xd0
EndSplineSet
EndChar
StartChar: H
Encoding: 72 72 41
Width: 721
Flags: W
HStem: 0 45<20 44.862 307 323 424 448.903 711 727> 321 66<327 587> 645 45<187 206.44 187 484 585 607 596 888>
Fore
714 0 m 1
 412 0 l 1
 424 45 l 1
 498 45 519 68 525 92 c 1
 587 321 l 1
 309 321 l 1
 247 92 l 1
 241 68 249 45 323 45 c 1
 310 0 l 1
 8 0 l 1
 20 45 l 1
 94 45 114 68 120 92 c 1
 255 598 l 2
 261 621 255 645 183 645 c 1
 187 690 l 1
 495 690 l 1
 484 645 l 1
 410 645 389 621 382 598 c 2
 327 387 l 1
 605 387 l 1
 660 598 l 2
 667 621 659 645 585 645 c 1
 596 690 l 1
 899 690 l 1
 888 645 l 1
 816 645 793 621 786 598 c 2
 651 92 l 1
 645 68 654 45 727 45 c 1
 714 0 l 1
EndSplineSet
EndChar
StartChar: I
Encoding: 73 73 42
Width: 333
Flags: W
HStem: 0 45<18 45.878 325 341> 645 45<180 199 190 502>
Fore
329 0 m 1
 6 0 l 1
 18 45 l 1
 101 45 123 68 129 92 c 1
 264 598 l 2
 270 621 263 645 180 645 c 1
 190 690 l 1
 513 690 l 1
 502 645 l 1
 419 645 396 621 390 598 c 2
 255 92 l 1
 249 68 258 45 341 45 c 1
 329 0 l 1
EndSplineSet
EndChar
StartChar: J
Encoding: 74 74 43
Width: 388
Flags: W
HStem: -14 146<92 109> 645 45<240 256 250 562>
Fore
562 645 m 1
 479 645 456 621 450 598 c 2
 347 210 l 1
 306 60 207 -14 109 -14 c 0
 75 -14 12 0 15 54 c 1
 17 71 l 1
 25 100 58 132 94 132 c 0
 134 132 146 100 140 86 c 0
 132 72 135 49 149 49 c 0
 174 49 189 91 198 126 c 2
 324 598 l 2
 330 621 323 645 240 645 c 1
 250 690 l 1
 573 690 l 1
 562 645 l 1
EndSplineSet
EndChar
StartChar: K
Encoding: 75 75 44
Width: 721
Flags: W
HStem: 0 45<20 45.2594 304 327 404 445.476 718 733> 645 45<181 201 192 490 571 846>
Fore
720 0 m 1
 392 0 l 1
 404 45 l 1
 472 45 484 49 475 71 c 1
 461 118 415 187 386 224 c 1
 321 315 l 1
 306 306 l 1
 249 92 l 2
 243 68 252 45 327 45 c 1
 315 0 l 1
 8 0 l 1
 20 45 l 1
 95 45 117 68 123 92 c 1
 258 598 l 2
 264 621 257 645 181 645 c 1
 192 690 l 1
 501 690 l 1
 490 645 l 1
 413 645 390 621 384 598 c 2
 329 390 l 1
 412 449 611 584 622 624 c 0
 630 653 590 644 561 647 c 1
 571 690 l 1
 857 690 l 1
 846 645 l 1
 763 645 717 608 659 562 c 2
 441 390 l 1
 547 230 l 1
 594 157 l 2
 630 101 653 45 733 45 c 1
 720 0 l 1
EndSplineSet
EndChar
StartChar: L
Encoding: 76 76 45
Width: 609
Flags: W
HStem: 0 45<12 36.3163> 0 66<287 559> 645 45<174 193 184 476>
Fore
668 198 m 1x60
 559 0 l 1
 0 0 l 1x60
 12 45 l 1xa0
 84 45 106 68 112 92 c 1
 247 598 l 2
 253 621 246 645 174 645 c 1
 184 690 l 1
 487 690 l 1
 476 645 l 1
 402 645 381 621 375 598 c 2
 240 92 l 2
 233 69 267 66 321 66 c 0
 441 66 524 60 619 198 c 1
 668 198 l 1x60
EndSplineSet
EndChar
StartChar: M
Encoding: 77 77 46
Width: 887
Flags: W
HStem: 0 45<20 47.2461 262 281 593 617.316 871 894> 645 45<183 201 846 1055>
Fore
882 0 m 1
 581 0 l 1
 593 45 l 1
 665 45 687 68 693 92 c 1
 809 528 l 1
 432 0 l 1
 402 0 l 1
 307 505 l 1
 197 92 l 1
 190 68 200 45 281 45 c 1
 269 0 l 1
 8 0 l 1
 20 45 l 1
 101 45 123 68 129 92 c 1
 264 598 l 2
 270 621 263 645 183 645 c 1
 194 690 l 1
 412 690 l 1
 504 198 l 1
 846 690 l 1
 1066 690 l 1
 1055 645 l 1
 982 645 960 621 954 598 c 2
 819 92 l 1
 813 68 822 45 894 45 c 1
 882 0 l 1
EndSplineSet
EndChar
StartChar: N
Encoding: 78 78 47
Width: 721
Flags: W
HStem: 0 45<12 39.52 251 275> 645 45<184 201.069 631 657 642 894>
Fore
894 645 m 1
 813 645 790 621 783 598 c 2
 621 -14 l 1
 587 -14 l 1
 304 518 l 1
 190 92 l 2
 184 68 192 45 275 45 c 1
 263 0 l 1
 0 0 l 1
 12 45 l 1
 94 45 115 68 121 92 c 1
 257 596 l 1
 253 605 l 1
 233 636 230 645 174 645 c 1
 184 690 l 1
 373 690 l 1
 616 229 l 1
 714 598 l 2
 720 621 714 645 631 645 c 1
 642 690 l 1
 905 690 l 1
 894 645 l 1
EndSplineSet
EndChar
StartChar: O
Encoding: 79 79 48
Width: 721
Flags: W
HStem: -14 21G<266.5 461.5> 639 61<531 548>
Fore
791 343 m 0
 791 343 l 0
 737 143 565 -14 358 -14 c 0
 175 -14 55 124 114 343 c 0
 169 550 347 703 548 700 c 1
 730 708 849 564 791 343 c 0
654 343 m 1
 694 492 682 642 531 639 c 1
 389 630 301 525 252 343 c 0
 198 146 258 38 372 48 c 0
 547 61 631 241 654 343 c 1
EndSplineSet
EndChar
StartChar: P
Encoding: 80 80 49
Width: 556
Flags: W
HStem: 0 45<11 35.6301 290 313> 289 63<333 373> 627 63<189 431> 645 45<178 192>
Fore
690 502 m 0xd0
 690 502 l 0
 648 347 499 289 364 289 c 0
 341 289 316 290 292 292 c 1
 238 92 l 1
 232 68 241 45 313 45 c 1
 301 0 l 1
 -2 0 l 1
 11 45 l 1
 84 45 106 68 112 92 c 1
 247 598 l 2
 253 621 247 645 178 645 c 1xd0
 189 690 l 1xe0
 452 690 l 2
 614 690 722 627 690 502 c 0xd0
553 495 m 0
 582 601 501 627 412 627 c 0xe0
 382 627 381 624 373 594 c 2
 309 355 l 1
 321 353 332 352 344 352 c 0
 444 352 525 387 553 495 c 0
EndSplineSet
EndChar
StartChar: Q
Encoding: 81 81 50
Width: 721
Flags: W
HStem: -177 225<373 665> 639 61<529 550>
Fore
665 -177 m 1
 665 -177 l 0
 475 -177 362 -146 296 -61 c 0
 283 -45 270 -17 257 -5 c 1
 252 5 238 8 233 9 c 0
 108 46 75 201 114 343 c 0
 167 545 336 700 548 700 c 0
 757 700 845 544 791 343 c 0
 740 154 581 14 447 -6 c 1
 492 -84 559 -132 676 -135 c 1
 665 -177 l 1
654 343 m 0
 705 531 654 639 531 639 c 0
 401 637 303 533 252 343 c 0
 201 155 249 48 373 48 c 0
 505 48 607 167 654 343 c 0
EndSplineSet
EndChar
StartChar: R
Encoding: 82 82 51
Width: 666
Flags: W
HStem: 0 45<12 35.9191 287 312> 627 63<184 463> 645 45<174 193>
Fore
665 0 m 1xc0
 487 0 l 1
 332 307 l 1
 293 306 l 1
 237 92 l 2
 230 68 238 45 312 45 c 1
 300 0 l 1
 0 0 l 1
 12 45 l 1
 83 45 103 68 109 92 c 1
 244 598 l 2
 250 621 244 645 174 645 c 1xa0
 184 690 l 1
 461 690 l 2
 636 690 722 624 688 501 c 0
 660 395 565 341 470 323 c 1
 594 95 l 2
 611 66 625 48 677 43 c 1
 665 0 l 1xc0
554 499 m 0
 579 590 522 627 441 627 c 0xc0
 387 627 381 630 370 591 c 1
 310 367 l 1
 439 373 528 401 554 499 c 0
EndSplineSet
EndChar
StartChar: S
Encoding: 83 83 52
Width: 556
Flags: W
HStem: -14 63<274 299> 462 238<435 607> 634 66<419 443>
Fore
551 181 m 0xa0
 525 86 422 -14 276 -14 c 0
 180 -14 134 66 101 -14 c 1
 58 -14 l 1
 89 226 l 1
 134 226 l 1
 141 129 186 49 286 49 c 0
 358 49 422 111 421 181 c 0
 418 321 146 329 198 521 c 0
 226 627 332 700 435 700 c 0
 535 700 559 622 604 700 c 1xc0
 645 700 l 1xa0
 607 462 l 1
 558 462 l 1xc0
 561 559 519 634 433 634 c 0
 381 634 332 607 316 551 c 0
 303 498 352 461 386 436 c 0
 504 352 584 306 551 181 c 0xa0
EndSplineSet
EndChar
StartChar: T
Encoding: 84 84 53
Width: 609
Flags: W
HStem: 0 45<166 190.862 454 468> 622 68<197 409 197 619>
Fore
737 495 m 1
 691 495 l 1
 703 625 659 622 594 622 c 2
 536 622 l 1
 393 92 l 1
 387 68 395 45 468 45 c 1
 456 0 l 1
 154 0 l 1
 166 45 l 1
 240 45 260 68 266 92 c 1
 409 622 l 1
 346 622 276 627 243 590 c 1
 217 565 204 533 186 495 c 1
 138 495 l 1
 197 690 l 1
 783 690 l 1
 737 495 l 1
EndSplineSet
EndChar
StartChar: U
Encoding: 85 85 54
Width: 721
Flags: W
HStem: -14 69<356 395> 645 45<178 192 189 479 634 657 645 889>
Fore
889 645 m 1
 811 645 788 621 782 598 c 2
 697 280 l 1
 665 161 630 69 495 14 c 0
 458 -3 401 -14 356 -14 c 0
 166 -14 112 74 163 266 c 1
 252 598 l 2
 258 621 250 645 178 645 c 1
 189 690 l 1
 490 690 l 1
 479 645 l 1
 407 645 384 621 378 598 c 2
 287 258 l 2
 249 112 276 55 395 55 c 0
 570 55 605 190 630 280 c 1
 714 598 l 2
 720 621 713 645 634 645 c 1
 645 690 l 1
 900 690 l 1
 889 645 l 1
EndSplineSet
EndChar
StartChar: V
Encoding: 86 86 55
Width: 721
Flags: W
HStem: -14 21G<362 390> 645 45<181 195 192 472 668 887>
Fore
886 645 m 1
 833 645 806 616 783 581 c 0
 662 404 488 138 390 -14 c 1
 362 -14 l 1
 264 538 l 1
 253 593 247 645 181 645 c 1
 192 690 l 1
 482 690 l 1
 472 645 l 1
 409 645 395 641 389 621 c 0
 384 601 401 527 402 507 c 1
 458 204 l 1
 677 536 l 2
 690 556 714 593 720 614 c 0
 730 645 691 645 657 645 c 1
 668 690 l 1
 897 690 l 1
 886 645 l 1
EndSplineSet
EndChar
StartChar: W
Encoding: 87 87 56
Width: 943
Flags: W
HStem: -14 21G<293 326 624 653> 645 45<181 439 478 491 488 770>
VStem: 565 120<481 590>
Fore
1121 647 m 1
 1087 644 1066 639 1049 624 c 0
 1035 610 1028 596 1021 582 c 1
 653 -14 l 1
 624 -14 l 1
 579 389 l 1
 326 -14 l 1
 293 -14 l 1
 253 427 l 1
 249 476 243 570 229 613 c 0
 223 634 204 642 170 647 c 1
 181 690 l 1
 450 690 l 1
 439 645 l 1
 415 645 l 2
 389 642 373 644 367 617 c 0
 364 608 367 581 369 573 c 1
 407 233 l 1
 565 481 l 1
 564 522 561 570 551 607 c 0
 544 637 524 645 478 645 c 1
 488 690 l 1
 780 690 l 1
 770 645 l 1
 734 645 694 651 687 627 c 0
 684 613 685 596 685 590 c 1
 727 233 l 1
 917 533 l 2
 945 578 963 614 958 628 c 0
 952 645 926 644 899 647 c 1
 909 690 l 1
 1132 690 l 1
 1121 647 l 1
EndSplineSet
EndChar
StartChar: X
Encoding: 88 88 57
Width: 721
Flags: W
HStem: 0 45<12 27.4088 255 269 409 449.395 715 730> 645 45<197 511 621 884>
Fore
717 0 m 1
 396 0 l 1
 409 45 l 1
 476 45 493 49 488 77 c 1
 488 100 470 144 461 164 c 1
 413 280 l 1
 280 154 l 2
 255 132 226 106 206 81 c 0
 189 60 209 45 269 45 c 1
 257 0 l 1
 0 0 l 1
 12 45 l 1
 78 45 132 100 198 163 c 2
 389 339 l 1
 332 485 l 1
 284 602 266 642 186 645 c 1
 197 690 l 1
 522 690 l 1
 511 645 l 1
 449 645 436 645 430 627 c 0
 422 598 468 499 479 476 c 2
 496 439 l 1
 622 556 l 2
 639 571 679 602 685 625 c 0
 693 651 650 645 621 645 c 1
 631 690 l 1
 894 690 l 1
 883 645 l 1
 803 645 734 582 696 547 c 2
 519 381 l 1
 628 123 l 1
 656 65 674 45 730 45 c 1
 717 0 l 1
EndSplineSet
EndChar
StartChar: Y
Encoding: 89 89 58
Width: 721
Flags: W
HStem: 0 45<214 242.785 513 542> 645 45<184 198 195 488 656 694.443>
Fore
888 647 m 1
 808 636 748 570 710 528 c 2
 513 315 l 1
 453 92 l 1
 447 68 456 45 542 45 c 1
 530 0 l 1
 201 0 l 1
 214 45 l 1
 300 45 321 68 327 92 c 1
 384 303 l 1
 309 484 l 1
 270 579 263 644 184 645 c 1
 195 690 l 1
 499 690 l 1
 488 645 l 1
 433 645 416 647 412 630 c 0
 407 611 413 596 421 582 c 1
 499 386 l 1
 679 584 l 1
 691 599 711 616 710 634 c 0
 708 645 700 645 645 645 c 1
 656 690 l 1
 899 690 l 1
 888 647 l 1
EndSplineSet
EndChar
StartChar: Z
Encoding: 90 90 59
Width: 609
Flags: W
HStem: 0 63<186 584> 627 63<224 588>
Fore
664 201 m 1
 584 0 l 1
 -5 0 l 1
 3 29 l 1
 588 627 l 1
 404 627 l 2
 309 627 249 610 200 493 c 1
 149 493 l 1
 224 690 l 1
 777 690 l 1
 766 662 l 1
 186 63 l 1
 407 63 l 2
 508 63 559 89 617 201 c 1
 664 201 l 1
EndSplineSet
EndChar
StartChar: bracketleft
Encoding: 91 91 60
Width: 333
Flags: W
HStem: -157 51<178.965 270> 639 51<260 482>
Fore
270 -157 m 1
 34 -157 l 1
 260 690 l 1
 496 690 l 1
 482 639 l 1
 392 639 l 2
 356 639 346 631 336 596 c 2
 161 -55 l 2
 151 -97 158 -106 197 -106 c 2
 284 -106 l 1
 270 -157 l 1
EndSplineSet
EndChar
StartChar: backslash
Encoding: 92 92 61
Width: 278
Flags: W
HStem: 0 21G<281 382>
Fore
382 0 m 1
 281 0 l 1
 84 707 l 1
 186 707 l 1
 382 0 l 1
EndSplineSet
EndChar
StartChar: bracketright
Encoding: 93 93 62
Width: 333
Flags: W
HStem: -157 51<-7 215> 639 51<205 301>
Fore
215 -157 m 1
 -20 -157 l 1
 -6 -106 l 1
 75 -106 l 2
 124 -104 131 -98 143 -51 c 1
 310 571 l 1
 321 616 332 639 293 639 c 2
 192 639 l 1
 206 690 l 1
 441 690 l 1
 215 -157 l 1
EndSplineSet
EndChar
StartChar: asciicircum
Encoding: 94 94 63
Width: 468
Flags: W
Fore
544 257 m 1
 444 257 l 1
 389 576 l 1
 163 257 l 1
 65 257 l 1
 379 687 l 1
 459 687 l 1
 544 257 l 1
EndSplineSet
EndChar
StartChar: underscore
Encoding: 95 95 64
Width: 499
Flags: W
HStem: -166 68<-39 467>
Fore
467 -166 m 1
 -57 -166 l 1
 -38 -98 l 1
 485 -98 l 1
 467 -166 l 1
EndSplineSet
EndChar
StartChar: grave
Encoding: 96 96 65
Width: 333
Flags: W
Fore
410 507 m 1
 336 508 l 1
 214 599 l 2
 197 610 174 633 180 653 c 0
 187 684 207 702 235 702 c 0
 255 702 283 688 292 665 c 1
 410 507 l 1
EndSplineSet
EndChar
StartChar: a
Encoding: 97 97 66
Width: 443
Flags: W
HStem: -11 21G<106 160 331.5 371.5> 435 47<326 353>
Fore
484 108 m 0
 467 52 l 0
 445 32 387 -11 356 -11 c 0
 307 -11 290 18 292 54 c 1
 240 18 180 -11 140 -11 c 0
 72 -11 37 43 54 108 c 0
 86 229 255 276 353 310 c 1
 378 399 382 435 327 435 c 0
 310 435 280 430 266 415 c 1
 260 404 260 386 253 361 c 0
 246 332 210 304 181 304 c 0
 124 304 124 353 163 401 c 0
 217 465 287 482 353 482 c 0
 473 482 495 432 459 300 c 2
 404 89 l 2
 396 61 418 66 484 108 c 0
300 108 m 1
 339 260 l 1
 276 238 195 220 175 143 c 0
 166 108 175 74 215 74 c 0
 230 74 283 89 300 108 c 1
EndSplineSet
EndChar
StartChar: b
Encoding: 98 98 67
Width: 499
Flags: W
HStem: -11 59<240 269> 396 86<364 430>
Fore
553 255 m 0
 553 255 l 0
 518 118 384 -11 240 -11 c 0
 180 -11 123 6 89 40 c 0
 80 48 78 61 83 80 c 2
 215 571 l 1
 229 627 218 619 163 619 c 1
 174 659 l 1
 221 671 249 676 276 685 c 2
 362 713 l 1
 287 429 l 1
 329 464 381 482 430 482 c 0
 553 482 582 362 553 255 c 0
430 212 m 0
 450 286 458 396 364 396 c 0
 300 396 269 359 258 321 c 1
 198 97 l 1
 187 71 198 69 217 58 c 0
 230 52 253 48 269 48 c 0
 361 48 410 135 430 212 c 0
EndSplineSet
EndChar
StartChar: c
Encoding: 99 99 68
Width: 443
Flags: W
HStem: -11 95<209 280> 316 21G<423.5 452.5> 429 53<346 378>
Fore
473 167 m 1
 398 66 316 -11 209 -11 c 0
 95 -11 38 95 72 226 c 0
 109 362 221 482 378 482 c 0
 439 482 525 447 510 373 c 0
 502 344 467 316 438 316 c 0
 409 316 387 344 395 372 c 0
 404 406 390 429 346 429 c 0
 266 429 207 344 187 267 c 0
 164 181 184 84 280 84 c 0
 341 84 392 129 444 186 c 1
 473 167 l 1
EndSplineSet
EndChar
StartChar: d
Encoding: 100 100 69
Width: 499
Flags: W
HStem: -11 74<209 267> 427 55<347 366>
Fore
515 48 m 1
 515 48 l 0
 455 31 399 14 321 -22 c 1
 338 38 l 1
 300 9 252 -11 209 -11 c 0
 77 -11 41 104 74 223 c 0
 106 346 230 482 366 482 c 0
 404 482 432 468 450 456 c 1
 481 571 l 2
 495 625 487 619 427 619 c 1
 438 659 l 1
 487 671 513 677 541 685 c 2
 627 713 l 1
 464 103 l 2
 456 74 488 84 525 84 c 1
 515 48 l 1
362 129 m 1
 410 312 l 1
 429 376 413 427 349 427 c 0
 272 427 215 338 192 253 c 0
 160 132 194 63 267 63 c 0
 316 63 353 100 362 129 c 1
EndSplineSet
EndChar
StartChar: e
Encoding: 101 101 70
Width: 443
Flags: W
HStem: -11 92<209 275> 276 56<198 488> 422 60<318 355>
Fore
485 178 m 1
 485 178 l 0
 419 71 313 -11 209 -11 c 0
 88 -11 37 100 71 226 c 0
 112 376 226 482 355 482 c 0
 470 482 519 399 488 276 c 1
 177 276 l 1
 160 189 174 81 275 81 c 0
 336 81 399 131 452 194 c 1
 485 178 l 1
375 332 m 1
 382 378 372 422 318 422 c 0
 260 422 221 382 198 332 c 1
 375 332 l 1
EndSplineSet
EndChar
StartChar: f
Encoding: 102 102 71
Width: 333
Flags: W
HStem: 0 21G<8 292> 416 56<134 203 326 433> 579 128<462 499>
Fore
564 639 m 1
 558 611 528 579 499 579 c 0
 442 579 468 630 433 650 c 0
 427 654 413 656 406 651 c 1
 367 642 359 594 352 565 c 2
 326 472 l 1
 447 472 l 1
 433 416 l 1
 312 416 l 1
 224 92 l 1
 215 55 227 43 301 37 c 1
 292 0 l 1
 8 0 l 1
 17 37 l 1
 89 43 106 55 115 92 c 1
 203 416 l 1
 121 416 l 1
 135 472 l 1
 217 472 l 1
 226 504 233 530 249 559 c 0
 289 642 373 707 462 707 c 0
 507 707 554 696 564 639 c 1
EndSplineSet
EndChar
StartChar: g
Encoding: 103 103 72
Width: 499
Flags: W
HStem: -217 80<141 203> 147 51<284 309> 386 96<373 585> 430 52<346 373>
Fore
585 386 m 1xe0
 508 386 l 0
 511 359 507 332 501 312 c 0
 473 209 378 147 284 147 c 0
 269 147 250 151 233 154 c 1
 215 149 177 121 174 103 c 1
 183 86 229 89 246 88 c 0
 387 81 496 88 464 -37 c 0
 432 -157 240 -217 141 -217 c 0
 17 -217 -23 -144 -12 -101 c 0
 -2 -61 45 -32 108 11 c 1
 89 22 72 40 80 66 c 0
 89 104 140 143 186 174 c 1
 141 200 123 244 140 309 c 0
 167 415 270 482 373 482 c 0
 459 482 455 432 604 450 c 1
 585 386 l 1xe0
393 284 m 0
 393 284 l 0
 406 335 407 430 346 430 c 0xd0
 293 430 269 390 258 347 c 0
 243 290 235 198 309 198 c 0
 358 198 381 241 393 284 c 0
406 -55 m 0
 418 -11 352 -15 295 -14 c 0
 252 -14 195 -12 149 -5 c 1
 127 -25 97 -52 89 -78 c 0
 81 -111 111 -137 203 -137 c 0
 312 -137 392 -108 406 -55 c 0
EndSplineSet
EndChar
StartChar: h
Encoding: 104 104 73
Width: 499
Flags: W
HStem: 0 21G<-3 232 267 502> 404 78<373 430>
Fore
502 0 m 1
 267 0 l 1
 276 37 l 1
 329 41 346 57 355 92 c 2
 410 300 l 2
 424 350 436 404 373 404 c 0
 324 404 295 379 263 352 c 1
 194 92 l 2
 184 57 192 41 241 37 c 1
 232 0 l 1
 -3 0 l 1
 6 37 l 1
 58 41 75 57 84 92 c 2
 214 571 l 2
 227 622 218 621 163 619 c 1
 174 659 l 1
 220 671 246 677 273 685 c 2
 359 713 l 1
 283 422 l 1
 326 458 378 482 430 482 c 0
 539 482 551 421 521 301 c 1
 464 92 l 2
 455 57 462 41 511 37 c 1
 502 0 l 1
EndSplineSet
EndChar
StartChar: i
Encoding: 105 105 74
Width: 278
Flags: W
HStem: 0 21G<11 272> 579 128<289 323>
Fore
369 642 m 0
 369 642 l 0
 359 608 323 579 289 579 c 0
 252 579 233 608 243 642 c 0
 252 679 286 707 323 707 c 0
 356 707 378 679 369 642 c 0
272 0 m 1
 11 0 l 1
 22 38 l 1
 83 41 101 57 111 92 c 2
 175 335 l 2
 192 398 184 404 114 386 c 1
 124 425 l 1
 326 488 l 1
 220 92 l 2
 210 57 220 41 283 38 c 1
 272 0 l 1
EndSplineSet
EndChar
StartChar: j
Encoding: 106 106 75
Width: 278
Flags: W
HStem: 579 128<316 350>
Fore
396 642 m 0
 396 642 l 0
 387 608 350 579 316 579 c 0
 283 579 261 608 270 642 c 0
 280 679 316 707 350 707 c 0
 384 707 406 679 396 642 c 0
224 25 m 2
 181 -137 95 -217 -23 -217 c 0
 -54 -217 -88 -204 -101 -186 c 0
 -120 -157 -100 -112 -69 -101 c 1
 -38 -88 -14 -94 -5 -112 c 0
 2 -127 9 -146 31 -158 c 0
 61 -174 78 -114 88 -81 c 1
 204 355 l 1
 215 398 203 398 140 389 c 1
 149 425 l 1
 349 488 l 1
 224 25 l 2
EndSplineSet
EndChar
StartChar: k
Encoding: 107 107 76
Width: 499
Flags: W
HStem: 0 38<281 298.206> 433 39<384 420.766 384 604>
Fore
511 0 m 1
 270 0 l 1
 281 38 l 1
 319 38 319 49 316 55 c 2
 233 224 l 1
 198 92 l 2
 189 57 198 41 260 38 c 1
 249 0 l 1
 -11 0 l 1
 0 38 l 1
 61 41 80 57 89 92 c 2
 223 591 l 2
 232 627 221 622 164 617 c 1
 175 659 l 1
 224 671 250 677 278 685 c 2
 364 713 l 1
 255 301 l 1
 386 395 l 2
 399 406 412 415 422 427 c 1
 425 436 413 433 375 433 c 1
 384 472 l 1
 613 472 l 1
 604 433 l 1
 495 433 429 367 326 293 c 1
 416 118 l 2
 435 81 462 41 521 37 c 1
 511 0 l 1
EndSplineSet
EndChar
StartChar: l
Encoding: 108 108 77
Width: 278
Flags: W
HStem: 0 21G<8 272>
Fore
272 0 m 1
 8 0 l 1
 18 38 l 1
 83 41 100 57 109 92 c 2
 238 571 l 1
 253 633 244 624 175 624 c 1
 184 660 l 1
 244 671 319 690 386 711 c 1
 220 92 l 2
 210 57 218 41 283 38 c 1
 272 0 l 1
EndSplineSet
EndChar
StartChar: m
Encoding: 109 109 78
Width: 777
Flags: W
HStem: 0 21G<2 237 270 505 541 776> 404 78<384 445>
Fore
776 0 m 1
 541 0 l 1
 550 37 l 1
 602 41 619 57 628 92 c 2
 682 295 l 2
 705 381 700 404 645 404 c 0
 605 404 565 384 538 353 c 1
 467 92 l 2
 458 57 465 41 515 37 c 1
 505 0 l 1
 270 0 l 1
 280 37 l 1
 332 41 349 57 358 92 c 2
 413 300 l 1
 427 346 442 404 384 404 c 0
 347 404 296 386 269 355 c 1
 198 92 l 2
 189 57 197 41 246 37 c 1
 237 0 l 1
 2 0 l 1
 11 37 l 1
 63 41 80 57 89 92 c 2
 154 335 l 1
 169 379 160 389 106 389 c 1
 115 427 l 1
 304 488 l 1
 281 404 l 1
 276 384 290 424 306 433 c 0
 347 461 398 482 445 482 c 0
 495 482 527 452 535 409 c 1
 584 447 651 482 703 482 c 0
 831 482 813 375 788 280 c 1
 737 92 l 2
 728 57 736 41 785 37 c 1
 776 0 l 1
EndSplineSet
EndChar
StartChar: n
Encoding: 110 110 79
Width: 499
Flags: W
HStem: 0 21G<-3 232 267 502> 404 78<373 439>
Fore
502 0 m 1
 267 0 l 1
 276 37 l 1
 329 41 346 57 355 92 c 2
 413 307 l 1
 425 358 435 404 373 404 c 0
 330 404 293 378 264 353 c 1
 194 92 l 2
 184 57 192 41 241 37 c 1
 232 0 l 1
 -3 0 l 1
 6 37 l 1
 58 41 75 57 84 92 c 2
 151 336 l 2
 167 399 161 399 103 395 c 1
 112 432 l 1
 300 487 l 1
 281 421 l 1
 326 453 376 482 439 482 c 0
 522 482 553 425 522 309 c 1
 464 92 l 2
 455 57 462 41 511 37 c 1
 502 0 l 1
EndSplineSet
EndChar
StartChar: o
Encoding: 111 111 80
Width: 499
Flags: W
HStem: -11 56<243 276> 427 55<347 375>
Fore
550 250 m 0
 550 250 l 0
 513 114 389 -11 243 -11 c 0
 108 -11 46 103 80 230 c 0
 118 370 229 482 375 482 c 0
 515 482 587 389 550 250 c 0
419 203 m 0
 442 287 455 427 347 427 c 0
 280 427 233 364 212 284 c 0
 174 151 187 45 276 45 c 0
 349 45 399 124 419 203 c 0
EndSplineSet
EndChar
StartChar: p
Encoding: 112 112 81
Width: 499
Flags: W
HStem: -11 59<250 275> 402 80<366 435>
Fore
550 255 m 0
 550 255 l 0
 513 114 386 -11 250 -11 c 0
 221 -11 195 2 177 20 c 1
 138 -124 l 1
 129 -161 138 -175 207 -178 c 1
 197 -217 l 1
 -68 -217 l 1
 -57 -180 l 1
 2 -175 20 -161 29 -124 c 1
 154 339 l 2
 166 386 170 402 97 395 c 1
 106 432 l 1
 303 487 l 1
 287 429 l 1
 289 430 292 433 295 435 c 0
 332 462 372 482 435 482 c 0
 553 482 584 379 550 255 c 0
430 215 m 0
 450 290 462 402 366 402 c 0
 339 402 309 390 287 372 c 1
 267 358 267 355 263 336 c 2
 203 115 l 1
 197 91 204 80 223 66 c 0
 237 55 255 48 275 48 c 0
 341 48 404 123 430 215 c 0
EndSplineSet
EndChar
StartChar: q
Encoding: 113 113 82
Width: 499
Flags: W
HStem: -11 86<190 253> 433 49<359 379>
Fore
452 -217 m 1
 186 -217 l 1
 197 -178 l 1
 266 -175 284 -161 293 -124 c 1
 339 46 l 1
 292 15 240 -11 190 -11 c 0
 52 -11 43 117 72 226 c 0
 109 361 235 482 379 482 c 0
 419 482 455 473 481 453 c 1
 530 479 l 1
 567 496 562 472 558 452 c 1
 402 -124 l 1
 393 -161 402 -175 462 -180 c 1
 452 -217 l 1
369 152 m 1
 416 335 l 1
 429 376 439 404 401 425 c 1
 386 432 379 433 361 433 c 0
 270 433 212 333 192 257 c 0
 164 154 180 75 253 75 c 0
 281 75 316 84 344 103 c 0
 364 118 362 131 369 152 c 1
EndSplineSet
EndChar
StartChar: r
Encoding: 114 114 83
Width: 333
Flags: W
HStem: 0 21G<-8 252> 361 121<390 407>
Fore
453 402 m 0
 441 373 416 361 390 361 c 0
 355 361 356 396 332 396 c 0
 315 396 272 355 266 330 c 1
 201 92 l 2
 192 57 201 41 263 38 c 1
 252 0 l 1
 -8 0 l 1
 3 38 l 1
 65 41 83 57 92 92 c 2
 151 310 l 2
 172 390 166 404 95 384 c 1
 106 425 l 1
 307 488 l 1
 289 419 l 1
 323 452 367 482 407 482 c 0
 453 482 475 455 453 402 c 0
EndSplineSet
EndChar
StartChar: s
Encoding: 115 115 84
Width: 388
Flags: W
HStem: -11 49<195 214> 313 21G<375 412> 435 47<304 321>
Fore
396 137 m 0
 372 43 284 -11 197 -11 c 0
 166 -11 151 -3 126 5 c 0
 84 18 81 12 74 -3 c 1
 37 -3 l 1
 86 178 l 1
 126 178 l 1
 118 101 132 38 209 38 c 0
 244 38 281 60 292 97 c 0
 319 203 94 206 132 347 c 0
 155 433 240 482 319 482 c 0
 344 482 361 478 392 464 c 0
 412 456 415 465 425 473 c 1
 455 473 l 1
 412 313 l 1
 375 313 l 1
 373 386 367 435 306 435 c 0
 273 435 237 415 229 382 c 0
 201 283 430 263 396 137 c 0
EndSplineSet
EndChar
StartChar: t
Encoding: 116 116 85
Width: 278
Flags: W
HStem: -11 21G<110.5 172.5> 416 56<295 379>
Fore
318 81 m 1
 257 22 198 -11 147 -11 c 0
 74 -11 66 32 97 141 c 1
 170 416 l 1
 154 416 l 2
 134 416 103 418 127 450 c 1
 192 487 246 545 336 624 c 1
 295 472 l 1
 393 472 l 1
 379 416 l 1
 281 416 l 1
 212 158 l 2
 195 97 186 52 244 72 c 0
 260 78 272 89 295 111 c 1
 318 81 l 1
EndSplineSet
EndChar
StartChar: u
Encoding: 117 117 86
Width: 499
Flags: W
HStem: -11 83<186 252> 433 39<114 138 373 392.936>
Fore
502 40 m 1
 449 25 392 6 321 -17 c 1
 341 58 l 1
 312 32 255 -11 186 -11 c 0
 98 -11 74 51 98 144 c 1
 160 373 l 1
 174 422 170 433 114 433 c 1
 123 472 l 1
 295 472 l 1
 209 149 l 1
 197 106 204 72 252 72 c 0
 276 72 306 86 330 101 c 0
 358 121 355 132 362 163 c 1
 419 372 l 2
 433 422 432 433 364 433 c 1
 373 472 l 1
 554 472 l 1
 464 132 l 1
 453 89 452 72 511 77 c 1
 502 40 l 1
EndSplineSet
EndChar
StartChar: v
Encoding: 118 118 87
Width: 499
Flags: W
HStem: -11 21G<241 248.5> 433 39<115 127 124 335 433 597>
Fore
596 433 m 1
 551 433 533 393 504 350 c 2
 283 25 l 1
 276 14 253 -11 244 -11 c 0
 238 -11 226 14 226 25 c 1
 167 387 l 1
 161 418 147 433 115 433 c 1
 124 472 l 1
 344 472 l 1
 335 433 l 1
 275 433 283 402 284 375 c 1
 315 164 l 1
 427 339 l 2
 470 407 495 433 433 433 c 1
 442 472 l 1
 605 472 l 1
 596 433 l 1
EndSplineSet
EndChar
StartChar: w
Encoding: 119 119 88
Width: 721
Flags: W
HStem: -11 21G<229 235 482 488.5> 433 39<126 138 367 383 674 687>
Fore
822 436 m 1
 788 425 771 393 759 378 c 1
 508 5 l 2
 504 -2 492 -11 485 -11 c 0
 479 -11 475 -2 470 3 c 1
 438 250 l 1
 257 5 l 2
 252 -2 238 -11 232 -11 c 0
 226 -11 220 -2 218 5 c 1
 170 350 l 2
 163 406 170 433 126 433 c 1
 135 472 l 1
 339 472 l 1
 329 432 l 1
 300 435 284 433 278 412 c 0
 272 387 289 287 292 261 c 2
 304 158 l 1
 422 323 l 1
 422 399 424 433 367 433 c 1
 376 472 l 1
 602 472 l 1
 593 433 l 1
 527 435 524 416 530 359 c 1
 551 167 l 1
 551 166 670 339 670 339 c 1
 714 407 736 433 674 433 c 1
 684 472 l 1
 831 472 l 1
 822 436 l 1
EndSplineSet
EndChar
StartChar: x
Encoding: 120 120 89
Width: 499
Flags: W
HStem: 0 38<15 29.8231 173 186 490 502> 433 39<138 361 390 410.104 390 562>
Fore
492 0 m 1
 266 0 l 1
 276 38 l 1
 313 40 335 38 327 54 c 1
 270 186 l 1
 184 91 l 2
 144 48 137 38 186 38 c 1
 175 0 l 1
 5 0 l 1
 15 38 l 1
 60 38 80 63 112 97 c 2
 255 244 l 1
 206 369 l 2
 194 401 198 430 129 433 c 1
 138 472 l 1
 370 472 l 1
 361 433 l 1
 326 433 315 427 313 419 c 0
 310 409 329 362 338 335 c 1
 367 361 412 402 418 422 c 0
 421 435 402 433 381 433 c 1
 390 472 l 1
 571 472 l 1
 562 433 l 1
 518 433 482 409 458 384 c 2
 359 281 l 1
 429 103 l 2
 442 68 458 38 502 38 c 1
 492 0 l 1
EndSplineSet
EndChar
StartChar: y
Encoding: 121 121 90
Width: 499
Flags: W
HStem: -217 125<43 60> 433 39<129 350 445 458 455 605>
Fore
605 433 m 1
 576 433 550 402 538 384 c 2
 287 0 l 2
 237 -78 149 -217 45 -217 c 0
 14 -217 -12 -204 -22 -177 c 1
 -25 -158 -23 -141 -8 -121 c 0
 8 -100 35 -92 58 -92 c 0
 75 -92 94 -103 117 -109 c 0
 140 -115 161 -91 218 -6 c 0
 226 6 240 23 240 32 c 1
 166 398 l 1
 163 419 154 430 120 435 c 1
 129 472 l 1
 359 472 l 1
 350 433 l 1
 287 433 283 416 287 384 c 1
 329 160 l 1
 482 409 l 2
 490 421 490 432 445 433 c 1
 455 472 l 1
 614 472 l 1
 605 433 l 1
EndSplineSet
EndChar
StartChar: z
Encoding: 122 122 91
Width: 443
Flags: W
HStem: 0 55<172 415> 416 56<170 381>
Fore
475 158 m 1
 415 0 l 1
 12 0 l 1
 20 29 l 1
 382 416 l 1
 280 416 l 2
 204 416 192 389 170 330 c 1
 131 330 l 1
 170 472 l 1
 544 472 l 1
 533 442 l 1
 172 55 l 1
 275 55 l 2
 303 55 332 57 361 68 c 1
 398 77 413 124 436 167 c 1
 475 158 l 1
EndSplineSet
EndChar
StartChar: braceleft
Encoding: 123 123 92
Width: 479
Flags: W
Fore
307 -140 m 1
 296 -164 l 1
 174 -167 137 -138 172 -5 c 2
 215 155 l 2
 230 214 230 241 135 269 c 1
 241 296 261 326 276 382 c 2
 323 556 l 2
 356 684 422 707 530 707 c 1
 527 682 l 1
 464 667 439 633 424 571 c 1
 376 396 l 1
 359 332 338 292 286 269 c 1
 327 244 324 200 306 134 c 1
 263 -31 l 1
 246 -91 252 -129 307 -140 c 1
EndSplineSet
EndChar
StartChar: bar
Encoding: 124 124 93
Width: 199
Flags: W
HStem: 0 21G<55 144>
Fore
144 0 m 1
 55 0 l 1
 244 707 l 1
 333 707 l 1
 144 0 l 1
EndSplineSet
EndChar
StartChar: braceright
Encoding: 125 125 94
Width: 479
Flags: W
Fore
492 269 m 1
 379 241 362 214 347 155 c 2
 304 -5 l 2
 269 -138 217 -167 95 -164 c 1
 100 -140 l 1
 158 -129 186 -91 203 -31 c 1
 246 134 l 1
 264 198 284 244 338 269 c 1
 298 292 300 332 316 396 c 1
 364 571 l 1
 379 633 373 667 319 682 c 1
 329 707 l 1
 436 707 488 684 455 556 c 2
 409 382 l 2
 393 326 398 296 492 269 c 1
EndSplineSet
EndChar
StartChar: asciitilde
Encoding: 126 126 95
Width: 540
Flags: W
HStem: 198 158<241 435 255 451>
Fore
624 321 m 1
 571 257 504 198 435 198 c 0
 358 198 301 267 232 267 c 0
 181 267 144 220 101 169 c 1
 66 229 l 1
 118 292 180 356 255 356 c 0
 324 356 406 286 459 286 c 0
 499 286 547 330 587 381 c 1
 624 321 l 1
EndSplineSet
EndChar
StartChar: uni0E10.descless
Encoding: 128 63232 96
Width: 508
Flags: W
HStem: -5 50<292 305> 166 44<173 191> 315 43<200 218> 489 76<452 485>
Fore
561 558 m 0
 529 505 491 489 452 489 c 0
 390 489 324 528 268 528 c 0
 237 528 210 516 188 478 c 1
 445 407 l 2
 458 402 505 395 492 335 c 2
 444 106 l 2
 428 34 378 -5 292 -5 c 0
 220 -5 174 38 189 106 c 2
 202 169 l 1
 192 167 184 166 175 166 c 0
 113 166 87 215 100 269 c 0
 116 319 159 358 216 358 c 0
 305 359 334 313 322 258 c 2
 283 75 l 2
 280 61 285 45 303 45 c 0
 322 45 332 61 335 74 c 2
 390 333 l 2
 395 358 388 367 377 370 c 2
 112 445 l 1
 137 493 199 601 316 598 c 0
 362 598 430 565 485 565 c 0
 507 565 527 570 542 585 c 0
 558 601 586 599 561 558 c 0
185 210 m 0
 220 210 242 236 248 262 c 0
 253 289 242 315 207 315 c 0
 171 315 148 289 143 262 c 0
 137 236 149 210 185 210 c 0
EndSplineSet
KernsSLIFO: 180 31 0 0 183 31 0 0 182 31 0 0 181 31 0 0
EndChar
StartChar: uni0E34.left
Encoding: 129 63233 97
Width: 0
Flags: W
HStem: 726 45<-425 -392> 839 55<-301 -280>
Fore
-98 636 m 1
 -220 694 -316 726 -423 726 c 0
 -463 726 -504 722 -548 713 c 1
 -492 833 -380 894 -280 894 c 0
 -161 894 -61 808 -98 636 c 1
-143 708 m 1
 -155 788 -222 839 -299 839 c 0
 -350 839 -405 818 -453 768 c 1
 -433 770 -414 771 -394 771 c 0
 -308 771 -218 750 -143 708 c 1
EndSplineSet
EndChar
StartChar: uni0E35.left
Encoding: 130 63234 98
Width: 0
Flags: W
HStem: 726 46<-423 -391> 827 55<-309 -291>
Fore
-98 636 m 1
 -220 694 -316 726 -423 726 c 0
 -463 726 -504 722 -548 713 c 1
 -495 829 -390 882 -295 882 c 0
 -251 882 -209 870 -175 849 c 1
 -153 948 l 1
 -56 948 l 1
 -98 751 l 1
 -90 739 -86 690 -98 636 c 1
-145 710 m 1
 -154 781 -227 827 -307 827 c 0
 -357 827 -410 809 -453 768 c 1
 -432 770 -412 772 -391 772 c 0
 -306 772 -219 752 -145 710 c 1
EndSplineSet
EndChar
StartChar: uni0E36.left
Encoding: 131 63235 99
Width: 0
Flags: W
HStem: 726 46<-423 -391> 827 54<-309 -291> 914 38<-135 -123>
Fore
-98 636 m 1
 -220 694 -316 726 -423 726 c 0
 -463 726 -504 722 -548 713 c 1
 -493 832 -385 881 -296 881 c 0
 -273 881 -250 878 -231 872 c 1
 -230 875 l 0
 -223 909 -185 952 -125 952 c 0
 -60 952 -39 908 -48 866 c 0
 -55 833 -80 801 -115 791 c 1
 -87 768 -87 688 -98 636 c 1
-153 819 m 0
 -118 819 -96 843 -91 866 c 0
 -86 890 -98 914 -133 914 c 0
 -168 914 -190 890 -195 866 c 0
 -200 843 -188 819 -153 819 c 0
-145 710 m 1
 -154 781 -227 827 -307 827 c 0
 -357 827 -410 809 -453 768 c 1
 -432 770 -412 772 -391 772 c 0
 -306 772 -219 752 -145 710 c 1
EndSplineSet
EndChar
StartChar: uni0E37.left
Encoding: 132 63236 100
Width: 0
Flags: W
HStem: 726 46<-423 -391> 827 55<-309 -289>
Fore
-145 710 m 1
 -154 781 -227 827 -307 827 c 0
 -357 827 -410 809 -453 768 c 1
 -432 770 -412 772 -391 772 c 0
 -306 772 -219 752 -145 710 c 1
-100 743 m 1
 -90 733 -88 684 -98 636 c 1
 -220 694 -316 726 -423 726 c 0
 -463 726 -504 722 -548 713 c 1
 -493 831 -385 883 -289 882 c 1
 -273 948 l 1
 -200 948 l 1
 -216 869 l 1
 -203 866 -171 851 -160 839 c 1
 -134 948 l 1
 -58 948 l 1
 -100 743 l 1
EndSplineSet
EndChar
StartChar: ellipsis
Encoding: 133 8230 101
Width: 998
Flags: W
HStem: -14 21G<144.5 182 477 514.5 809.5 847>
Fore
914 57 m 0
 914 57 l 0
 906 18 866 -14 828 -14 c 0
 791 -14 767 20 775 57 c 0
 783 92 823 126 858 126 c 0
 895 126 922 94 914 57 c 0
582 57 m 0
 582 57 l 0
 574 18 533 -14 496 -14 c 0
 458 -14 434 20 442 57 c 0
 450 92 489 126 526 126 c 0
 563 126 590 94 582 57 c 0
249 57 m 0
 241 18 201 -14 163 -14 c 0
 126 -14 102 20 110 57 c 0
 118 92 158 126 193 126 c 0
 230 126 257 94 249 57 c 0
EndSplineSet
EndChar
StartChar: uni0E48.low_left
Encoding: 134 63237 102
Width: 0
Flags: W
Fore
-69 926 m 1
 -135 688 l 1
 -207 688 l 1
 -173 926 l 1
 -69 926 l 1
EndSplineSet
EndChar
StartChar: uni0E49.low_left
Encoding: 135 63238 103
Width: 0
Flags: W
HStem: 892 48<-371 -356>
Fore
-29 940 m 17
 -133 627 -429 665 -482 670 c 1
 -473 710 l 1
 -426 716 -403 736 -389 757 c 1
 -388 760 l 1
 -388 760 -398 757 -415 759 c 0
 -463 767 -480 808 -471 850 c 0
 -462 895 -421 940 -356 940 c 0
 -258 940 -277 851 -278 849 c 0
 -295 765 -348 725 -348 725 c 1
 -349 722 l 1
 -349 722 -169 737 -130 940 c 1
 -29 940 l 17
-386 800 m 0
 -356 800 -335 823 -330 846 c 0
 -325 869 -336 892 -366 892 c 0
 -396 892 -417 869 -422 846 c 0
 -427 823 -416 800 -386 800 c 0
EndSplineSet
EndChar
StartChar: uni0E4A.low_left
Encoding: 136 63239 104
Width: 0
Flags: W
HStem: 677 31<-406 -398> 785 31<-385 -373>
Fore
-42 917 m 17
 -59 790 -163 677 -303 677 c 1
 -295 713 l 1
 -258 731 -238 763 -231 794 c 0
 -224 827 -234 858 -254 866 c 1
 -317 828 l 1
 -371 869 l 1
 -404 863 -426 822 -428 799 c 1
 -425 796 l 1
 -425 796 -409 816 -375 816 c 0
 -335 816 -310 790 -319 748 c 0
 -328 705 -363 677 -404 677 c 0
 -469 677 -495 734 -480 806 c 0
 -470 851 -418 919 -355 923 c 1
 -307 874 l 1
 -239 923 l 1
 -175 904 -162 858 -171 814 c 0
 -176 789 -190 764 -205 746 c 1
 -203 745 l 1
 -155 771 -113 833 -115 917 c 1
 -42 917 l 17
-400 708 m 0
 -374 708 -356 727 -352 746 c 0
 -348 766 -357 785 -383 785 c 0
 -409 785 -425 766 -429 746 c 0
 -433 727 -426 708 -400 708 c 0
EndSplineSet
EndChar
StartChar: uni0E4B.low_left
Encoding: 137 63240 105
Width: 0
Flags: W
HStem: 691 21G<-275 -202> 773 75<-338 -260 -167 -88>
Fore
-88 774 m 1
 -183 773 l 1
 -202 691 l 1
 -275 691 l 1
 -260 773 l 1
 -353 774 l 1
 -338 848 l 1
 -244 849 l 1
 -227 931 l 1
 -148 931 l 1
 -167 849 l 1
 -73 848 l 1
 -88 774 l 1
EndSplineSet
EndChar
StartChar: uni0E4C.low_left
Encoding: 138 63241 106
Width: 0
Flags: W
HStem: 679 43<-293 -280>
Fore
-35 954 m 17
 -82 857 -197 836 -223 829 c 1
 -223 826 l 1
 -200 825 -179 802 -187 760 c 0
 -197 714 -240 679 -291 679 c 0
 -346 679 -371 720 -361 766 c 0
 -353 806 -312 859 -218 876 c 0
 -170 885 -131 919 -109 975 c 1
 -35 954 l 17
-282 722 m 0
 -255 722 -237 743 -233 764 c 0
 -228 784 -237 805 -264 805 c 0
 -293 805 -311 784 -316 764 c 0
 -320 743 -311 722 -282 722 c 0
EndSplineSet
EndChar
StartChar: uni0E48.low
Encoding: 139 63242 107
Width: 0
Flags: W
AnchorPoint: "AboveBase" 40.1631 629.76 mark 0
Fore
109 926 m 1
 43 688 l 1
 -37 688 l 1
 -3 926 l 1
 109 926 l 1
EndSplineSet
Substitution: 0 65534 'amni' uni0E4D
EndChar
StartChar: uni0E49.low
Encoding: 140 63243 108
Width: 0
Flags: W
HStem: 925 53<-112 -95>
AnchorPoint: "AboveBase" 40.1631 629.76 mark 0
Fore
264 972 m 17
 157 631 -189 673 -234 677 c 1
 -223 727 l 1
 -194 730 -154 742 -133 777 c 1
 -132 780 l 1
 -132 780 -145 777 -161 779 c 0
 -214 784 -233 831 -224 877 c 0
 -213 927 -168 978 -95 978 c 0
 10 978 -10 880 -10 879 c 0
 -33 771 -96 736 -96 736 c 1
 -94 733 l 1
 -94 733 121 763 156 972 c 1
 264 972 l 17
-132 823 m 0
 -97 823 -74 848 -68 874 c 0
 -63 900 -75 925 -110 925 c 0
 -141 925 -163 900 -168 874 c 0
 -174 848 -163 823 -132 823 c 0
EndSplineSet
Substitution: 0 65534 'amni' uni0E4D
EndChar
StartChar: uni0E4A.low
Encoding: 141 63244 109
Width: 0
Flags: W
HStem: 671 40<-212 -200> 794 39<-186 -174>
AnchorPoint: "AboveBase" 40.1631 629.76 mark 0
Fore
223 954 m 17
 196 803 75 671 -90 671 c 1
 -81 713 l 1
 -36 734 -12 773 -4 809 c 0
 4 849 -7 885 -31 894 c 1
 -109 848 l 1
 -171 899 l 1
 -210 891 -237 842 -239 816 c 1
 -235 809 l 1
 -235 809 -216 833 -176 833 c 0
 -130 833 -101 803 -111 757 c 0
 -122 705 -161 671 -210 671 c 0
 -286 671 -316 737 -298 823 c 0
 -287 877 -226 955 -151 963 c 1
 -96 906 l 1
 -13 963 l 1
 62 940 78 884 67 833 c 0
 60 802 44 773 26 753 c 1
 28 750 l 1
 85 782 134 856 132 954 c 1
 223 954 l 17
-202 711 m 0
 -176 711 -158 732 -154 752 c 0
 -150 773 -158 794 -184 794 c 0
 -213 794 -232 773 -236 752 c 0
 -240 732 -231 711 -202 711 c 0
EndSplineSet
Substitution: 0 65534 'amni' uni0E4D
EndChar
StartChar: uni0E4B.low
Encoding: 142 63245 110
Width: 0
Flags: W
HStem: 768 83<-111 -26 86 169>
AnchorPoint: "AboveBase" 40.1631 629.76 mark 0
Fore
169 770 m 1
 66 768 l 1
 46 677 l 1
 -43 677 l 1
 -26 768 l 1
 -128 770 l 1
 -111 851 l 1
 -9 852 l 1
 8 942 l 1
 106 942 l 1
 86 852 l 1
 186 851 l 1
 169 770 l 1
EndSplineSet
Substitution: 0 65534 'amni' uni0E4D
EndChar
StartChar: uni0E4C.low
Encoding: 143 63246 111
Width: 0
Flags: W
HStem: 671 48<-36 -23>
AnchorPoint: "AboveBase" 40.1631 629.76 mark 0
Fore
247 974 m 17
 195 866 68 843 41 837 c 1
 41 836 l 1
 66 834 90 806 81 760 c 0
 70 710 23 671 -34 671 c 0
 -94 671 -121 717 -110 768 c 0
 -101 811 -57 865 46 889 c 0
 98 902 144 935 167 998 c 1
 247 974 l 17
-25 719 m 0
 5 719 25 742 29 764 c 0
 34 786 24 809 -6 809 c 0
 -36 809 -56 786 -61 764 c 0
 -65 742 -55 719 -25 719 c 0
EndSplineSet
EndChar
StartChar: uni0E0D.descless
Encoding: 144 63247 112
Width: 800
Flags: W
HStem: -8 49<539 553> 143 44<241 257> 378 44<178 197 178 356> 545 53<358 398>
Fore
732 117 m 2
 720 61 637 -8 540 -8 c 0
 447 -8 390 54 405 124 c 2
 464 401 l 2
 484 496 428 545 358 545 c 0
 294 545 219 505 178 422 c 1
 366 422 l 1
 356 378 l 1
 333 378 306 378 306 378 c 2
 278 378 261 355 255 326 c 2
 225 183 l 1
 237 186 248 187 257 187 c 0
 318 187 340 140 330 93 c 0
 320 46 279 -1 211 -5 c 0
 104 -9 100 80 109 124 c 2
 150 315 l 2
 154 336 176 373 197 378 c 1
 114 378 l 1
 150 522 284 598 398 598 c 0
 502 598 589 534 567 401 c 1
 503 101 l 2
 496 68 516 41 551 41 c 0
 588 41 618 66 625 100 c 1
 715 519 l 1
 780 582 l 2
 800 593 836 608 824 551 c 2
 732 117 l 2
220 38 m 0
 256 38 279 64 284 90 c 0
 290 117 278 143 242 143 c 0
 206 143 184 117 178 90 c 0
 173 64 184 38 220 38 c 0
EndSplineSet
EndChar
StartChar: quoteleft
Encoding: 145 8216 113
Width: 333
Flags: W
Fore
358 524 m 0
 349 479 314 452 271 452 c 0
 205 452 196 504 208 559 c 0
 224 637 309 713 372 731 c 1
 379 703 l 1
 323 680 275 622 268 588 c 0
 267 585 266 579 269 581 c 0
 283 587 288 588 306 588 c 0
 342 588 367 564 358 524 c 0
EndSplineSet
EndChar
StartChar: quoteright
Encoding: 146 8217 114
Width: 333
Flags: W
Fore
376 624 m 0
 359 545 275 470 211 452 c 1
 203 479 l 1
 261 502 308 561 315 594 c 0
 316 598 317 604 314 602 c 0
 301 596 295 594 277 594 c 0
 241 594 216 619 224 659 c 0
 233 703 269 731 312 731 c 0
 378 731 387 679 376 624 c 0
EndSplineSet
EndChar
StartChar: quotedblleft
Encoding: 147 8220 115
Width: 473
Flags: W
Fore
536 524 m 0
 527 479 492 452 449 452 c 0
 383 452 374 504 386 559 c 0
 402 637 487 713 550 731 c 1
 558 703 l 1
 501 680 453 622 446 588 c 0
 445 585 444 579 447 581 c 0
 461 587 466 588 484 588 c 0
 520 588 545 564 536 524 c 0
305 524 m 0
 296 479 260 452 217 452 c 0
 151 452 142 504 154 559 c 0
 170 637 255 713 318 731 c 1
 326 703 l 1
 269 680 221 622 214 588 c 0
 213 585 212 579 215 581 c 0
 229 587 234 588 252 588 c 0
 288 588 314 564 305 524 c 0
EndSplineSet
EndChar
StartChar: quotedblright
Encoding: 148 8221 116
Width: 473
Flags: W
Fore
567 621 m 0
 550 542 466 467 402 449 c 1
 394 476 l 1
 452 499 500 558 507 591 c 0
 507 594 509 601 505 599 c 0
 492 593 487 591 469 591 c 0
 433 591 407 616 415 656 c 0
 425 700 461 728 504 728 c 0
 570 728 579 676 567 621 c 0
335 621 m 0
 318 542 234 467 170 449 c 1
 162 476 l 1
 220 499 268 558 275 591 c 0
 275 594 277 601 273 599 c 0
 260 593 255 591 237 591 c 0
 201 591 176 616 184 656 c 0
 194 700 229 728 272 728 c 0
 338 728 347 676 335 621 c 0
EndSplineSet
EndChar
StartChar: bullet
Encoding: 149 8226 117
Width: 385
Flags: W
Fore
403 319 m 0
 386 241 311 177 230 177 c 0
 153 177 102 241 119 319 c 0
 134 398 212 462 290 462 c 0
 371 462 420 398 403 319 c 0
EndSplineSet
EndChar
StartChar: endash
Encoding: 150 8211 118
Width: 768
Flags: W
HStem: 201 72<79 789>
Fore
789 201 m 1
 65 201 l 1
 80 273 l 1
 804 273 l 1
 789 201 l 1
EndSplineSet
EndChar
StartChar: emdash
Encoding: 151 8212 119
Width: 1536
Flags: W
HStem: 201 72<66 1570>
Fore
1570 201 m 1
 52 201 l 1
 67 273 l 1
 1585 273 l 1
 1570 201 l 1
EndSplineSet
EndChar
StartChar: uni0E31.left
Encoding: 152 63248 120
Width: 0
Flags: W
HStem: 676 50<-145 -111> 880 49<-217 -203>
Fore
288 923 m 17
 212 737 10 676 -137 676 c 0
 -255 676 -352 736 -333 823 c 0
 -321 882 -264 929 -205 929 c 0
 -142 929 -108 885 -120 826 c 0
 -129 786 -158 754 -202 737 c 1
 -178 730 -150 726 -121 726 c 0
 -10 726 124 782 187 923 c 1
 288 923 l 17
-237 776 m 0
 -202 776 -180 802 -174 828 c 0
 -168 854 -180 880 -215 880 c 0
 -251 880 -273 854 -279 828 c 0
 -285 802 -273 776 -237 776 c 0
EndSplineSet
EndChar
StartChar: uni0E4D.left
Encoding: 153 63249 121
Width: 0
Flags: W
HStem: 673 54<-193 -179> 831 57<-161 -147>
Fore
-193 673 m 0
 -265 673 -290 727 -279 780 c 0
 -268 834 -219 888 -147 888 c 0
 -76 888 -53 834 -64 780 c 0
 -75 727 -122 673 -193 673 c 0
-181 727 m 0
 -146 727 -124 753 -118 779 c 0
 -113 805 -124 831 -159 831 c 0
 -195 831 -218 805 -223 779 c 0
 -229 753 -217 727 -181 727 c 0
EndSplineSet
EndChar
StartChar: uni0E47.left
Encoding: 154 63250 122
Width: 0
Flags: W
HStem: 656 44<-176 -163> 787 43<-147 -136>
Fore
-4 1008 m 17
 -29 897 -113 872 -184 876 c 0
 -218 877 -279 886 -316 888 c 0
 -356 891 -390 861 -399 818 c 0
 -405 797 -404 773 -395 748 c 1
 -352 813 -279 777 -252 742 c 1
 -252 742 -240 733 -237 746 c 0
 -226 801 -178 830 -136 830 c 0
 -94 830 -57 802 -69 743 c 0
 -82 684 -137 656 -176 656 c 0
 -256 656 -285 733 -340 733 c 0
 -382 733 -387 687 -365 656 c 1
 -433 657 l 1
 -471 698 -481 753 -470 804 c 0
 -455 882 -390 949 -302 940 c 0
 -271 937 -211 931 -182 928 c 0
 -158 925 -103 928 -95 1008 c 1
 -4 1008 l 17
-111 743 m 0
 -105 772 -124 787 -145 787 c 0
 -167 787 -192 772 -198 743 c 0
 -204 714 -185 700 -163 700 c 0
 -142 700 -117 714 -111 743 c 0
EndSplineSet
EndChar
StartChar: uni0E48.left
Encoding: 155 63251 123
Width: 0
Flags: W
Fore
21 1227 m 1
 -36 1021 l 1
 -113 1021 l 1
 -83 1227 l 1
 21 1227 l 1
EndSplineSet
EndChar
StartChar: uni0E49.left
Encoding: 156 63252 124
Width: 0
Flags: W
HStem: 1187 42<-98 -85>
Fore
207 1229 m 17
 117 957 -147 991 -193 994 c 1
 -185 1029 l 1
 -144 1034 -125 1052 -111 1071 c 1
 -111 1074 l 1
 -111 1074 -121 1071 -134 1072 c 0
 -177 1079 -192 1115 -184 1151 c 0
 -176 1190 -141 1229 -85 1229 c 0
 1 1229 -15 1152 -16 1150 c 0
 -31 1077 -76 1043 -76 1043 c 1
 -77 1040 l 1
 -77 1040 86 1054 118 1229 c 1
 207 1229 l 17
-111 1109 m 0
 -84 1109 -66 1128 -62 1148 c 0
 -58 1168 -68 1187 -95 1187 c 0
 -121 1187 -138 1168 -142 1148 c 0
 -146 1128 -137 1109 -111 1109 c 0
EndSplineSet
EndChar
StartChar: uni0E4A.left
Encoding: 157 63253 125
Width: 0
Flags: W
HStem: 986 35<-162 -151> 1089 35<-141 -131>
Fore
203 1226 m 17
 184 1098 81 986 -59 986 c 1
 -52 1021 l 1
 -14 1039 6 1071 12 1102 c 0
 19 1136 10 1167 -10 1175 c 1
 -73 1137 l 1
 -128 1178 l 1
 -160 1172 -182 1130 -184 1107 c 1
 -181 1104 l 1
 -181 1104 -165 1124 -131 1124 c 0
 -91 1124 -68 1098 -76 1057 c 0
 -85 1014 -119 986 -160 986 c 0
 -225 986 -251 1043 -236 1115 c 0
 -226 1160 -174 1227 -111 1232 c 1
 -64 1183 l 1
 5 1232 l 1
 69 1213 82 1167 73 1123 c 0
 67 1098 54 1073 38 1055 c 1
 41 1054 l 1
 89 1080 131 1141 129 1226 c 1
 203 1226 l 17
-153 1021 m 0
 -130 1021 -115 1038 -112 1055 c 0
 -108 1072 -116 1089 -139 1089 c 0
 -161 1089 -176 1072 -180 1055 c 0
 -183 1038 -175 1021 -153 1021 c 0
EndSplineSet
EndChar
StartChar: uni0E4B.left
Encoding: 158 63254 126
Width: 0
Flags: W
HStem: 1074 75<-185 -107 -14 64>
Fore
64 1075 m 1
 -30 1074 l 1
 -49 995 l 1
 -122 995 l 1
 -107 1074 l 1
 -201 1075 l 1
 -185 1149 l 1
 -91 1150 l 1
 -75 1229 l 1
 4 1229 l 1
 -14 1150 l 1
 80 1149 l 1
 64 1075 l 1
EndSplineSet
EndChar
StartChar: uni0E4C.left
Encoding: 159 63255 127
Width: 0
Flags: W
HStem: 926 42<-114 -101>
Fore
143 1201 m 17
 97 1104 -18 1086 -43 1080 c 1
 -44 1077 l 1
 -21 1075 -0 1049 -9 1008 c 0
 -19 962 -61 926 -112 926 c 0
 -167 926 -192 968 -182 1014 c 0
 -174 1054 -134 1106 -39 1123 c 0
 9 1132 48 1166 70 1223 c 1
 143 1201 l 17
-103 968 m 0
 -77 968 -60 989 -55 1010 c 0
 -51 1030 -60 1051 -86 1051 c 0
 -115 1051 -133 1030 -137 1010 c 0
 -142 989 -132 968 -103 968 c 0
EndSplineSet
EndChar
StartChar: uni0E01
Encoding: 161 3585 129
Width: 602
Flags: W
HStem: 0 21G<83 187 410 511> 378 44<179 356> 544 54<373 415>
Fore
511 0 m 1
 410 0 l 1
 495 399 l 2
 515 495 451 544 373 544 c 0
 302 544 219 503 179 422 c 1
 366 422 l 1
 356 378 l 1
 333 378 307 378 307 378 c 2
 280 378 262 355 256 326 c 2
 187 0 l 1
 83 0 l 1
 150 315 l 2
 154 336 176 373 197 378 c 1
 114 378 l 1
 150 522 293 598 415 598 c 0
 525 598 617 536 597 404 c 1
 511 0 l 1
EndSplineSet
EndChar
StartChar: uni0E02
Encoding: 162 3586 130
Width: 585
Flags: W
HStem: -8 46<357 375> 298 35<181 199> 432 35<211 222> 542 56<262 297>
Fore
520 118 m 2
 505 46 445 -8 357 -8 c 0
 278 -8 234 48 249 118 c 2
 324 472 l 2
 334 516 301 542 262 542 c 0
 219 542 170 512 155 441 c 0
 154 439 154 438 154 436 c 1
 175 461 199 467 220 467 c 0
 274 467 298 430 289 384 c 0
 279 339 240 298 184 298 c 0
 100 298 91 386 112 458 c 0
 136 535 202 598 297 598 c 0
 397 598 439 527 420 436 c 2
 342 69 l 2
 338 54 349 38 367 38 c 0
 384 38 403 54 406 68 c 2
 503 524 l 1
 569 587 l 2
 589 598 625 613 613 556 c 2
 520 118 l 2
192 333 m 0
 225 333 246 358 251 382 c 0
 257 407 246 432 213 432 c 0
 180 432 159 407 153 382 c 0
 148 358 159 333 192 333 c 0
EndSplineSet
EndChar
StartChar: uni0E03
Encoding: 163 3587 131
Width: 637
Flags: W
HStem: -8 46<408 420> 255 37<183 195> 390 37<210 224>
Fore
570 118 m 2
 555 46 496 -8 408 -8 c 0
 328 -8 284 51 298 118 c 2
 376 485 l 2
 380 505 378 521 362 525 c 1
 284 459 l 1
 226 536 l 1
 190 515 155 476 149 395 c 1
 170 421 203 427 222 427 c 0
 281 426 301 383 292 340 c 0
 283 297 244 255 185 255 c 0
 94 255 91 346 106 427 c 0
 116 478 154 559 244 599 c 1
 298 525 l 1
 384 599 l 1
 478 588 489 521 475 455 c 2
 393 69 l 2
 389 54 397 38 418 38 c 0
 438 38 453 54 456 68 c 2
 553 524 l 1
 620 587 l 2
 640 598 675 613 663 556 c 2
 570 118 l 2
193 292 m 0
 226 292 247 316 252 341 c 0
 258 366 247 390 214 390 c 0
 181 390 160 366 154 341 c 0
 149 316 160 292 193 292 c 0
EndSplineSet
EndChar
StartChar: uni0E04
Encoding: 164 3588 132
Width: 589
Flags: W
HStem: 0 21G<89 192 399 501> 249 44<311 330> 398 46<343 354> 547 52<350 386>
Fore
501 0 m 1
 399 0 l 1
 482 389 l 2
 502 484 466 547 365 547 c 0
 257 547 176 482 159 401 c 0
 151 361 172 333 182 319 c 1
 185 319 l 1
 217 387 261 444 352 444 c 0
 420 444 444 394 433 345 c 0
 423 297 380 249 313 249 c 0
 288 249 267 258 257 267 c 1
 249 257 242 233 236 206 c 2
 192 0 l 1
 89 0 l 1
 139 233 l 2
 147 275 90 304 110 401 c 0
 137 525 250 599 374 599 c 0
 513 599 618 550 587 404 c 2
 501 0 l 1
322 293 m 0
 357 293 380 319 386 346 c 0
 391 372 380 398 345 398 c 0
 309 398 286 372 281 346 c 0
 275 319 286 293 322 293 c 0
EndSplineSet
EndChar
StartChar: uni0E05
Encoding: 165 3589 133
Width: 591
Flags: W
HStem: 0 21G<89 192 398 499> 218 45<305 319> 367 46<328 348>
Fore
499 0 m 1
 398 0 l 1
 480 387 l 2
 492 444 508 504 460 535 c 1
 355 459 l 1
 283 535 l 1
 247 527 175 475 159 401 c 0
 151 362 165 327 186 295 c 1
 189 295 l 1
 217 346 258 413 346 413 c 0
 414 413 437 363 427 314 c 0
 417 266 373 218 306 218 c 0
 281 218 262 223 250 237 c 1
 242 226 234 197 232 186 c 2
 192 0 l 1
 89 0 l 1
 138 229 l 2
 145 264 90 304 110 401 c 0
 137 525 234 576 301 598 c 1
 368 521 l 1
 468 596 l 1
 525 581 615 548 581 387 c 2
 499 0 l 1
317 263 m 0
 352 263 375 289 381 315 c 0
 386 341 374 367 339 367 c 0
 304 367 280 341 275 315 c 0
 269 289 282 263 317 263 c 0
EndSplineSet
EndChar
StartChar: uni0E06
Encoding: 166 3590 134
Width: 757
Flags: W
HStem: -8 66<271 281> 255 37<183 195> 390 37<210 224>
Fore
662 0 m 9
 576 0 l 17
 539 120 447 152 414 163 c 1
 397 77 374 -8 281 -8 c 0
 205 -8 181 47 193 104 c 0
 205 160 252 217 320 223 c 1
 376 485 l 2
 380 505 378 521 362 525 c 1
 284 459 l 1
 226 536 l 1
 190 515 155 476 149 395 c 1
 170 421 203 427 222 427 c 0
 281 426 301 383 292 340 c 0
 283 297 244 255 185 255 c 0
 94 255 91 346 106 427 c 0
 116 478 154 559 244 599 c 1
 298 525 l 1
 384 599 l 1
 478 588 489 521 475 455 c 2
 423 214 l 1
 453 206 535 183 587 120 c 1
 671 519 l 1
 737 582 l 2
 754 594 794 608 779 551 c 2
 779 551 674 57 662 0 c 9
290 80 m 2
 310 174 l 0
 274 170 249 136 243 106 c 0
 237 81 245 58 273 58 c 0
 281 58 287 66 290 80 c 2
193 292 m 0
 226 292 247 316 252 341 c 0
 258 366 247 390 214 390 c 0
 181 390 160 366 154 341 c 0
 149 316 160 292 193 292 c 0
EndSplineSet
EndChar
StartChar: uni0E07
Encoding: 167 3591 135
Width: 479
Flags: W
HStem: 0 21G<290 390> 399 46<337 355> 549 49<370 391>
Fore
390 0 m 1
 290 0 l 1
 98 296 l 1
 112 353 l 1
 311 117 l 1
 372 403 l 1
 361 400 351 399 342 399 c 0
 276 399 252 449 263 499 c 0
 273 548 318 598 391 598 c 0
 526 598 495 494 492 480 c 2
 390 0 l 1
348 445 m 0
 383 445 406 471 412 497 c 0
 417 523 405 549 370 549 c 0
 335 549 311 523 306 497 c 0
 300 471 313 445 348 445 c 0
EndSplineSet
EndChar
StartChar: uni0E08
Encoding: 168 3592 136
Width: 565
Flags: W
HStem: -5 50<337 352> 237 44<225 239> 386 46<259 276> 540 57<350 382>
Fore
501 121 m 2
 485 49 424 -5 337 -5 c 0
 265 -5 214 54 229 121 c 2
 254 240 l 1
 246 238 237 237 228 237 c 0
 165 237 136 286 153 343 c 0
 168 393 215 432 276 432 c 0
 368 432 387 381 376 327 c 2
 322 75 l 2
 319 60 328 45 348 45 c 0
 369 45 383 60 386 74 c 2
 458 415 l 2
 476 498 421 540 350 540 c 0
 284 540 202 503 152 430 c 1
 119 450 l 1
 189 553 292 597 382 597 c 0
 495 597 587 527 563 413 c 2
 501 121 l 2
237 281 m 0
 272 281 295 307 301 334 c 0
 307 360 294 386 259 386 c 0
 224 386 201 360 195 334 c 0
 189 307 202 281 237 281 c 0
EndSplineSet
EndChar
StartChar: uni0E09
Encoding: 169 3593 137
Width: 615
Flags: W
HStem: -8 43<463 477> 195 45<177 190> 344 46<210 227> 542 57<381 414>
Fore
570 226 m 2
 563 194 546 184 546 184 c 1
 545 181 l 1
 584 169 598 130 589 90 c 0
 579 41 535 -8 465 -8 c 0
 406 -8 378 38 388 84 c 0
 390 96 396 109 404 120 c 1
 315 92 256 20 247 0 c 1
 164 0 l 1
 206 198 l 1
 199 197 188 195 179 195 c 0
 116 195 91 247 105 300 c 0
 119 350 166 390 227 390 c 0
 320 390 338 339 327 286 c 2
 327 286 308 198 299 154 c 0
 294 131 284 109 284 109 c 1
 308 131 366 175 458 183 c 1
 508 421 l 2
 525 499 462 542 381 542 c 0
 308 542 220 506 165 430 c 1
 131 450 l 1
 197 552 313 599 414 599 c 0
 534 599 635 532 610 412 c 2
 570 226 l 2
188 240 m 0
 223 240 247 266 252 292 c 0
 258 318 245 344 210 344 c 0
 175 344 152 318 146 292 c 0
 141 266 153 240 188 240 c 0
475 35 m 0
 511 35 534 61 540 88 c 0
 545 114 534 140 498 140 c 0
 463 140 440 114 435 88 c 0
 429 61 440 35 475 35 c 0
EndSplineSet
EndChar
StartChar: uni0E0A
Encoding: 170 3594 138
Width: 583
Flags: W
HStem: 0 45<166 371> 298 35<181 199> 432 35<211 222> 541 57<261 297>
Fore
679 594 m 17
 639 476 565 435 498 418 c 1
 639 412 573 0 369 0 c 2
 157 0 l 1
 167 45 l 1
 234 45 l 1
 324 470 l 2
 333 514 300 541 261 541 c 0
 219 541 170 512 155 441 c 0
 154 439 154 438 154 436 c 1
 175 461 199 467 220 467 c 0
 274 467 298 430 289 384 c 0
 279 339 240 298 184 298 c 0
 100 298 91 386 112 458 c 0
 136 535 202 598 297 598 c 0
 397 598 438 524 422 445 c 1
 497 449 551 531 565 594 c 1
 679 594 l 17
448 386 m 0
 438 392 420 393 410 393 c 1
 336 45 l 1
 365 45 l 2
 445 45 507 338 448 386 c 0
192 333 m 0
 225 333 246 358 251 382 c 0
 257 407 246 432 213 432 c 0
 180 432 159 407 153 382 c 0
 148 358 159 333 192 333 c 0
EndSplineSet
EndChar
StartChar: uni0E0B
Encoding: 171 3595 139
Width: 649
Flags: W
HStem: 0 45<219 423> 255 37<183 195> 390 37<208 224>
Fore
731 594 m 17
 691 476 617 435 550 418 c 1
 692 412 625 0 421 0 c 2
 210 0 l 1
 220 45 l 1
 283 45 l 1
 376 485 l 2
 380 505 378 521 362 525 c 1
 284 459 l 1
 226 536 l 1
 190 515 155 476 149 395 c 1
 170 421 203 427 222 427 c 0
 281 426 301 383 292 340 c 0
 283 297 244 255 185 255 c 0
 94 255 89 346 106 427 c 0
 117 478 154 559 244 599 c 1
 298 525 l 1
 384 599 l 1
 478 588 489 521 475 455 c 2
 474 450 l 1
 554 453 603 531 618 594 c 1
 731 594 l 17
500 386 m 0
 490 392 473 393 462 393 c 1
 388 45 l 1
 417 45 l 2
 497 45 559 338 500 386 c 0
193 292 m 0
 226 292 247 316 252 341 c 0
 258 366 247 390 214 390 c 0
 181 390 160 366 154 341 c 0
 149 316 160 292 193 292 c 0
EndSplineSet
EndChar
StartChar: uni0E0C
Encoding: 172 3596 140
Width: 800
Flags: W
HStem: -6 43<191 200> 141 42<220 227> 378 44<179 356> 543 56<372 414>
Fore
427 71 m 2
 443 144 l 0
 415 142 394 116 388 91 c 0
 386 78 386 67 393 58 c 0
 400 49 423 51 427 71 c 2
225 183 m 1
 228 183 232 183 235 183 c 0
 296 183 318 135 307 87 c 0
 298 40 258 -6 193 -6 c 0
 99 -6 99 77 109 121 c 2
 150 315 l 2
 154 336 176 373 197 378 c 1
 114 378 l 1
 150 522 292 599 414 599 c 0
 524 599 618 535 596 402 c 1
 550 184 l 1
 568 180 622 167 647 132 c 1
 731 519 l 1
 795 582 l 2
 816 593 851 608 839 551 c 2
 839 551 734 57 722 0 c 1
 639 0 l 1
 651 78 583 129 540 135 c 1
 522 52 502 -8 416 -8 c 0
 350 -8 330 40 340 89 c 0
 350 138 391 187 450 190 c 1
 496 404 l 2
 515 496 450 543 372 543 c 0
 301 543 219 504 179 422 c 1
 366 422 l 1
 356 378 l 1
 333 378 306 378 306 378 c 2
 278 378 261 355 255 326 c 2
 255 326 235 229 225 183 c 1
198 37 m 0
 234 37 256 63 262 89 c 0
 267 115 256 141 220 141 c 0
 185 141 162 115 157 89 c 0
 151 63 163 37 198 37 c 0
EndSplineSet
EndChar
StartChar: uni0E0D
Encoding: 173 3597 141
Width: 800
Flags: W
HStem: -62 31<456 469> -8 49<539 553> 143 44<241 257> 378 44<178 197 178 356> 545 53<358 398>
Fore
732 117 m 2
 720 61 637 -8 540 -8 c 0
 447 -8 390 54 405 124 c 2
 464 401 l 2
 484 496 428 545 358 545 c 0
 294 545 219 505 178 422 c 1
 366 422 l 1
 356 378 l 1
 333 378 306 378 306 378 c 2
 278 378 261 355 255 326 c 2
 225 183 l 1
 237 186 248 187 257 187 c 0
 318 187 340 140 330 93 c 0
 320 46 279 -1 211 -5 c 0
 104 -9 100 80 109 124 c 2
 150 315 l 2
 154 336 176 373 197 378 c 1
 114 378 l 1
 150 522 284 598 398 598 c 0
 502 598 589 534 567 401 c 1
 503 101 l 2
 496 68 516 41 551 41 c 0
 588 41 618 66 625 100 c 1
 715 519 l 1
 780 582 l 2
 800 593 836 608 824 551 c 2
 732 117 l 2
684 -109 m 2
 647 -283 318 -303 358 -112 c 0
 364 -83 397 -31 463 -31 c 0
 517 -31 533 -69 524 -111 c 0
 517 -147 477 -183 437 -177 c 1
 437 -181 l 1
 483 -220 572 -183 587 -114 c 2
 602 -43 l 1
 698 -43 l 1
 684 -109 l 2
495 -106 m 0
 502 -77 482 -62 459 -62 c 0
 437 -62 411 -77 404 -106 c 0
 398 -136 418 -152 440 -152 c 0
 463 -152 489 -136 495 -106 c 0
220 38 m 0
 256 38 279 64 284 90 c 0
 290 117 278 143 242 143 c 0
 206 143 184 117 178 90 c 0
 173 64 184 38 220 38 c 0
EndSplineSet
Substitution: 0 65534 'nds0' uni0E0D.descless
Substitution: 0 65534 'ndsc' uni0E0D.descless
EndChar
StartChar: uni0E0E
Encoding: 174 3598 142
Width: 612
Flags: W
HStem: -241 114<395 395.118> -223 51<124 138> -90 52<168 189> -5 43<96 110> 378 44<193 209 193 370> 544 55<387 428>
AnchorPoint: "BelowBase" 467.909 -241.152 basechar 0
Fore
471 -241 m 1xbc
 387 -241 l 0xbc
 371 -183 325 -146 276 -118 c 1
 242 -190 177 -223 124 -223 c 0x7c
 73 -223 33 -191 46 -132 c 0
 57 -78 113 -38 187 -38 c 0
 210 -38 235 -42 261 -51 c 1
 291 -5 314 6 330 15 c 1
 374 -9 l 1
 347 -22 324 -41 306 -71 c 1
 335 -80 376 -104 395 -127 c 1
 395 -127 398 -101 403 -77 c 2
 507 413 l 2
 525 499 463 544 387 544 c 0
 315 544 231 504 193 422 c 1
 380 422 l 1
 370 378 l 1
 318 378 l 2
 290 378 271 346 265 318 c 2
 217 92 l 2
 203 29 153 -5 99 -5 c 0
 35 -5 13 43 24 92 c 0
 33 138 73 185 135 187 c 1
 160 304 l 2
 165 329 188 373 209 378 c 1
 128 378 l 1
 164 522 307 599 428 599 c 0
 537 599 628 537 609 407 c 1
 471 -241 l 1xbc
232 -100 m 1
 210 -93 189 -90 170 -90 c 0
 133 -90 104 -103 97 -135 c 0
 92 -158 111 -172 136 -172 c 0x7c
 173 -172 210 -146 232 -100 c 1
108 38 m 0
 143 38 166 64 171 90 c 0
 177 117 165 143 130 143 c 0
 94 143 72 117 66 90 c 0
 61 64 72 38 108 38 c 0
EndSplineSet
EndChar
StartChar: uni0E0F
Encoding: 175 3599 143
Width: 612
Flags: W
HStem: -240 51<17 34> -158 58<317 332> -99 48<48 68> -8 45<96 114> 378 44<193 209 193 370> 544 55<387 428>
AnchorPoint: "BelowBase" 467.909 -241.152 basechar 0
Fore
471 -240 m 1
 388 -240 l 0
 384 -188 356 -158 321 -158 c 0
 289 -158 251 -183 219 -240 c 1
 176 -240 l 1
 176 -207 160 -172 144 -154 c 1
 116 -214 64 -240 19 -240 c 0
 -31 -240 -72 -207 -60 -151 c 0
 -46 -85 8 -51 64 -51 c 0
 90 -51 117 -58 139 -74 c 1
 157 -45 191 -20 234 -5 c 1
 260 -43 l 1
 229 -51 191 -75 175 -104 c 1
 194 -115 209 -147 214 -169 c 1
 243 -126 289 -100 332 -100 c 0
 354 -100 375 -107 393 -123 c 1
 507 413 l 2
 525 499 463 544 387 544 c 0
 315 544 231 504 193 422 c 1
 380 422 l 1
 370 378 l 1
 318 378 l 2
 290 378 271 346 265 318 c 2
 217 92 l 2
 203 29 152 -8 98 -8 c 0
 34 -8 12 42 22 91 c 0
 32 138 72 185 134 187 c 1
 159 304 l 2
 164 329 188 373 209 378 c 1
 128 378 l 1
 164 522 307 599 428 599 c 0
 537 599 628 537 609 407 c 1
 471 -240 l 1
109 -120 m 1
 92 -105 73 -99 56 -99 c 0
 23 -99 -4 -122 -9 -147 c 0
 -15 -172 3 -189 28 -189 c 0
 54 -189 89 -169 109 -120 c 1
108 37 m 0
 143 37 165 63 171 89 c 0
 176 115 165 141 130 141 c 0
 94 141 71 115 66 89 c 0
 60 63 72 37 108 37 c 0
EndSplineSet
EndChar
StartChar: uni0E10
Encoding: 176 3600 144
Width: 508
Flags: W
HStem: -289 48<170 294> -243 42<31 43> -74 40<285 304> -5 50<292 305> 166 44<173 191> 315 43<200 218> 489 76<452 485>
Fore
561 558 m 0x3e
 529 505 491 489 452 489 c 0
 390 489 324 528 268 528 c 0
 237 528 210 516 188 478 c 1
 445 407 l 2
 458 402 505 395 492 335 c 2
 444 106 l 2
 428 34 378 -5 292 -5 c 0
 220 -5 174 38 189 106 c 2
 202 169 l 1
 192 167 184 166 175 166 c 0
 113 166 87 215 100 269 c 0
 116 319 159 358 216 358 c 0
 305 359 334 313 322 258 c 2
 283 75 l 2
 280 61 285 45 303 45 c 0
 322 45 332 61 335 74 c 2
 390 333 l 2
 395 358 388 367 377 370 c 2
 112 445 l 1
 137 493 199 601 316 598 c 0
 362 598 430 565 485 565 c 0
 507 565 527 570 542 585 c 0
 558 601 586 599 561 558 c 0x3e
373 -218 m 2
 366 -249 345 -289 294 -289 c 2
 111 -289 l 1xbe
 124 -226 l 2
 129 -203 136 -178 129 -166 c 1
 118 -210 82 -243 32 -243 c 0x7e
 -6 -243 -29 -223 -31 -183 c 0
 -34 -132 28 -63 102 -84 c 1
 106 -71 111 -58 122 -46 c 1
 169 -52 l 1
 153 -66 144 -88 141 -106 c 1
 198 -134 175 -217 170 -241 c 1
 262 -241 l 2xbe
 279 -241 285 -214 287 -197 c 1
 278 -200 l 2
 272 -203 263 -203 250 -201 c 0x7e
 203 -197 187 -158 195 -120 c 0
 205 -77 243 -34 300 -34 c 0
 369 -34 398 -68 392 -129 c 1
 373 -218 l 2
275 -166 m 0
 305 -166 324 -143 328 -120 c 0
 333 -97 324 -74 294 -74 c 0
 262 -74 241 -97 236 -120 c 0
 232 -143 243 -166 275 -166 c 0
95 -124 m 1
 69 -117 22 -124 13 -163 c 0
 9 -183 17 -201 41 -201 c 0x7e
 72 -201 97 -160 95 -124 c 1
185 210 m 0
 220 210 242 236 248 262 c 0
 253 289 242 315 207 315 c 0
 171 315 148 289 143 262 c 0
 137 236 149 210 185 210 c 0
EndSplineSet
KernsSLIFO: 180 31 1 0 183 31 1 0 182 31 1 0 181 31 1 0
Substitution: 0 65534 'nds0' uni0E10.descless
Substitution: 0 65534 'ndsc' uni0E10.descless
EndChar
StartChar: uni0E11
Encoding: 177 3601 145
Width: 780
Flags: W
HStem: 0 21G<275 358 584 687> 255 37<183 195> 390 37<210 224> 508 88<663 716>
Fore
687 0 m 1
 584 0 l 1
 685 473 l 2
 689 494 679 508 663 508 c 0
 649 508 631 497 616 470 c 2
 358 0 l 1
 275 0 l 1
 378 485 l 2
 382 505 378 521 362 525 c 1
 284 459 l 1
 226 536 l 1
 190 515 155 476 149 395 c 1
 170 421 203 427 222 427 c 0
 281 426 301 383 292 340 c 0
 283 297 244 255 185 255 c 0
 94 255 91 346 106 427 c 0
 116 478 154 559 244 599 c 1
 298 525 l 1
 384 599 l 1
 478 588 487 521 473 455 c 2
 434 273 l 2
 428 246 420 226 414 206 c 1
 418 204 l 1
 418 204 439 247 450 269 c 2
 572 490 l 2
 613 563 670 596 716 596 c 0
 768 596 805 554 789 482 c 2
 687 0 l 1
193 292 m 0
 226 292 247 316 252 341 c 0
 258 366 247 390 214 390 c 0
 181 390 160 366 154 341 c 0
 149 316 160 292 193 292 c 0
EndSplineSet
EndChar
StartChar: uni0E12
Encoding: 178 3602 146
Width: 798
Flags: W
HStem: 0 21G<89 192 627 710> 235 40<300 315> 379 43<328 347>
Fore
710 0 m 9
 627 0 l 17
 639 78 571 129 528 135 c 1
 510 52 490 -8 404 -8 c 0
 338 -8 318 40 328 89 c 0
 338 138 379 187 438 190 c 1
 483 401 l 2
 500 482 493 511 460 535 c 1
 355 459 l 1
 283 535 l 1
 245 524 176 476 160 402 c 0
 139 300 206 227 207 164 c 1
 248 214 311 235 300 235 c 0
 242 235 221 281 231 330 c 0
 234 344 260 422 345 422 c 0
 406 422 438 382 427 327 c 0
 422 307 412 286 395 263 c 0
 341 189 232 146 206 65 c 1
 192 0 l 1
 89 0 l 1
 112 109 l 2
 123 158 80 261 107 384 c 0
 139 535 247 581 301 598 c 1
 368 521 l 1
 470 598 l 1
 530 581 614 539 583 396 c 2
 538 184 l 1
 556 180 609 167 635 132 c 1
 718 519 l 1
 783 582 l 2
 803 593 839 608 827 551 c 2
 827 551 722 57 710 0 c 9
412 68 m 2
 429 146 l 0
 401 144 378 116 372 90 c 0
 369 77 371 64 378 55 c 0
 386 45 408 46 412 68 c 2
315 275 m 0
 350 275 374 301 380 327 c 0
 385 353 373 379 338 379 c 0
 303 379 279 353 274 327 c 0
 268 301 280 275 315 275 c 0
EndSplineSet
EndChar
StartChar: uni0E13
Encoding: 179 3603 147
Width: 800
Flags: W
HStem: -9 43<652 665> 143 44<241 257> 378 44<178 197 178 356> 545 53<358 398>
Fore
750 203 m 2
 748 194 737 175 730 169 c 1
 764 156 777 120 769 84 c 0
 759 38 718 -9 654 -9 c 0
 605 -9 577 17 577 61 c 0
 577 83 585 111 606 131 c 1
 534 101 490 23 479 0 c 1
 379 0 l 1
 464 401 l 2
 484 496 428 545 358 545 c 0
 294 545 219 505 178 422 c 1
 366 422 l 1
 356 378 l 1
 333 378 306 378 306 378 c 2
 278 378 261 355 255 326 c 2
 225 183 l 1
 237 186 248 187 257 187 c 0
 318 187 340 140 330 92 c 0
 320 45 279 -2 211 -6 c 0
 104 -11 100 80 109 124 c 2
 150 315 l 2
 154 336 176 373 197 378 c 1
 114 378 l 1
 150 522 284 598 398 598 c 0
 502 598 589 534 567 401 c 1
 509 126 l 1
 535 147 584 184 643 183 c 1
 716 522 l 1
 780 585 l 2
 801 596 837 611 825 554 c 2
 750 203 l 2
663 34 m 0
 696 34 718 58 724 83 c 0
 729 108 717 132 684 132 c 0
 651 132 629 108 624 83 c 0
 618 58 630 34 663 34 c 0
220 38 m 0
 256 38 279 64 284 90 c 0
 290 117 278 143 242 143 c 0
 206 143 184 117 178 90 c 0
 173 64 184 38 220 38 c 0
EndSplineSet
KernsSLIFO: 180 -15 1 0 183 -15 1 0 182 -15 1 0 181 -15 1 0
EndChar
StartChar: uni0E14
Encoding: 180 3604 148
Width: 608
Flags: W
HStem: 0 21G<101 203 418 519> 263 40<322 336> 407 43<356 368> 548 50<388 407>
Fore
519 0 m 1
 418 0 l 1
 506 412 l 2
 518 470 497 548 394 548 c 0
 273 548 193 487 174 399 c 0
 158 323 208 240 218 163 c 1
 259 212 332 263 322 263 c 0
 263 263 241 309 251 358 c 0
 254 372 282 450 366 450 c 0
 426 450 458 410 447 356 c 0
 442 335 432 313 415 290 c 0
 361 217 230 115 217 65 c 1
 203 0 l 1
 101 0 l 1
 121 94 l 2
 139 177 95 270 120 384 c 0
 160 574 328 598 405 598 c 0
 526 598 635 545 607 412 c 2
 519 0 l 1
336 303 m 0
 372 303 395 329 400 355 c 0
 406 381 395 407 359 407 c 0
 323 407 300 381 294 355 c 0
 289 329 300 303 336 303 c 0
EndSplineSet
EndChar
StartChar: uni0E15
Encoding: 181 3605 149
Width: 611
Flags: W
HStem: 0 21G<103 206 418 519> 235 40<314 328> 379 43<342 361>
Fore
519 0 m 1
 418 0 l 1
 503 401 l 2
 520 482 513 511 480 535 c 1
 368 459 l 1
 297 535 l 1
 258 524 190 476 174 402 c 0
 156 315 222 224 221 161 c 1
 263 210 325 235 314 235 c 0
 256 235 235 281 245 330 c 0
 248 344 274 422 359 422 c 0
 420 422 452 382 441 327 c 0
 436 307 426 286 409 263 c 0
 355 189 246 146 220 65 c 1
 206 0 l 1
 103 0 l 1
 123 94 l 2
 144 192 92 255 120 384 c 0
 152 535 261 581 314 598 c 1
 381 521 l 1
 489 598 l 1
 550 581 634 539 603 396 c 2
 519 0 l 1
328 275 m 0
 364 275 387 301 393 327 c 0
 398 353 387 379 351 379 c 0
 316 379 293 353 288 327 c 0
 282 301 293 275 328 275 c 0
EndSplineSet
EndChar
StartChar: uni0E16
Encoding: 182 3606 150
Width: 602
Flags: W
HStem: 0 21G<410 511> 141 45<236 251> 378 44<179 197 179 356> 543 56<372 414>
Fore
511 0 m 1
 410 0 l 1
 496 404 l 2
 515 496 450 543 372 543 c 0
 301 543 219 504 179 422 c 1
 366 422 l 1
 356 378 l 1
 333 378 306 378 306 378 c 2
 278 378 261 355 255 326 c 2
 255 326 235 229 225 183 c 1
 234 185 243 186 251 186 c 0
 310 186 331 137 321 89 c 0
 311 43 273 -2 208 -6 c 0
 100 -12 99 77 109 121 c 2
 150 315 l 2
 154 336 176 373 197 378 c 1
 114 378 l 1
 150 522 292 599 414 599 c 0
 524 599 618 535 596 402 c 1
 511 0 l 1
214 37 m 0
 249 37 271 63 277 89 c 0
 282 115 271 141 236 141 c 0
 200 141 177 115 172 89 c 0
 166 63 178 37 214 37 c 0
EndSplineSet
EndChar
StartChar: uni0E17
Encoding: 183 3607 151
Width: 655
Flags: W
HStem: 0 21G<154 237 462 565> 393 48<206 219> 545 51<239 258>
Fore
565 0 m 1
 462 0 l 1
 563 473 l 2
 567 494 557 508 541 508 c 0
 528 508 510 497 495 470 c 2
 237 0 l 1
 154 0 l 1
 239 399 l 1
 227 395 219 393 208 393 c 0
 141 393 115 444 126 494 c 0
 137 545 184 596 258 596 c 0
 391 596 360 492 357 479 c 2
 313 273 l 2
 307 246 298 226 293 206 c 1
 296 204 l 1
 296 204 317 247 329 269 c 2
 451 490 l 2
 492 565 549 598 594 598 c 0
 645 598 683 555 667 482 c 2
 565 0 l 1
217 441 m 0
 252 441 275 467 281 493 c 0
 286 519 274 545 239 545 c 0
 204 545 180 519 175 493 c 0
 169 467 182 441 217 441 c 0
EndSplineSet
EndChar
StartChar: uni0E18
Encoding: 184 3608 152
Width: 508
Flags: W
HStem: 0 45<49 306> 489 76<450 483>
Fore
560 558 m 0
 527 505 490 489 450 489 c 0
 389 489 322 528 266 528 c 0
 235 528 208 516 186 478 c 1
 443 407 l 2
 457 402 503 395 490 335 c 2
 445 120 l 2
 427 38 378 0 306 0 c 2
 40 0 l 1
 50 45 l 1
 94 45 l 1
 161 364 l 1
 264 364 l 1
 197 45 l 1
 260 45 l 2
 305 45 331 61 339 101 c 2
 389 333 l 2
 394 358 387 367 375 370 c 2
 110 445 l 1
 136 493 197 601 314 598 c 0
 360 598 428 565 483 565 c 0
 505 565 525 570 540 585 c 0
 557 601 585 599 560 558 c 0
EndSplineSet
EndChar
StartChar: uni0E19
Encoding: 185 3609 153
Width: 663
Flags: W
HStem: -8 46<501 514> -8 194<496 502> 393 49<203 220> 547 51<237 256>
Fore
604 214 m 2x70
 603 206 591 189 583 183 c 1
 620 168 632 130 624 92 c 0
 613 42 569 -8 502 -8 c 0xb0
 437 -8 414 40 423 86 c 0
 427 102 434 118 446 132 c 1
 333 124 253 34 235 0 c 1
 154 0 l 1
 238 396 l 1
 227 393 218 393 207 393 c 0
 204 393 l 0
 139 393 115 443 126 494 c 0
 137 546 183 598 256 598 c 0
 391 598 360 493 357 481 c 0
 357 479 311 264 286 147 c 0
 284 135 279 123 276 111 c 1
 325 152 383 184 496 186 c 1
 568 525 l 1
 635 590 l 2
 651 599 690 616 678 558 c 2
 604 214 l 2x70
512 38 m 0
 545 38 567 63 573 88 c 0
 578 112 566 137 533 137 c 0
 500 137 478 112 473 88 c 0
 467 63 479 38 512 38 c 0
215 442 m 0
 250 442 273 468 279 494 c 0
 285 521 272 547 237 547 c 0
 202 547 179 521 173 494 c 0
 167 468 180 442 215 442 c 0
EndSplineSet
KernsSLIFO: 180 -46 1 0 183 -46 1 0 182 -46 1 0 181 -46 1 0
EndChar
StartChar: uni0E1A
Encoding: 186 3610 154
Width: 649
Flags: W
HStem: 0 45<107 441> 393 49<206 217> 547 51<237 258>
Fore
584 120 m 2
 577 74 531 0 441 0 c 2
 98 0 l 1
 108 45 l 1
 164 45 l 1
 238 396 l 1
 227 395 216 393 208 393 c 0
 140 393 115 443 126 494 c 0
 137 546 184 598 258 598 c 0
 391 598 360 492 357 479 c 0
 357 478 280 117 265 45 c 1
 409 45 l 2
 437 45 471 63 478 106 c 2
 567 524 l 1
 633 587 l 2
 654 599 691 613 676 556 c 2
 584 120 l 2
215 442 m 0
 250 442 273 468 279 494 c 0
 285 521 272 547 237 547 c 0
 202 547 179 521 173 494 c 0
 167 468 180 442 215 442 c 0
EndSplineSet
EndChar
StartChar: uni0E1B
Encoding: 187 3611 155
Width: 665
Flags: W
HStem: 0 45<107 456> 393 49<206 217> 547 51<237 258>
AnchorPoint: "AboveBase" 540.899 629.76 basechar 0
Fore
599 120 m 2
 592 74 547 0 456 0 c 2
 98 0 l 1
 108 45 l 1
 164 45 l 1
 238 396 l 1
 227 395 216 393 208 393 c 0
 140 393 115 443 126 494 c 0
 137 546 184 598 258 598 c 0
 391 598 360 492 357 479 c 0
 357 478 280 117 265 45 c 1
 425 45 l 2
 452 45 486 63 493 106 c 2
 662 903 l 1
 729 966 l 2
 750 978 787 992 772 935 c 2
 599 120 l 2
215 442 m 0
 250 442 273 468 279 494 c 0
 285 521 272 547 237 547 c 0
 202 547 179 521 173 494 c 0
 167 468 180 442 215 442 c 0
EndSplineSet
EndChar
StartChar: uni0E1C
Encoding: 188 3612 156
Width: 649
Flags: W
HStem: 0 132<489 489.034> 397 48<290 304> 550 48<319 336>
Fore
558 0 m 1
 455 0 l 1
 462 34 l 2
 466 52 458 60 458 66 c 1
 385 287 l 1
 208 66 l 1
 205 60 195 54 191 34 c 2
 184 0 l 1
 80 0 l 1
 182 478 l 2
 195 539 235 598 334 598 c 0
 403 598 427 547 416 496 c 0
 406 446 361 397 292 397 c 0
 283 397 274 397 266 399 c 1
 221 187 l 2
 216 163 202 129 202 129 c 1
 202 129 231 169 242 183 c 0
 380 350 405 382 405 382 c 1
 405 382 417 350 476 187 c 0
 482 172 489 132 489 132 c 1
 489 132 490 166 495 190 c 2
 567 522 l 1
 632 585 l 2
 654 598 691 611 676 554 c 2
 558 0 l 1
302 445 m 0
 337 445 360 471 366 498 c 0
 371 524 359 550 324 550 c 0
 289 550 265 524 260 498 c 0
 254 471 267 445 302 445 c 0
EndSplineSet
EndChar
StartChar: uni0E1D
Encoding: 189 3613 157
Width: 662
Flags: W
HStem: 0 132<504 504.034> 397 48<290 304> 550 48<319 336>
AnchorPoint: "AboveBase" 537.827 629.76 basechar 0
Fore
573 0 m 1
 470 0 l 1
 477 34 l 2
 481 52 474 60 473 66 c 2
 395 295 l 1
 208 66 l 2
 205 60 195 54 191 34 c 2
 184 0 l 1
 80 0 l 1
 182 478 l 2
 195 539 235 598 334 598 c 0
 403 598 427 547 416 496 c 0
 406 446 361 397 292 397 c 0
 283 397 274 397 266 399 c 1
 221 187 l 2
 216 163 202 129 202 129 c 1
 202 129 231 169 242 183 c 2
 415 390 l 1
 492 187 l 2
 498 172 504 132 504 132 c 1
 504 132 505 166 510 190 c 2
 660 894 l 1
 727 957 l 2
 748 969 785 983 770 926 c 2
 573 0 l 1
302 445 m 0
 337 445 360 471 366 498 c 0
 371 524 359 550 324 550 c 0
 289 550 265 524 260 498 c 0
 254 471 267 445 302 445 c 0
EndSplineSet
EndChar
StartChar: uni0E1E
Encoding: 190 3614 158
Width: 723
Flags: W
HStem: 0 21G<155 250 535 631> 392 49<207 221> 545 49<239 258>
Fore
631 0 m 1
 535 0 l 1
 489 450 l 1
 250 0 l 1
 155 0 l 1
 239 395 l 1
 228 393 217 392 209 392 c 0
 141 392 116 442 127 492 c 0
 137 543 184 594 258 594 c 0
 392 594 362 492 359 479 c 0
 359 478 311 253 311 253 c 2
 305 226 281 160 281 160 c 1
 287 160 l 1
 287 160 310 217 326 249 c 2
 512 588 l 1
 524 588 l 1
 566 249 l 2
 568 217 567 160 567 160 c 1
 573 160 l 1
 573 160 578 226 584 253 c 2
 642 528 l 1
 710 591 l 2
 730 604 766 619 750 561 c 2
 631 0 l 1
217 441 m 0
 252 441 275 467 281 493 c 0
 286 519 274 545 239 545 c 0
 204 545 180 519 175 493 c 0
 169 467 182 441 217 441 c 0
EndSplineSet
EndChar
StartChar: uni0E1F
Encoding: 191 3615 159
Width: 723
Flags: W
HStem: 0 21G<155 250 535 631> 392 49<207 221> 545 49<239 258>
AnchorPoint: "AboveBase" 599.268 629.76 basechar 0
Fore
631 0 m 1
 535 0 l 1
 489 450 l 1
 250 0 l 1
 155 0 l 1
 239 395 l 1
 228 393 217 392 209 392 c 0
 141 392 116 442 127 492 c 0
 137 543 184 594 258 594 c 0
 392 594 362 492 359 479 c 2
 311 253 l 2
 305 226 281 160 281 160 c 1
 287 160 l 1
 287 160 310 217 326 249 c 2
 512 588 l 1
 524 588 l 1
 566 249 l 2
 568 217 567 160 567 160 c 1
 573 160 l 1
 573 160 578 226 584 253 c 2
 720 894 l 1
 787 957 l 2
 808 969 843 985 828 926 c 2
 631 0 l 1
217 441 m 0
 252 441 275 467 281 493 c 0
 286 519 274 545 239 545 c 0
 204 545 180 519 175 493 c 0
 169 467 182 441 217 441 c 0
EndSplineSet
EndChar
StartChar: uni0E20
Encoding: 192 3616 160
Width: 617
Flags: W
HStem: -8 45<102 116> 378 44<199 215 199 376> 544 55<393 434>
Fore
528 0 m 1
 425 0 l 1
 513 413 l 2
 531 499 469 544 393 544 c 0
 321 544 237 504 199 422 c 1
 386 422 l 1
 376 378 l 1
 324 378 l 2
 297 378 277 346 271 318 c 2
 223 92 l 2
 209 29 158 -8 104 -8 c 0
 40 -8 18 42 28 91 c 0
 38 138 78 185 140 187 c 1
 165 304 l 2
 170 329 194 373 215 378 c 1
 134 378 l 1
 170 522 313 599 434 599 c 0
 543 599 634 537 615 407 c 1
 528 0 l 1
114 37 m 0
 150 37 172 63 178 89 c 0
 183 115 172 141 136 141 c 0
 100 141 77 115 72 89 c 0
 66 63 78 37 114 37 c 0
EndSplineSet
EndChar
StartChar: uni0E21
Encoding: 193 3617 161
Width: 652
Flags: W
HStem: 0 21G<470 564> 392 49<203 223> 545 49<237 257>
Fore
564 0 m 25
 470 0 l 17
 446 80 403 141 293 177 c 1
 284 138 279 104 270 78 c 0
 249 22 218 -8 158 -8 c 0
 78 -8 53 49 66 108 c 0
 78 167 129 228 204 233 c 1
 238 395 l 1
 227 393 215 392 207 392 c 0
 140 392 115 442 126 493 c 0
 136 543 183 594 257 594 c 0
 390 594 360 492 357 479 c 0
 357 478 313 275 303 224 c 1
 353 215 439 175 486 114 c 1
 573 524 l 1
 641 588 l 2
 655 599 698 616 682 556 c 2
 564 0 l 25
170 75 m 2
 194 187 l 0
 158 186 121 149 113 112 c 0
 109 92 113 72 130 58 c 0
 140 52 165 52 170 75 c 2
215 441 m 0
 250 441 273 467 279 493 c 0
 284 519 272 545 237 545 c 0
 202 545 178 519 173 493 c 0
 167 467 180 441 215 441 c 0
EndSplineSet
EndChar
StartChar: uni0E22
Encoding: 194 3618 162
Width: 603
Flags: W
HStem: -8 46<288 313> 283 44<295 338> 398 47<290 313> 550 48<322 336>
Fore
548 174 m 2
 525 65 431 -8 290 -8 c 0
 159 -8 84 49 109 163 c 2
 114 187 l 2
 129 257 175 289 206 306 c 1
 185 318 148 349 164 424 c 2
 170 452 l 2
 185 521 225 598 334 598 c 0
 403 598 427 547 416 496 c 0
 406 447 363 398 297 398 c 0
 285 398 269 399 261 407 c 1
 250 358 267 327 308 327 c 2
 348 327 l 1
 338 283 l 1
 298 283 l 2
 263 283 232 258 220 203 c 2
 203 124 l 2
 191 66 241 38 301 38 c 0
 369 38 425 71 437 126 c 2
 437 126 516 499 522 525 c 1
 586 590 l 2
 603 602 646 616 629 556 c 2
 548 174 l 2
302 445 m 0
 337 445 360 471 366 498 c 0
 371 524 359 550 324 550 c 0
 289 550 265 524 260 498 c 0
 254 471 267 445 302 445 c 0
EndSplineSet
EndChar
StartChar: uni0E23
Encoding: 195 3619 163
Width: 448
Flags: W
HStem: -3 49<227 238> 151 49<253 270> 530 68<272 310>
Fore
532 559 m 0
 483 468 395 499 377 505 c 0
 333 521 299 530 272 530 c 0
 234 530 208 513 185 478 c 1
 388 422 l 2
 421 413 440 393 430 350 c 2
 380 114 l 2
 377 100 366 -3 229 -3 c 0
 156 -3 133 47 144 97 c 0
 154 148 202 200 268 200 c 0
 269 200 l 0
 278 200 288 198 296 195 c 1
 329 350 l 2
 333 369 333 382 314 387 c 2
 110 445 l 1
 138 499 201 598 310 598 c 0
 364 598 427 566 470 566 c 0
 484 566 497 570 505 579 c 0
 527 604 551 599 532 559 c 0
236 46 m 0
 271 46 293 72 299 98 c 0
 305 125 293 151 258 151 c 0
 222 151 200 125 194 98 c 0
 188 72 200 46 236 46 c 0
EndSplineSet
KernsSLIFO: 180 31 1 0 183 31 1 0 182 31 1 0 181 31 1 0
EndChar
StartChar: uni0E24
Encoding: 196 3620 164
Width: 599
Flags: W
HStem: 141 45<231 248> 378 44<176 194 176 353> 543 56<368 411>
Fore
593 402 m 0
 471 -169 l 1
 403 -233 l 2
 383 -246 351 -260 363 -203 c 2
 492 404 l 2
 511 496 446 543 368 543 c 0
 298 543 216 504 176 422 c 1
 363 422 l 1
 353 378 l 1
 330 378 303 378 303 378 c 2
 275 378 258 355 252 326 c 2
 252 326 232 229 222 183 c 1
 231 185 240 186 248 186 c 0
 306 186 328 137 318 89 c 0
 308 43 270 -2 205 -6 c 0
 97 -12 96 77 106 121 c 2
 147 315 l 2
 151 336 173 373 194 378 c 1
 111 378 l 1
 147 522 289 599 411 599 c 0
 521 599 615 535 593 402 c 0
209 37 m 0
 244 37 267 63 273 89 c 0
 278 115 266 141 231 141 c 0
 196 141 172 115 167 89 c 0
 161 63 174 37 209 37 c 0
EndSplineSet
EndChar
StartChar: uni0E25
Encoding: 197 3621 165
Width: 579
Flags: W
HStem: 0 21G<387 488> 146 45<229 247> 376 54<346 368> 540 58<366 394>
Fore
488 0 m 1
 387 0 l 1
 447 283 l 2
 457 329 418 376 358 376 c 0
 294 376 245 329 234 276 c 2
 215 187 l 1
 226 189 237 191 247 191 c 0
 308 191 330 143 320 95 c 0
 310 47 268 -1 200 -5 c 0
 102 -8 88 74 98 120 c 2
 129 266 l 2
 146 350 237 430 348 430 c 0
 410 430 449 410 470 379 c 1
 473 393 479 422 479 422 c 2
 495 498 440 540 366 540 c 0
 299 540 216 505 159 430 c 1
 127 450 l 1
 204 554 306 598 394 598 c 0
 509 598 599 523 576 413 c 2
 488 0 l 1
207 41 m 0
 243 41 265 67 271 94 c 0
 277 120 265 146 229 146 c 0
 193 146 171 120 165 94 c 0
 159 67 171 41 207 41 c 0
EndSplineSet
EndChar
StartChar: uni0E26
Encoding: 198 3622 166
Width: 612
Flags: W
HStem: -8 45<96 116> 378 44<193 209 193 370> 544 55<387 428>
Fore
609 407 m 0
 485 -169 l 1
 417 -233 l 2
 397 -246 364 -260 376 -203 c 2
 507 413 l 2
 525 499 463 544 387 544 c 0
 315 544 231 504 193 422 c 1
 380 422 l 1
 370 378 l 1
 318 378 l 2
 290 378 271 346 265 318 c 2
 215 83 l 2
 201 20 152 -8 98 -8 c 0
 34 -8 12 42 22 91 c 0
 32 138 72 185 134 187 c 1
 159 304 l 2
 164 329 188 373 209 378 c 1
 128 378 l 1
 164 522 307 599 428 599 c 0
 537 599 628 537 609 407 c 0
108 37 m 0
 143 37 165 63 171 89 c 0
 176 115 165 141 130 141 c 0
 94 141 71 115 66 89 c 0
 60 63 72 37 108 37 c 0
EndSplineSet
EndChar
StartChar: uni0E27
Encoding: 199 3623 167
Width: 502
Flags: W
HStem: -5 45<275 295> 144 46<309 318> 542 55<311 338>
Fore
441 131 m 2
 423 46 378 -5 275 -5 c 0
 223 -5 191 37 200 89 c 0
 210 143 255 189 316 190 c 0
 332 190 341 189 350 186 c 1
 404 441 l 2
 417 505 372 542 311 542 c 0
 254 542 184 509 138 436 c 1
 102 458 l 1
 160 554 255 597 338 597 c 0
 441 597 526 532 502 421 c 2
 441 131 l 2
290 40 m 0
 325 40 348 66 354 92 c 0
 359 118 347 144 312 144 c 0
 277 144 253 118 248 92 c 0
 242 66 255 40 290 40 c 0
EndSplineSet
EndChar
StartChar: uni0E28
Encoding: 200 3624 168
Width: 589
Flags: W
HStem: 0 21G<89 192 399 501> 249 44<308 316> 398 46<328 349> 545 54<349 382>
Fore
423 401 m 1
 439 409 472 436 486 452 c 1
 478 510 437 545 365 545 c 0
 257 545 176 482 159 401 c 0
 151 361 172 333 182 319 c 1
 185 319 l 1
 217 390 258 444 349 444 c 0
 389 444 410 427 423 401 c 1
481 386 m 17
 462 375 439 361 425 356 c 1
 421 307 379 249 310 249 c 0
 285 249 267 257 257 266 c 1
 248 255 242 233 236 206 c 2
 192 0 l 1
 89 0 l 1
 139 233 l 2
 147 275 90 304 110 401 c 0
 137 525 250 599 374 599 c 0
 450 599 521 581 559 539 c 1
 571 554 595 601 598 627 c 1
 700 627 l 1
 677 561 621 498 587 468 c 1
 592 450 592 427 585 396 c 2
 501 0 l 1
 399 0 l 1
 481 386 l 17
314 293 m 0
 350 293 373 319 379 346 c 0
 384 372 373 398 337 398 c 0
 301 398 278 372 273 346 c 0
 267 319 278 293 314 293 c 0
EndSplineSet
EndChar
StartChar: uni0E29
Encoding: 201 3625 169
Width: 662
Flags: W
HStem: 0 45<107 456> 361 38<353 372> 396 49<206 218> 549 49<238 258>
Fore
599 120 m 2xd0
 592 74 547 0 456 0 c 2
 98 0 l 1
 108 45 l 1
 164 45 l 1
 239 399 l 1xd0
 227 397 216 396 208 396 c 0xb0
 139 396 115 446 125 496 c 0
 136 547 183 598 258 598 c 0
 391 598 360 496 358 483 c 2
 339 395 l 1
 357 401 361 399 372 399 c 0
 471 399 461 266 377 238 c 1
 448 215 539 296 549 361 c 1
 583 524 l 1
 649 587 l 2
 669 599 706 613 691 556 c 2
 599 120 l 2xd0
493 108 m 0
 522 243 l 1
 436 161 338 174 301 217 c 1
 301 217 271 75 265 45 c 1
 425 45 l 2
 452 45 484 65 493 108 c 0
340 263 m 0
 373 263 395 288 400 312 c 0
 405 336 394 361 361 361 c 0
 328 361 305 336 300 312 c 0
 295 288 307 263 340 263 c 0
216 445 m 0xb0
 251 445 274 471 280 497 c 0
 285 523 273 549 238 549 c 0
 203 549 179 523 174 497 c 0
 168 471 181 445 216 445 c 0xb0
EndSplineSet
EndChar
StartChar: uni0E2A
Encoding: 202 3626 170
Width: 577
Flags: W
HStem: 0 21G<387 488> 146 45<229 247> 335 47<347 358> 540 57<370 395>
Fore
700 627 m 17
 686 584 633 528 574 490 c 1
 580 478 584 452 576 413 c 2
 488 0 l 1
 387 0 l 1
 435 226 l 2
 447 283 407 335 347 335 c 0
 283 335 237 290 226 238 c 2
 215 187 l 1
 226 189 237 191 247 191 c 0
 308 191 330 143 320 95 c 0
 310 47 268 -1 200 -5 c 0
 102 -8 88 74 98 120 c 2
 120 227 l 2
 141 324 234 372 271 381 c 1
 323 402 414 449 473 488 c 1
 455 523 416 540 370 540 c 0
 300 540 213 501 159 430 c 1
 127 450 l 1
 201 551 304 597 395 597 c 0
 452 597 504 579 541 544 c 1
 568 570 588 599 598 627 c 1
 700 627 l 17
459 326 m 1
 478 415 l 2
 480 422 481 430 480 436 c 1
 448 419 396 396 356 382 c 1
 394 382 448 366 459 326 c 1
207 41 m 0
 243 41 265 67 271 94 c 0
 277 120 265 146 229 146 c 0
 193 146 171 120 165 94 c 0
 159 67 171 41 207 41 c 0
EndSplineSet
EndChar
StartChar: uni0E2B
Encoding: 203 3627 171
Width: 651
Flags: W
HStem: 0 21G<144 247 459 562> 397 48<195 209> 549 49<229 250>
Fore
562 0 m 1
 459 0 l 1
 538 374 l 2
 541 388 542 396 538 402 c 1
 414 330 303 175 291 157 c 0
 278 134 271 114 268 97 c 2
 247 0 l 1
 144 0 l 1
 229 402 l 1
 220 399 208 397 198 397 c 0
 132 397 108 448 119 498 c 0
 129 548 175 598 250 598 c 0
 382 598 351 496 349 483 c 2
 299 247 l 1
 376 338 474 413 507 433 c 1
 491 453 487 476 492 500 c 0
 503 550 553 598 614 598 c 0
 682 598 704 550 694 502 c 0
 687 470 666 438 635 422 c 1
 641 411 647 399 642 376 c 2
 562 0 l 1
207 445 m 0
 243 445 265 471 271 497 c 0
 276 523 265 549 229 549 c 0
 193 549 170 523 165 497 c 0
 159 471 171 445 207 445 c 0
582 448 m 0
 617 448 641 474 646 500 c 0
 652 526 639 552 604 552 c 0
 569 552 546 526 540 500 c 0
 535 474 547 448 582 448 c 0
EndSplineSet
EndChar
StartChar: uni0E2C
Encoding: 204 3628 172
Width: 712
Flags: W
HStem: 0 21G<146 241 525 624> 396 49<199 213> 549 49<231 250> 594 45<652 666>
Fore
890 644 m 17xd0
 863 542 759 492 726 482 c 1
 624 0 l 1
 525 0 l 1
 461 404 l 1
 241 0 l 1
 146 0 l 1
 231 399 l 1
 219 397 208 396 201 396 c 0
 133 396 108 446 119 497 c 0
 129 547 176 598 250 598 c 0xe0
 384 598 352 496 350 483 c 2
 301 253 l 2
 295 226 272 160 272 160 c 1
 278 160 l 1
 278 160 303 217 319 249 c 2
 489 558 l 1
 498 558 l 1
 554 249 l 2
 556 217 558 160 558 160 c 1
 564 160 l 1
 564 160 570 226 576 253 c 2
 619 455 l 1
 560 459 541 504 550 548 c 0
 560 593 602 639 664 639 c 0
 720 639 750 607 740 545 c 1
 761 558 794 598 799 644 c 1
 890 644 l 17xd0
634 499 m 0
 667 499 689 523 694 546 c 0
 699 570 687 594 654 594 c 0xd0
 621 594 599 570 594 546 c 0
 589 523 601 499 634 499 c 0
209 445 m 0
 244 445 266 471 272 497 c 0
 277 523 266 549 231 549 c 0xe0
 195 549 172 523 167 497 c 0
 161 471 173 445 209 445 c 0
EndSplineSet
EndChar
StartChar: uni0E2D
Encoding: 205 3629 173
Width: 566
Flags: W
HStem: -8 46<271 293> 246 49<255 273> 540 58<350 381>
Fore
512 158 m 2
 483 22 327 -8 273 -8 c 0
 201 -8 75 18 105 160 c 2
 138 315 l 2
 147 359 196 449 295 445 c 0
 363 443 385 394 375 346 c 0
 364 296 320 246 257 246 c 0
 247 246 238 247 227 250 c 1
 200 124 l 2
 189 67 233 38 283 38 c 0
 332 38 387 66 399 124 c 2
 463 422 l 2
 479 498 424 540 350 540 c 0
 283 540 200 505 143 430 c 1
 111 450 l 1
 188 554 292 598 381 598 c 0
 497 598 589 523 566 413 c 2
 512 158 l 2
263 295 m 0
 298 295 320 321 326 347 c 0
 331 373 320 399 285 399 c 0
 249 399 226 373 221 347 c 0
 215 321 227 295 263 295 c 0
EndSplineSet
EndChar
StartChar: uni0E2E
Encoding: 206 3630 174
Width: 566
Flags: W
HStem: -8 46<268 293> 177 46<239 249> 543 51<344 383>
Fore
626 602 m 17
 607 564 583 533 558 508 c 1
 570 484 574 452 566 413 c 2
 512 158 l 2
 483 22 327 -8 273 -8 c 0
 201 -8 75 18 105 160 c 2
 122 241 l 2
 132 286 181 375 279 372 c 0
 347 370 369 323 358 275 c 0
 348 226 304 177 241 177 c 0
 232 177 222 178 212 180 c 1
 200 124 l 2
 189 67 233 38 283 38 c 0
 332 38 387 66 399 124 c 2
 399 124 460 410 463 422 c 0
 464 430 466 438 467 445 c 1
 407 419 349 413 313 410 c 0
 197 401 130 419 140 464 c 0
 156 543 274 594 383 594 c 0
 430 594 474 585 509 564 c 1
 517 576 523 590 529 602 c 1
 626 602 l 17
452 501 m 1
 430 531 387 543 344 543 c 0
 282 543 219 518 212 484 c 0
 208 467 237 450 323 455 c 0
 375 458 417 475 452 501 c 1
247 223 m 0
 282 223 305 249 310 275 c 0
 316 301 305 327 270 327 c 0
 234 327 211 301 205 275 c 0
 200 249 211 223 247 223 c 0
EndSplineSet
EndChar
StartChar: uni0E2F
Encoding: 207 3631 175
Width: 539
Flags: W
HStem: 0 21G<335 438> 391 48<268 292> 553 45<232 247>
Fore
438 0 m 1
 335 0 l 1
 427 432 l 1
 375 402 317 391 268 391 c 0
 214 391 170 403 152 418 c 0
 125 440 117 471 123 501 c 0
 134 551 184 598 247 598 c 0
 307 598 338 551 327 501 c 0
 323 480 311 458 290 439 c 1
 416 439 462 525 476 594 c 1
 564 594 l 1
 438 0 l 1
213 449 m 0
 249 449 272 475 277 501 c 0
 283 527 272 553 236 553 c 0
 201 553 178 527 172 501 c 0
 167 475 178 449 213 449 c 0
EndSplineSet
EndChar
StartChar: uni0E30
Encoding: 208 3632 176
Width: 460
Flags: W
HStem: -6 54<189 211> 152 45<157 171> 396 54<274 295> 554 45<241 256>
Fore
535 594 m 17
 486 444 377 396 274 396 c 0
 152 396 128 456 137 499 c 0
 147 544 179 599 256 599 c 0
 319 599 342 558 331 508 c 0
 328 492 319 464 293 450 c 1
 397 452 437 521 447 594 c 1
 535 594 l 17
224 456 m 0
 257 456 279 480 284 505 c 0
 290 530 278 554 245 554 c 0
 212 554 191 530 185 505 c 0
 180 480 191 456 224 456 c 0
450 192 m 17
 401 41 292 -6 189 -6 c 0
 67 -6 42 54 52 97 c 0
 61 141 94 197 171 197 c 0
 234 197 256 155 246 106 c 0
 242 89 233 61 207 48 c 1
 311 49 351 118 362 192 c 1
 450 192 l 17
138 54 m 0
 171 54 194 78 199 103 c 0
 204 128 192 152 159 152 c 0
 126 152 105 128 100 103 c 0
 95 78 105 54 138 54 c 0
EndSplineSet
EndChar
StartChar: uni0E31
Encoding: 209 3633 177
Width: 0
Flags: W
HStem: 676 49<-13 21> 880 49<-85 -71>
AnchorPoint: "AboveMark" 115.255 983.04 basemark 0
AnchorPoint: "AboveBase" 40.1631 629.76 mark 0
Fore
353 923 m 17
 271 740 121 674 -7 676 c 0
 -125 676 -220 736 -201 823 c 0
 -189 882 -135 929 -75 929 c 0
 -12 929 22 885 10 826 c 0
 1 786 -27 753 -73 736 c 1
 -48 729 -22 725 5 725 c 0
 105 725 208 783 251 923 c 1
 353 923 l 17
-105 776 m 0
 -70 776 -48 802 -42 828 c 0
 -36 854 -48 880 -83 880 c 0
 -119 880 -141 854 -147 828 c 0
 -153 802 -141 776 -105 776 c 0
EndSplineSet
EndChar
StartChar: uni0E32
Encoding: 210 3634 178
Width: 427
Flags: W
HStem: 0 21G<235 338> 541 57<257 309>
Fore
338 0 m 1
 235 0 l 1
 333 460 l 2
 344 513 307 541 257 541 c 0
 215 541 164 522 125 483 c 1
 102 509 l 1
 155 566 239 598 309 598 c 0
 391 598 456 554 434 453 c 2
 338 0 l 1
EndSplineSet
EndChar
StartChar: uni0E33
Encoding: 211 3635 179
Width: 427
Flags: W
HStem: 0 21G<235 338> 541 57<257 309> 673 54<11 25> 831 57<43 57>
Fore
338 0 m 1
 235 0 l 1
 333 460 l 2
 344 513 307 541 257 541 c 0
 215 541 164 522 125 483 c 1
 102 509 l 1
 155 566 239 598 309 598 c 0
 391 598 456 554 434 453 c 2
 338 0 l 1
11 673 m 0
 -61 673 -85 727 -74 780 c 0
 -63 834 -15 888 57 888 c 0
 129 888 152 834 141 780 c 0
 130 727 83 673 11 673 c 0
23 727 m 0
 59 727 81 753 87 779 c 0
 92 805 81 831 45 831 c 0
 9 831 -14 805 -19 779 c 0
 -25 753 -13 727 23 727 c 0
EndSplineSet
MultipleSubs: 0 1 'ccmp' uni0E4D uni0E32
EndChar
StartChar: uni0E34
Encoding: 212 3636 180
Width: 0
Flags: W
HStem: 726 45<-275 -240> 839 55<-149 -127>
AnchorPoint: "AboveMark" 66.1035 983.04 basemark 0
AnchorPoint: "AboveBase" 40.1631 629.76 mark 0
Fore
63 636 m 1
 -59 694 -162 726 -273 726 c 0
 -315 726 -357 722 -401 713 c 1
 -345 833 -229 894 -127 894 c 0
 -4 894 100 808 63 636 c 1
18 708 m 1
 6 788 -65 839 -147 839 c 0
 -200 839 -257 818 -305 768 c 1
 -285 770 -266 771 -245 771 c 0
 -156 771 -57 750 18 708 c 1
EndSplineSet
EndChar
StartChar: uni0E35
Encoding: 213 3637 181
Width: 0
Flags: W
HStem: 726 45<-275 -240> 839 55<-149 -127>
AnchorPoint: "AboveMark" 66.1035 983.04 basemark 0
AnchorPoint: "AboveBase" 40.1631 629.76 mark 0
Fore
63 636 m 1
 -59 694 -162 726 -273 726 c 0
 -315 726 -357 722 -401 713 c 1
 -346 833 -230 894 -127 894 c 0
 -84 894 -43 883 -11 862 c 1
 8 948 l 1
 108 948 l 1
 65 750 l 1
 72 717 72 679 63 636 c 1
18 708 m 1
 6 788 -65 839 -147 839 c 0
 -200 839 -257 818 -305 768 c 1
 -285 770 -266 771 -245 771 c 0
 -156 771 -57 750 18 708 c 1
EndSplineSet
EndChar
StartChar: uni0E36
Encoding: 214 3638 182
Width: 0
Flags: W
HStem: 726 45<-275 -240> 839 55<-149 -127> 906 46<46 61>
AnchorPoint: "AboveMark" 66.1035 983.04 basemark 0
AnchorPoint: "AboveBase" 40.1631 629.76 mark 0
Fore
63 636 m 1
 -59 694 -162 726 -273 726 c 0
 -315 726 -357 722 -401 713 c 1
 -346 834 -229 894 -127 894 c 0
 -101 894 -76 890 -53 882 c 1
 -41 911 -5 952 59 952 c 0
 125 952 148 906 138 859 c 0
 130 823 103 786 61 770 c 1
 73 733 74 688 63 636 c 1
18 708 m 1
 6 788 -65 839 -147 839 c 0
 -200 839 -257 818 -305 768 c 1
 -285 770 -266 771 -245 771 c 0
 -156 771 -57 750 18 708 c 1
29 808 m 0
 62 808 83 832 88 857 c 0
 93 882 83 906 50 906 c 0
 17 906 -5 882 -10 857 c 0
 -15 832 -4 808 29 808 c 0
EndSplineSet
EndChar
StartChar: uni0E37
Encoding: 215 3639 183
Width: 0
Flags: W
HStem: 726 45<-275 -240> 839 55<-149 -123>
AnchorPoint: "AboveMark" 4.66406 983.04 basemark 0
AnchorPoint: "AboveBase" 40.1631 629.76 mark 0
Fore
63 636 m 1
 -59 694 -162 726 -273 726 c 0
 -315 726 -357 722 -401 713 c 1
 -345 834 -226 895 -123 894 c 1
 -110 949 l 1
 -38 949 l 1
 -51 879 l 1
 -29 872 -11 860 5 849 c 1
 28 949 l 1
 105 949 l 1
 65 754 l 1
 72 720 73 680 63 636 c 1
18 708 m 1
 6 788 -65 839 -147 839 c 0
 -200 839 -257 818 -305 768 c 1
 -285 770 -266 771 -245 771 c 0
 -156 771 -57 750 18 708 c 1
EndSplineSet
EndChar
StartChar: uni0E38
Encoding: 216 3640 184
Width: 0
Flags: W
HStem: -227 41<-266 -250>
AnchorPoint: "BelowBase" -104.797 -52.2236 mark 0
Fore
-160 -307 m 1
 -257 -307 l 1
 -240 -226 l 1
 -246 -227 -257 -227 -266 -227 c 0
 -323 -226 -343 -185 -334 -142 c 0
 -325 -100 -287 -56 -229 -52 c 1
 -157 -49 -118 -83 -127 -149 c 1
 -160 -307 l 1
-199 -141 m 0
 -194 -117 -210 -97 -233 -97 c 0
 -264 -97 -282 -115 -288 -141 c 0
 -293 -164 -278 -186 -252 -186 c 0
 -224 -186 -204 -164 -199 -141 c 0
EndSplineSet
EndChar
StartChar: uni0E39
Encoding: 217 3641 185
Width: 0
Flags: W
HStem: -319 39<-277 -266> -214 37<-379 -367> -88 37<-359 -343>
AnchorPoint: "BelowBase" -104.797 -52.2236 mark 0
Fore
-139 -212 m 2
 -151 -270 -197 -319 -266 -319 c 0
 -335 -319 -372 -281 -360 -226 c 2
 -357 -210 l 1
 -361 -212 -368 -214 -377 -214 c 0
 -433 -213 -454 -172 -445 -132 c 0
 -436 -91 -399 -51 -343 -51 c 0
 -274 -51 -255 -92 -269 -151 c 1
 -292 -257 l 1
 -295 -269 -287 -280 -275 -280 c 0
 -261 -280 -250 -272 -247 -257 c 2
 -204 -57 l 1
 -106 -57 l 1
 -139 -212 l 2
-318 -132 m 0
 -313 -108 -329 -88 -352 -88 c 0
 -381 -88 -402 -106 -407 -132 c 0
 -412 -155 -397 -177 -371 -177 c 0
 -344 -177 -323 -155 -318 -132 c 0
EndSplineSet
EndChar
StartChar: uni0E3A
Encoding: 218 3642 186
Width: 0
Flags: W
AnchorPoint: "BelowBase" -102.838 -43.0078 mark 0
Fore
-178 -174 m 0
 -224 -174 -240 -141 -233 -108 c 0
 -226 -76 -196 -43 -150 -43 c 0
 -105 -43 -90 -76 -97 -108 c 0
 -104 -141 -133 -174 -178 -174 c 0
EndSplineSet
EndChar
StartChar: dottedcircle
Encoding: 221 9676 188
Width: 649
Flags: W
HStem: -14 77<341 358> 23 77<197 214> 34 77<484 499> 118 77<114 131> 131 75<588 604> 263 76<651 668> 270 77<109 126> 399 77<645 662> 406 76<183 200> 493 77<567 584> 501 77<307 324> 535 76<456 473>
Fore
184 462 m 6
309 554 m 6
197 80 m 6
115 172 m 6
482 89 m 6
588 184 m 6
645 456 m 6
568 547 m 6
653 318 m 6
111 324 m 6
458 591 m 6
200 482 m 4,11,12
 223 482 233 465 230 445 c 4,13,14
 226 424 206 406 183 406 c 4,15,16
 163 406 151 424 155 445 c 4,17,18
 158 465 180 482 200 482 c 4,11,12
192 445 m 4,19,-1
 192 445 l 4,20,-1
 192 445 l 4,21,-1
 192 445 l 4,22,-1
 192 445 l 4,19,-1
324 578 m 4,23,24
 346 578 359 561 353 538 c 4,25,26
 350 518 329 501 307 501 c 4,27,28
 287 501 273 518 276 538 c 4,29,30
 283 561 304 578 324 578 c 4,23,24
315 538 m 4,31,-1
 315 538 l 4,32,-1
 315 538 l 4,33,-1
 315 538 l 4,34,-1
 315 538 l 4,31,-1
214 100 m 4,35,36
 233 100 246 83 243 63 c 4,37,38
 238 41 217 23 197 23 c 4,39,40
 174 23 161 41 166 63 c 4,41,42
 169 83 190 100 214 100 c 4,35,36
206 63 m 4,43,-1
 206 63 l 4,44,-1
 206 63 l 4,45,-1
 206 63 l 4,46,-1
 206 63 l 4,43,-1
131 195 m 4,47,48
 154 195 166 177 161 155 c 4,49,50
 158 135 137 118 114 118 c 4,51,52
 94 118 81 135 84 155 c 4,53,54
 89 177 111 195 131 195 c 4,47,48
121 155 m 4,55,-1
 121 155 l 4,56,-1
 121 155 l 4,57,-1
 121 155 l 4,58,-1
 121 155 l 4,55,-1
499 111 m 4,59,60
 521 111 535 94 530 72 c 4,61,62
 525 52 505 34 484 34 c 4,63,64
 462 34 449 52 453 72 c 4,65,66
 458 94 478 111 499 111 c 4,59,60
492 72 m 4,67,-1
 492 72 l 4,68,-1
 492 72 l 4,69,-1
 492 72 l 4,70,-1
 492 72 l 4,67,-1
604 206 m 4,71,72
 624 206 637 189 633 167 c 4,73,74
 628 146 608 131 588 131 c 4,75,76
 565 131 553 146 558 167 c 4,77,78
 562 189 581 206 604 206 c 4,71,72
596 167 m 4,79,-1
 596 167 l 4,80,-1
 596 167 l 4,81,-1
 596 167 l 4,82,-1
 596 167 l 4,79,-1
662 476 m 4,83,84
 682 476 696 459 691 439 c 4,85,86
 687 418 665 399 645 399 c 4,87,88
 622 399 611 418 616 439 c 4,89,90
 621 459 639 476 662 476 c 4,83,84
654 439 m 4,91,-1
 654 439 l 4,92,-1
 654 439 l 4,93,-1
 654 439 l 4,94,-1
 654 439 l 4,91,-1
584 570 m 4,95,96
 607 570 619 551 614 530 c 4,97,98
 611 510 590 493 567 493 c 4,99,100
 547 493 535 510 538 530 c 4,101,102
 542 551 564 570 584 570 c 4,95,96
574 530 m 4,103,-1
 574 530 l 4,104,-1
 574 530 l 4,105,-1
 574 530 l 4,106,-1
 574 530 l 4,103,-1
668 339 m 4,107,108
 690 339 703 321 700 301 c 4,109,110
 696 280 673 263 651 263 c 4,111,112
 631 263 619 280 624 301 c 4,113,114
 627 321 648 339 668 339 c 4,107,108
660 301 m 4,115,-1
 660 301 l 4,116,-1
 660 301 l 4,117,-1
 660 301 l 4,118,-1
 660 301 l 4,115,-1
126 347 m 4,119,120
 147 347 160 329 157 307 c 4,121,122
 152 287 131 270 109 270 c 4,123,124
 89 270 75 287 80 307 c 4,125,126
 83 329 106 347 126 347 c 4,119,120
118 307 m 4,127,-1
 118 307 l 4,128,-1
 118 307 l 4,129,-1
 118 307 l 4,130,-1
 118 307 l 4,127,-1
358 63 m 4,131,132
 379 63 392 46 387 23 c 4,133,134
 382 3 362 -14 341 -14 c 4,135,136
 321 -14 306 3 310 23 c 4,137,138
 315 46 338 63 358 63 c 4,131,132
349 23 m 4,139,-1
 349 23 l 4,140,-1
 349 23 l 4,141,-1
 349 23 l 4,142,-1
 349 23 l 4,139,-1
473 611 m 4,143,144
 495 611 507 594 502 574 c 4,145,146
 498 551 478 535 456 535 c 4,147,148
 435 535 421 551 425 574 c 4,149,150
 430 594 452 611 473 611 c 4,143,144
464 574 m 4,151,-1
 464 574 l 4,152,-1
 464 574 l 4,153,-1
 464 574 l 4,154,-1
 464 574 l 4,151,-1
EndSplineSet
EndChar
StartChar: uni0E3F
Encoding: 223 3647 189
Width: 752
Flags: W
HStem: -11 43<45 73.6842> 347 65<338 412> 667 64<575 590> 667 167<518 593.666> 694 40<186 196>
Fore
731 200 m 0xe0
 700 58 594 -8 431 -9 c 1
 407 -118 l 1
 316 -118 l 1
 337 -11 l 1
 36 -9 l 1
 45 32 l 1
 136 32 156 58 163 88 c 2
 279 637 l 2
 285 665 276 693 186 694 c 1
 194 734 l 1xc8
 234 734 443 736 495 736 c 1
 518 834 l 1
 609 834 l 1xd0
 588 731 l 1
 726 731 797 677 768 541 c 0
 748 445 690 399 616 381 c 1
 692 367 754 312 731 200 c 0xe0
426 412 m 1
 481 673 l 0
 425 676 394 676 388 650 c 2
 338 412 l 1
 426 412 l 1
655 536 m 0
 674 627 640 668 575 667 c 1xe0
 521 415 l 1
 608 418 643 478 655 536 c 0
349 51 m 9
 412 347 l 0
 393 347 341 347 324 347 c 1
 271 100 l 2
 264 68 259 40 349 51 c 9
607 203 m 0
 623 278 585 330 504 333 c 1
 445 55 l 1
 541 65 588 114 607 203 c 0
EndSplineSet
EndChar
StartChar: uni0E40
Encoding: 224 3648 190
Width: 337
Flags: W
HStem: -8 46<198 215> 143 43<227 243>
Fore
241 187 m 0
 310 187 334 139 323 90 c 0
 313 41 267 -8 198 -8 c 0
 122 -8 96 57 109 118 c 2
 195 524 l 1
 265 587 l 2
 282 601 317 613 305 556 c 2
 305 556 241 255 227 186 c 1
 230 186 238 187 241 187 c 0
215 38 m 0
 250 38 274 64 279 90 c 0
 285 117 272 143 237 143 c 0
 202 143 179 117 173 90 c 0
 168 64 180 38 215 38 c 0
EndSplineSet
EndChar
StartChar: uni0E41
Encoding: 225 3649 191
Width: 609
Flags: W
HStem: -8 45<198 214 468 486> 141 45<227 243 498 514>
Fore
512 187 m 0
 580 187 605 139 594 91 c 0
 584 41 538 -8 468 -8 c 0
 393 -8 367 57 380 118 c 1
 466 524 l 1
 535 587 l 2
 552 601 588 613 576 556 c 2
 576 556 512 255 498 186 c 1
 501 186 508 187 512 187 c 0
241 187 m 0
 310 187 334 139 323 90 c 0
 313 41 267 -8 198 -8 c 0
 122 -8 96 57 109 118 c 2
 195 524 l 1
 265 587 l 2
 282 601 317 613 305 556 c 2
 305 556 241 255 227 186 c 1
 230 186 238 187 241 187 c 0
484 37 m 0
 520 37 542 63 548 89 c 0
 553 115 542 141 506 141 c 0
 471 141 448 115 443 89 c 0
 437 63 449 37 484 37 c 0
214 37 m 0
 249 37 271 63 277 89 c 0
 282 115 271 141 236 141 c 0
 200 141 177 115 172 89 c 0
 166 63 178 37 214 37 c 0
EndSplineSet
EndChar
StartChar: uni0E42
Encoding: 226 3650 192
Width: 339
Flags: W
HStem: -8 45<235 251> 141 46<264 280> 897 74<260 292>
Fore
538 905 m 0
 495 828 443 834 404 848 c 0
 350 868 292 897 260 897 c 0
 237 897 222 897 184 854 c 1
 351 750 l 2
 375 734 376 717 371 690 c 2
 371 690 278 255 264 186 c 1
 269 187 275 187 278 187 c 0
 347 187 371 139 360 90 c 0
 350 41 304 -8 235 -8 c 0
 159 -8 133 57 146 118 c 2
 268 691 l 2
 274 720 266 737 258 742 c 2
 111 831 l 1
 162 906 218 971 292 971 c 0
 336 971 420 913 474 913 c 0
 488 913 500 916 509 925 c 0
 532 948 557 945 538 905 c 0
251 37 m 0
 286 37 309 63 315 89 c 0
 320 115 308 141 273 141 c 0
 238 141 214 115 209 89 c 0
 203 63 216 37 251 37 c 0
EndSplineSet
EndChar
StartChar: uni0E43
Encoding: 227 3651 193
Width: 362
Flags: W
HStem: -8 45<255 271> 141 45<284 300> 671 46<178 192> 794 48<209 218> 912 59<265 291>
Fore
298 187 m 0
 367 187 391 139 380 90 c 0
 370 41 324 -8 255 -8 c 0
 179 -8 153 57 166 118 c 2
 320 842 l 2
 329 885 299 912 265 912 c 0
 223 912 176 894 154 817 c 1
 177 839 210 842 216 842 c 0
 275 842 295 800 286 757 c 0
 277 714 238 671 178 671 c 0
 95 671 91 765 107 829 c 1
 132 908 197 971 291 971 c 0
 392 971 436 903 419 823 c 2
 284 186 l 1
 287 186 295 187 298 187 c 0
211 794 m 0
 184 794 165 777 161 756 c 0
 157 739 164 717 190 717 c 0
 218 717 236 737 240 757 c 0
 244 775 236 794 211 794 c 0
271 37 m 0
 306 37 329 63 335 89 c 0
 340 115 328 141 293 141 c 0
 258 141 234 115 229 89 c 0
 223 63 236 37 271 37 c 0
EndSplineSet
EndChar
StartChar: uni0E44
Encoding: 228 3652 194
Width: 388
Flags: W
HStem: -8 45<282 298> 141 43<311 327> 662 41<188 203> 925 46<350 378>
Fore
326 187 m 0
 395 187 419 139 408 91 c 0
 398 41 351 -8 282 -8 c 0
 207 -8 182 57 195 118 c 1
 362 902 l 2
 364 915 361 925 350 925 c 0
 336 925 327 912 325 902 c 2
 292 750 l 2
 282 702 250 662 188 662 c 0
 129 660 104 702 115 754 c 2
 148 909 l 2
 150 917 151 926 143 935 c 0
 134 948 128 951 117 963 c 2
 99 989 129 1012 154 995 c 2
 209 965 l 2
 229 952 230 940 226 920 c 2
 184 723 l 2
 182 714 190 703 201 703 c 0
 210 703 225 713 227 723 c 2
 257 868 l 2
 270 926 309 971 378 971 c 0
 447 971 468 920 457 871 c 2
 457 871 326 253 311 184 c 1
 314 184 320 187 326 187 c 0
298 37 m 0
 334 37 356 63 362 89 c 0
 367 115 356 141 320 141 c 0
 285 141 262 115 257 89 c 0
 251 63 263 37 298 37 c 0
EndSplineSet
EndChar
StartChar: uni0E45
Encoding: 229 3653 195
Width: 304
Flags: W
HStem: 541 57<133 185>
Fore
176 -180 m 1
 106 -244 l 2
 85 -257 54 -270 66 -214 c 2
 209 460 l 2
 220 513 183 541 133 541 c 0
 91 541 39 522 -0 483 c 1
 -23 509 l 1
 31 566 115 598 185 598 c 0
 267 598 332 554 310 453 c 2
 176 -180 l 1
EndSplineSet
EndChar
StartChar: uni0E46
Encoding: 230 3654 196
Width: 703
Flags: W
HStem: 255 37<402 416> 390 37<430 443>
Fore
566 -180 m 1
 499 -244 l 2
 478 -257 448 -264 459 -214 c 2
 607 485 l 2
 611 505 598 521 582 525 c 1
 504 459 l 1
 444 536 l 1
 409 515 376 476 368 395 c 1
 390 421 423 427 441 427 c 0
 501 426 520 383 511 340 c 0
 502 298 463 255 404 255 c 0
 314 255 311 346 326 427 c 0
 335 478 372 559 462 599 c 1
 518 525 l 1
 603 599 l 1
 698 588 715 521 701 455 c 2
 566 -180 l 1
412 292 m 0
 445 292 467 316 472 341 c 0
 478 366 466 390 433 390 c 0
 400 390 378 366 372 341 c 0
 367 316 379 292 412 292 c 0
EndSplineSet
EndChar
StartChar: uni0E47
Encoding: 231 3655 197
Width: 0
Flags: W
HStem: 656 49<-35 -22> 796 46<-7 5>
AnchorPoint: "AboveMark" -154.908 629.76 mark 0
AnchorPoint: "AboveBase" 4.83594 629.76 mark 0
Fore
147 1025 m 17
 120 902 27 885 -38 888 c 0
 -75 889 -111 892 -153 895 c 0
 -198 899 -242 865 -253 814 c 0
 -257 795 -257 773 -250 750 c 1
 -215 817 -137 793 -109 754 c 1
 -109 754 -100 742 -99 757 c 0
 -90 813 -40 842 5 842 c 0
 52 842 93 813 80 753 c 0
 66 687 13 656 -33 656 c 0
 -141 656 -144 736 -190 736 c 0
 -228 736 -242 680 -225 656 c 1
 -285 657 l 1
 -329 705 -340 764 -328 816 c 0
 -309 895 -236 959 -142 948 c 0
 -110 943 -69 940 -38 938 c 0
 -21 937 42 935 51 1025 c 1
 147 1025 l 17
-24 705 m 0
 6 705 26 728 30 750 c 0
 35 773 25 796 -5 796 c 0
 -35 796 -54 773 -59 750 c 0
 -63 728 -54 705 -24 705 c 0
EndSplineSet
EndChar
StartChar: uni0E48
Encoding: 232 3656 198
Width: 0
Flags: W
AnchorPoint: "AboveMark" 66.1035 983.04 mark 0
Fore
170 1227 m 1
 113 1021 l 1
 36 1021 l 1
 66 1227 l 1
 170 1227 l 1
EndSplineSet
Substitution: 0 65534 'loww' uni0E48.low
Substitution: 0 65534 'amni' uni0E4D
EndChar
StartChar: uni0E49
Encoding: 233 3657 199
Width: 0
Flags: W
HStem: 1187 42<62 75>
AnchorPoint: "AboveMark" 162.871 983.04 mark 0
Fore
413 1229 m 17
 323 957 13 991 -33 994 c 1
 -25 1029 l 1
 16 1034 35 1052 48 1071 c 1
 48 1074 l 1
 48 1074 39 1071 25 1072 c 0
 -18 1079 -32 1115 -25 1150 c 0
 -16 1190 19 1229 75 1229 c 0
 161 1229 145 1152 144 1150 c 0
 129 1077 84 1043 84 1043 c 1
 83 1040 l 1
 83 1040 269 1035 324 1229 c 1
 413 1229 l 17
49 1109 m 0
 76 1109 94 1128 98 1148 c 0
 102 1168 92 1187 65 1187 c 0
 38 1187 21 1168 17 1148 c 0
 13 1128 22 1109 49 1109 c 0
EndSplineSet
Substitution: 0 65534 'loww' uni0E49.low
Substitution: 0 65534 'amni' uni0E4D
EndChar
StartChar: uni0E4A
Encoding: 234 3658 200
Width: 0
Flags: W
HStem: 986 35<-38 -27> 1089 35<-17 -7>
AnchorPoint: "AboveMark" 33.8477 983.04 mark 0
Fore
327 1226 m 17
 308 1098 205 986 66 986 c 1
 73 1021 l 1
 111 1039 131 1072 137 1102 c 0
 144 1136 135 1167 115 1175 c 1
 52 1137 l 1
 -3 1178 l 1
 -35 1172 -58 1130 -60 1107 c 1
 -57 1104 l 1
 -57 1104 -41 1124 -7 1124 c 0
 33 1124 56 1098 48 1057 c 0
 39 1014 6 986 -36 986 c 0
 -100 986 -127 1043 -112 1115 c 0
 -102 1160 -49 1227 13 1232 c 1
 61 1183 l 1
 130 1232 l 1
 193 1212 207 1166 198 1123 c 0
 192 1097 179 1073 163 1055 c 1
 166 1054 l 1
 213 1080 255 1141 253 1226 c 1
 327 1226 l 17
-29 1021 m 0
 -6 1021 9 1038 12 1055 c 0
 16 1072 8 1089 -15 1089 c 0
 -37 1089 -51 1072 -55 1055 c 0
 -58 1038 -51 1021 -29 1021 c 0
EndSplineSet
Substitution: 0 65534 'loww' uni0E4A.low
Substitution: 0 65534 'amni' uni0E4D
EndChar
StartChar: uni0E4B
Encoding: 235 3659 201
Width: 0
Flags: W
HStem: 1071 75<-31 47 140 217>
AnchorPoint: "AboveMark" 66.1035 983.04 mark 0
Fore
217 1072 m 1
 124 1071 l 1
 105 992 l 1
 31 992 l 1
 47 1071 l 1
 -47 1072 l 1
 -31 1146 l 1
 63 1147 l 1
 78 1226 l 1
 158 1226 l 1
 140 1147 l 1
 233 1146 l 1
 217 1072 l 1
EndSplineSet
Substitution: 0 65534 'loww' uni0E4B.low
Substitution: 0 65534 'amni' uni0E4D
EndChar
StartChar: uni0E4C
Encoding: 236 3660 202
Width: 0
Flags: W
HStem: 895 42<29 41>
AnchorPoint: "AboveMark" 29.6182 890.88 mark 0
Fore
286 1170 m 17
 239 1074 124 1055 99 1049 c 1
 98 1046 l 1
 122 1044 142 1018 134 977 c 0
 124 931 81 895 30 895 c 0
 -25 895 -50 937 -40 983 c 0
 -32 1023 8 1075 103 1092 c 0
 151 1101 190 1135 212 1192 c 1
 286 1170 l 17
39 937 m 0
 65 937 83 958 87 978 c 0
 91 999 83 1020 57 1020 c 0
 29 1020 9 999 5 978 c 0
 1 958 11 937 39 937 c 0
EndSplineSet
Substitution: 0 65534 'loww' uni0E4C.low
EndChar
StartChar: uni0E4D
Encoding: 237 3661 203
Width: 0
Flags: W
HStem: 673 54<-25 47> 831 57<21 93>
AnchorPoint: "AboveMark" 76.8555 983.04 basemark 0
AnchorPoint: "AboveBase" 72.4189 629.76 mark 0
Fore
11 673 m 0
 -61 673 -85 727 -74 780 c 0
 -63 834 -15 888 57 888 c 0
 129 888 152 834 141 780 c 0
 130 727 83 673 11 673 c 0
23 727 m 0
 59 727 81 753 87 779 c 0
 92 805 81 831 45 831 c 0
 9 831 -14 805 -19 779 c 0
 -25 753 -13 727 23 727 c 0
EndSplineSet
Substitution: 0 65534 'high' uni0E4D.high
Substitution: 0 65534 'G006' uni0E4B
Substitution: 0 65534 'G005' uni0E4A
Substitution: 0 65534 'G004' uni0E49
Substitution: 0 65534 'G003' uni0E48
EndChar
StartChar: uni0E4E
Encoding: 238 3662 204
Width: 0
Flags: W
HStem: 662 55<-31 11>
AnchorPoint: "AboveBase" 40.1631 629.76 mark 0
Fore
184 909 m 1
 104 902 82 863 98 823 c 1
 44 760 l 1
 2 793 -28 773 -32 751 c 0
 -37 730 -20 717 11 717 c 1
 -31 662 l 1
 -83 662 -112 703 -102 750 c 0
 -84 833 -1 849 24 828 c 1
 28 831 l 1
 19 874 53 962 186 962 c 1
 184 909 l 1
EndSplineSet
EndChar
StartChar: uni0E4F
Encoding: 239 3663 205
Width: 737
Flags: W
HStem: -14 79<361 385> 152 77<401 418> 364 77<444 463> 527 80<479 502>
Fore
742 296 m 0
 706 126 533 -14 366 -14 c 0
 194 -14 84 126 120 296 c 0
 156 468 326 607 498 607 c 0
 665 607 778 468 742 296 c 0
662 296 m 0
 689 424 608 527 481 527 c 0
 350 527 227 424 200 296 c 0
 173 169 252 65 383 65 c 0
 510 65 635 169 662 296 c 0
574 296 m 0
 557 217 477 152 401 152 c 0
 318 152 267 217 284 296 c 0
 302 379 380 441 463 441 c 0
 539 441 592 379 574 296 c 0
499 296 m 0
 507 333 483 364 446 364 c 0
 409 364 372 333 364 296 c 0
 356 260 381 229 418 229 c 0
 455 229 491 260 499 296 c 0
EndSplineSet
EndChar
StartChar: uni0E50
Encoding: 240 3664 206
Width: 645
Flags: W
HStem: -9 55<319 340> 430 60<402 429>
Fore
654 237 m 0
 624 92 473 -9 321 -9 c 0
 164 -9 57 89 89 238 c 0
 120 384 270 490 427 490 c 0
 579 490 686 384 654 237 c 0
549 238 m 0
 569 336 516 430 414 430 c 0
 306 430 216 341 194 237 c 0
 173 137 231 46 333 46 c 0
 434 46 529 144 549 238 c 0
EndSplineSet
EndChar
StartChar: uni0E51
Encoding: 241 3665 207
Width: 645
Flags: W
HStem: 98 53<322 336> 243 49<352 368> 427 57<400 424>
Fore
653 232 m 0
 625 100 519 -8 390 -37 c 1
 335 -14 l 1
 502 32 536 149 554 233 c 0
 581 362 510 427 410 427 c 0
 300 427 214 346 189 232 c 0
 150 46 318 2 370 111 c 1
 350 100 336 98 322 98 c 0
 264 98 238 144 248 194 c 0
 260 249 308 292 368 292 c 0
 443 292 468 232 454 164 c 0
 404 -72 24 -75 89 232 c 0
 123 392 275 484 422 484 c 0
 568 484 687 390 653 232 c 0
336 151 m 0
 367 151 387 174 392 197 c 0
 397 220 387 243 356 243 c 0
 326 243 305 220 300 197 c 0
 295 174 306 151 336 151 c 0
EndSplineSet
EndChar
StartChar: uni0E52
Encoding: 242 3666 208
Width: 645
Flags: W
HStem: -2 48<193 494> 86 43<318 334> 221 46<346 360>
Fore
673 252 m 0
 662 201 654 154 637 112 c 0
 612 49 588 -2 481 -2 c 2
 194 -2 l 2
 86 -2 49 57 65 134 c 2
 156 561 l 2
 175 648 168 667 168 667 c 1
 163 725 206 717 221 703 c 1
 249 660 l 1
 249 660 264 637 248 561 c 2
 154 117 l 2
 145 75 170 46 204 46 c 2
 492 46 l 2
 526 46 539 71 546 91 c 0
 559 127 574 181 586 236 c 0
 605 326 613 417 575 425 c 0
 548 432 505 366 487 321 c 0
 473 283 426 280 428 323 c 0
 430 362 424 430 388 425 c 0
 359 422 334 377 320 311 c 0
 316 294 313 275 311 255 c 1
 322 263 344 267 360 267 c 0
 420 267 440 222 431 177 c 0
 421 132 381 86 321 86 c 0
 256 86 231 132 231 192 c 0
 232 229 236 264 243 296 c 0
 268 414 328 490 396 490 c 0
 454 490 468 439 472 401 c 0
 473 396 472 390 472 390 c 1
 475 390 l 1
 475 390 476 396 478 401 c 0
 500 438 542 490 597 490 c 0
 689 490 701 384 673 252 c 0
328 129 m 0
 359 129 379 152 384 175 c 0
 389 198 379 221 348 221 c 0
 317 221 297 198 292 175 c 0
 287 152 297 129 328 129 c 0
EndSplineSet
EndChar
StartChar: uni0E53
Encoding: 243 3667 209
Width: 645
Flags: W
HStem: -8 49<192 205> 134 49<220 233> 424 64<300 314 526 545>
Fore
573 8 m 9
 520 -5 l 0
 500 -6 469 -12 488 32 c 0
 528 121 554 197 567 258 c 0
 589 364 573 425 527 425 c 0
 479 425 440 354 413 244 c 0
 409 229 405 218 400 194 c 0
 387 138 320 140 333 194 c 0
 338 217 342 229 345 243 c 0
 365 338 347 424 302 424 c 0
 268 424 216 381 192 268 c 0
 186 239 181 206 179 167 c 1
 191 174 211 183 233 183 c 0
 289 183 318 138 308 88 c 0
 296 35 248 -8 192 -8 c 0
 130 -8 93 35 86 92 c 0
 79 139 80 197 92 255 c 0
 117 373 187 488 314 488 c 0
 379 488 402 432 409 402 c 1
 449 467 496 488 545 488 c 0
 659 488 688 386 657 242 c 0
 643 172 613 91 573 8 c 9
203 41 m 0
 233 41 254 64 259 88 c 0
 264 111 252 134 222 134 c 0
 191 134 172 111 167 88 c 0
 162 64 172 41 203 41 c 0
EndSplineSet
EndChar
StartChar: uni0E54
Encoding: 244 3668 210
Width: 645
Flags: W
HStem: 421 66<462 477> 424 66<374 396>
Fore
762 659 m 0x80
 725 521 616 421 462 421 c 0x80
 444 421 413 424 394 424 c 0
 282 424 218 332 200 252 c 0
 178 149 217 37 342 46 c 0
 357 48 382 49 396 49 c 1
 338 89 284 166 301 244 c 0
 318 324 390 367 452 362 c 0
 508 358 532 318 519 260 c 0
 505 195 431 154 381 172 c 1
 399 127 480 57 573 65 c 0
 579 65 598 68 604 68 c 0
 642 68 614 31 614 31 c 1
 587 -2 l 1
 587 -2 492 0 403 3 c 0
 347 5 330 0 288 -3 c 0
 167 -9 63 80 100 252 c 0
 134 413 268 490 396 490 c 0x40
 434 490 443 487 471 487 c 0
 562 487 639 551 674 713 c 1
 748 688 l 2
 760 685 769 679 762 659 c 0x80
414 221 m 0
 445 221 466 244 471 267 c 0
 476 290 465 313 434 313 c 0
 403 313 383 290 378 267 c 0
 373 244 383 221 414 221 c 0
EndSplineSet
EndChar
StartChar: uni0E55
Encoding: 245 3669 211
Width: 645
Flags: W
HStem: 421 49<442 470> 562 46<459 475>
Fore
762 660 m 0
 724 519 609 422 470 421 c 0
 450 421 413 424 394 424 c 0
 282 424 218 333 200 253 c 0
 178 151 230 35 356 45 c 0
 371 46 380 49 396 49 c 1
 325 91 284 167 301 246 c 0
 318 326 390 369 452 364 c 0
 508 359 532 319 519 261 c 0
 506 197 431 154 381 174 c 1
 399 129 480 58 573 66 c 0
 579 66 599 69 605 69 c 0
 643 69 614 32 614 32 c 1
 587 -2 l 1
 587 -2 493 0 405 3 c 0
 363 5 330 0 288 -3 c 0
 167 -9 63 81 100 253 c 0
 133 407 252 476 354 488 c 1
 353 498 354 505 356 511 c 0
 368 570 418 608 475 608 c 0
 533 608 563 568 551 511 c 0
 550 507 l 1
 594 530 650 590 673 714 c 1
 749 690 l 2
 760 687 770 680 762 660 c 0
444 470 m 0
 475 470 495 493 500 516 c 0
 505 539 494 562 463 562 c 0
 433 562 414 539 409 516 c 0
 404 493 414 470 444 470 c 0
414 221 m 0
 445 221 466 244 471 267 c 0
 476 290 465 313 434 313 c 0
 403 313 383 290 378 267 c 0
 373 244 383 221 414 221 c 0
EndSplineSet
EndChar
StartChar: uni0E56
Encoding: 246 3670 212
Width: 645
Flags: W
HStem: -9 54<306 335> 103 51<214 230> 246 52<238 255> 429 64<388 413> 690 20G<212 295>
Fore
644 238 m 0
 614 97 497 -9 308 -9 c 0
 3 -9 81 298 255 298 c 0
 313 298 343 253 331 198 c 0
 321 149 277 103 216 103 c 0
 209 103 203 104 199 104 c 1
 217 75 250 45 320 45 c 0
 426 45 521 132 544 238 c 0
 568 352 498 429 397 429 c 0
 355 429 304 424 257 399 c 0
 240 390 193 396 209 449 c 1
 232 556 217 614 190 677 c 0
 184 688 188 710 212 710 c 2
 295 710 l 1
 307 679 321 584 296 478 c 1
 328 488 374 493 411 493 c 0
 573 493 677 396 644 238 c 0
225 154 m 0
 255 154 276 177 281 200 c 0
 285 223 274 246 244 246 c 0
 214 246 193 223 189 200 c 0
 184 177 195 154 225 154 c 0
EndSplineSet
EndChar
StartChar: uni0E57
Encoding: 247 3671 213
Width: 645
Flags: W
HStem: -6 47<172 185> 134 50<196 214>
Fore
743 682 m 0
 753 606 746 516 727 426 c 0
 684 225 580 27 461 -5 c 1
 461 -5 378 -18 400 31 c 1
 400 31 433 106 451 154 c 0
 471 207 485 252 492 288 c 0
 513 386 492 424 465 424 c 0
 426 424 388 367 377 332 c 0
 370 316 364 296 358 273 c 0
 347 238 297 237 301 273 c 1
 306 296 308 318 309 333 c 0
 311 372 294 424 262 424 c 0
 238 424 193 393 169 284 c 0
 163 252 157 212 156 164 c 1
 172 180 191 184 214 184 c 0
 269 184 299 141 288 91 c 0
 277 38 231 -6 174 -6 c 0
 102 -6 76 45 71 103 c 0
 67 160 70 217 81 269 c 0
 107 391 174 484 278 488 c 0
 316 490 352 455 358 406 c 1
 387 455 440 490 479 488 c 0
 565 484 592 397 567 278 c 0
 553 212 523 136 476 58 c 1
 491 61 510 84 519 97 c 0
 573 173 616 272 638 376 c 0
 657 467 660 562 642 648 c 1
 693 700 l 2
 714 722 736 737 743 682 c 0
183 41 m 0
 213 41 234 64 239 88 c 0
 244 111 232 134 202 134 c 0
 171 134 152 111 147 88 c 0
 142 64 152 41 183 41 c 0
EndSplineSet
EndChar
StartChar: uni0E58
Encoding: 248 3672 214
Width: 645
Flags: W
HStem: -9 215<453 543> 298 52<560 573> 416 66<466 477>
Fore
748 651 m 0
 711 518 592 416 469 416 c 0
 440 416 416 418 392 418 c 0
 273 418 203 336 184 246 c 0
 169 175 174 117 208 83 c 1
 224 120 269 210 334 235 c 1
 386 227 l 1
 345 31 508 20 549 157 c 1
 469 143 441 201 451 250 c 0
 465 313 516 350 573 350 c 0
 653 350 667 296 659 246 c 0
 635 66 531 -9 453 -9 c 0
 399 -9 304 -2 306 132 c 1
 282 101 257 35 244 -11 c 1
 164 -12 45 66 84 247 c 0
 119 409 253 487 379 487 c 0
 408 487 443 482 466 482 c 0
 547 482 629 554 657 708 c 1
 735 684 l 2
 747 680 756 671 748 651 c 0
543 206 m 0
 574 206 595 229 600 252 c 0
 604 275 593 298 562 298 c 0
 531 298 511 275 507 252 c 0
 502 229 512 206 543 206 c 0
EndSplineSet
EndChar
StartChar: uni0E59
Encoding: 249 3673 215
Width: 645
Flags: W
HStem: -6 46<238 251> 132 49<266 279> 341 80<582 596>
Fore
786 656 m 0
 754 447 677 341 582 341 c 0
 513 341 517 416 479 418 c 0
 461 419 453 390 452 373 c 1
 455 362 467 338 469 330 c 0
 521 200 573 0 573 0 c 1
 496 0 l 2
 472 0 464 14 459 29 c 2
 459 29 416 180 381 275 c 0
 342 384 300 444 238 407 c 0
 177 373 169 230 210 154 c 1
 222 164 245 181 279 181 c 0
 334 181 365 140 353 86 c 0
 342 35 292 -6 239 -6 c 0
 196 -6 158 12 132 57 c 0
 58 177 75 379 201 458 c 0
 233 476 331 510 404 433 c 1
 419 461 455 482 488 482 c 0
 564 484 550 421 594 421 c 0
 640 421 674 515 686 708 c 1
 775 680 l 2
 786 677 790 671 786 656 c 0
249 40 m 0
 279 40 299 63 304 86 c 0
 309 109 298 132 268 132 c 0
 237 132 217 109 212 86 c 0
 207 63 218 40 249 40 c 0
EndSplineSet
EndChar
StartChar: uni0E5A
Encoding: 250 3674 216
Width: 731
Flags: W
HStem: 0 21G<335 438 527 630> 391 48<268 292> 553 45<232 247>
Fore
438 0 m 1
 335 0 l 1
 427 432 l 1
 375 402 317 391 268 391 c 0
 214 391 170 403 152 418 c 0
 125 440 117 471 123 501 c 0
 134 551 184 598 247 598 c 0
 307 598 338 551 327 501 c 0
 323 480 311 458 290 439 c 1
 416 439 462 525 476 594 c 1
 564 594 l 1
 438 0 l 1
213 449 m 0
 249 449 272 475 277 501 c 0
 283 527 272 553 236 553 c 0
 201 553 178 527 172 501 c 0
 167 475 178 449 213 449 c 0
630 0 m 1
 527 0 l 1
 653 594 l 1
 756 594 l 1
 630 0 l 1
EndSplineSet
EndChar
StartChar: uni0E5B
Encoding: 251 3675 217
Width: 1293
Flags: W
HStem: 37 67<298 317> 198 85<307 343> 389 40<325 338> 562 68<372 393>
VStem: 707 55<69 611> 859 49<273.07 371.922>
Fore
1359 247 m 1
 1359 247 1323 281 1287 246 c 0
 1243 201 1190 181 1167 243 c 0
 1165 247 1139 329 1131 350 c 1
 1024 112 l 1
 1006 367 l 1
 865 63 l 1
 859 372 l 1
 742 69 l 1
 709 69 l 1
 707 441 l 1
 687 402 651 309 638 283 c 0
 536 86 412 37 298 37 c 0
 148 37 40 160 78 338 c 0
 118 527 252 630 391 630 c 0
 708 630 572 198 343 198 c 0
 259 198 211 253 229 338 c 0
 239 387 285 429 338 429 c 0
 391 429 418 390 407 338 c 0
 395 283 355 258 348 260 c 1
 348 257 l 1
 492 253 606 562 374 562 c 0
 279 562 179 478 148 336 c 0
 120 200 200 108 314 104 c 0
 389 104 496 149 574 303 c 0
 605 364 630 404 731 611 c 1
 763 611 l 1
 762 270 l 1
 875 554 l 1
 908 554 l 1
 912 273 l 1
 1042 548 l 1
 1060 295 l 1
 1153 492 l 1
 1189 347 1207 295 1207 295 c 2
 1216 264 1233 249 1268 289 c 0
 1315 339 1371 306 1371 306 c 1
 1359 247 l 1
361 336 m 0
 367 361 356 389 330 389 c 0
 301 389 281 361 275 336 c 0
 269 306 283 283 307 283 c 0
 333 283 355 306 361 336 c 0
EndSplineSet
EndChar
StartChar: uni0E38.low
Encoding: 252 63256 218
Width: 0
Flags: W
HStem: -392 40<-269 -246>
Fore
-172 -458 m 1
 -260 -458 l 1
 -246 -392 l 1
 -252 -392 -260 -392 -269 -392 c 0
 -321 -392 -339 -355 -331 -316 c 0
 -323 -278 -289 -238 -237 -233 c 1
 -172 -230 -135 -261 -143 -321 c 1
 -172 -458 l 1
-214 -313 m 0
 -209 -293 -225 -275 -242 -275 c 0
 -267 -275 -286 -290 -291 -313 c 0
 -295 -336 -282 -352 -259 -352 c 0
 -236 -352 -218 -336 -214 -313 c 0
EndSplineSet
EndChar
StartChar: uni0E39.low
Encoding: 253 63257 219
Width: 0
Flags: W
HStem: -476 54<-276 -268> -387 35<-373 -363> -275 35<-355 -340>
Fore
-155 -379 m 2
 -166 -432 -207 -476 -270 -476 c 0
 -333 -476 -364 -442 -353 -390 c 2
 -352 -384 l 1
 -357 -386 -363 -387 -371 -387 c 0
 -422 -386 -440 -350 -433 -313 c 0
 -425 -276 -391 -240 -340 -240 c 0
 -278 -240 -262 -276 -274 -330 c 1
 -289 -402 l 2
 -292 -415 -285 -422 -273 -422 c 0
 -262 -422 -251 -416 -248 -402 c 2
 -214 -240 l 1
 -125 -240 l 1
 -155 -379 l 2
-319 -313 m 0
 -314 -293 -328 -275 -348 -275 c 0
 -374 -275 -391 -290 -396 -313 c 0
 -400 -336 -390 -352 -365 -352 c 0
 -341 -352 -323 -336 -319 -313 c 0
EndSplineSet
EndChar
StartChar: uni0E3A.low
Encoding: 254 63258 220
Width: 0
Flags: W
Fore
-194 -335 m 0
 -235 -335 -250 -306 -244 -276 c 0
 -237 -246 -210 -217 -169 -217 c 0
 -131 -217 -118 -246 -124 -275 c 0
 -131 -305 -156 -335 -194 -335 c 0
EndSplineSet
EndChar
StartChar: multiply
Encoding: 256 215 221
Width: 619
Flags: W
Fore
569 117 m 1
 491 49 l 1
 356 220 l 1
 149 51 l 1
 97 118 l 1
 304 286 l 1
 172 458 l 1
 249 521 l 1
 384 352 l 1
 589 521 l 1
 639 458 l 1
 436 286 l 1
 569 117 l 1
EndSplineSet
EndChar
StartChar: divide
Encoding: 257 247 222
Width: 546
Flags: W
HStem: 2 129<273 301> 212 81<81 572> 375 130<353 380>
Fore
431 439 m 0
 423 401 389 375 353 375 c 0
 318 375 296 407 302 439 c 0
 310 475 342 505 380 505 c 0
 416 505 440 479 431 439 c 0
572 212 m 1
 65 212 l 1
 82 293 l 1
 589 293 l 1
 572 212 l 1
352 66 m 0
 344 26 309 2 273 2 c 0
 238 2 216 31 223 66 c 0
 230 98 263 131 301 131 c 0
 337 131 359 101 352 66 c 0
EndSplineSet
EndChar
StartChar: registered
Encoding: 258 174 223
Width: 774
Flags: W
HStem: -25 70<380 406> 147 39<598 608> 309 41<416 435> 485 39<336 352 337 461> 613 69<505 536>
Fore
599 147 m 1
 526 147 l 0
 495 147 484 190 474 232 c 0
 456 296 468 309 416 309 c 1
 393 204 l 2
 391 192 395 189 404 187 c 2
 429 184 l 1
 421 147 l 1
 255 147 l 1
 264 186 l 1
 286 187 l 2
 300 189 307 194 309 204 c 2
 365 468 l 2
 369 484 367 485 350 485 c 2
 329 485 l 1
 337 524 l 1
 507 524 l 2
 595 524 632 495 618 429 c 0
 607 378 563 330 519 326 c 1
 550 318 553 283 561 253 c 0
 571 221 567 187 608 186 c 1
 599 147 l 1
531 421 m 0
 541 465 522 488 479 485 c 2
 461 484 l 2
 453 484 449 467 447 458 c 2
 425 352 l 1
 433 350 l 2
 480 350 519 364 531 421 c 0
399 45 m 0
 555 45 710 172 743 329 c 0
 776 485 675 613 519 613 c 0
 362 613 207 485 174 329 c 0
 141 172 242 45 399 45 c 0
104 329 m 0
 145 524 337 682 532 682 c 0
 727 682 851 524 810 329 c 0
 768 134 577 -25 382 -25 c 0
 187 -25 62 134 104 329 c 0
EndSplineSet
EndChar
StartChar: fi
Encoding: 259 64257 224
Width: 555
Flags: W
HStem: 0 21G<15 256 300 536> 417 44<112 159 307 416> 661 30<428 448>
Fore
298 417 m 1
 226 81 l 2
 218 42 227 29 261 23 c 1
 256 0 l 1
 15 0 l 1
 20 23 l 1
 68 29 79 41 88 83 c 2
 159 417 l 1
 104 417 l 1
 113 461 l 1
 168 461 l 1
 190 549 215 598 262 637 c 0
 309 672 368 691 441 691 c 0
 551 691 611 656 599 599 c 0
 592 564 560 539 522 539 c 0
 484 539 462 561 469 593 c 0
 472 605 477 617 483 627 c 0
 486 630 487 633 487 634 c 0
 490 649 468 661 438 661 c 0
 406 661 380 650 362 628 c 0
 342 601 329 565 307 461 c 1
 414 461 l 2
 450 461 494 464 587 473 c 1
 503 81 l 2
 495 41 505 26 541 23 c 1
 536 0 l 1
 300 0 l 1
 305 23 l 1
 343 28 358 41 366 81 c 2
 430 382 l 2
 436 409 429 417 402 417 c 2
 298 417 l 1
EndSplineSet
Ligature: 0 2 'liga' f i
LCarets: 0 65535 '    ' 1 0 
EndChar
StartChar: fl
Encoding: 260 64258 225
Width: 555
Flags: W
HStem: 0 21G<15 256 300 536> 417 44<112 159 307 438> 658 33<418 449>
Fore
438 417 m 1
 298 417 l 1
 226 81 l 2
 218 42 227 29 261 23 c 1
 256 0 l 1
 15 0 l 1
 20 23 l 1
 68 29 79 41 88 83 c 2
 159 417 l 1
 104 417 l 1
 113 461 l 1
 168 461 l 1
 192 552 213 598 254 633 c 0
 295 671 352 691 418 691 c 0
 472 691 511 683 560 661 c 1
 616 690 l 1
 633 690 l 1
 503 81 l 2
 496 45 505 26 529 25 c 2
 541 23 l 1
 536 0 l 1
 300 0 l 1
 305 23 l 1
 314 25 l 2
 343 28 359 45 366 81 c 2
 438 417 l 1
447 461 m 1
 468 560 l 1
 454 562 450 579 453 595 c 0
 455 601 459 609 467 620 c 0
 471 627 475 633 475 637 c 0
 478 650 464 658 437 658 c 0
 371 658 342 625 320 523 c 2
 307 461 l 1
 447 461 l 1
EndSplineSet
Ligature: 0 2 'liga' f l
LCarets: 0 65535 '    ' 1 0 
EndChar
StartChar: ff
Encoding: 261 64256 226
Width: 609
Flags: W
HStem: 0 21G<15 256 300 536> 417 44<112 159 307 438 584 663> 661 30<438 449 664 688>
Fore
791 590 m 0
 784 554 752 529 715 529 c 0
 685 529 660 551 667 583 c 0
 672 609 698 625 701 642 c 0
 705 658 688 661 676 661 c 0
 632 661 617 617 610 583 c 2
 584 461 l 1
 672 461 l 1
 663 417 l 1
 575 417 l 1
 503 81 l 2
 496 45 503 25 541 23 c 1
 536 0 l 1
 300 0 l 1
 305 23 l 1
 344 26 359 45 366 81 c 2
 438 417 l 1
 298 417 l 1
 226 81 l 2
 219 47 226 28 261 23 c 1
 256 0 l 1
 15 0 l 1
 20 23 l 1
 62 29 78 37 88 83 c 2
 159 417 l 1
 104 417 l 1
 113 461 l 1
 168 461 l 1
 202 608 280 691 438 691 c 0
 482 691 530 686 565 666 c 1
 602 686 641 691 677 691 c 0
 736 691 806 661 791 590 c 0
473 560 m 1
 468 568 467 582 469 593 c 0
 472 606 478 621 487 633 c 1
 491 656 454 661 438 661 c 0
 336 661 322 532 307 461 c 1
 447 461 l 1
 454 494 461 527 473 560 c 1
EndSplineSet
Ligature: 0 2 'liga' f f
LCarets: 0 65535 '    ' 1 0 
EndChar
StartChar: ffi
Encoding: 262 64259 227
Width: 832
Flags: W
HStem: 417 44<112 159 307 438 584 693> 661 30<438 449 702 720>
Fore
813 0 m 1
 579 0 l 1
 584 23 l 1
 623 26 635 47 642 81 c 2
 706 382 l 2
 712 409 706 417 679 417 c 2
 575 417 l 1
 503 81 l 2
 496 47 503 28 540 23 c 1
 535 0 l 1
 300 0 l 1
 305 23 l 1
 344 26 359 47 366 81 c 2
 438 417 l 1
 298 417 l 1
 226 81 l 2
 219 47 226 28 261 23 c 1
 256 0 l 1
 15 0 l 1
 20 23 l 1
 62 29 78 37 88 83 c 2
 159 417 l 1
 104 417 l 1
 113 461 l 1
 168 461 l 1
 202 608 280 691 438 691 c 0
 485 691 540 684 578 661 c 1
 620 684 670 691 715 691 c 0
 774 691 893 678 877 601 c 0
 868 561 836 539 798 539 c 0
 765 539 739 558 746 593 c 0
 749 606 755 621 763 633 c 1
 767 656 730 661 714 661 c 0
 612 661 599 532 584 461 c 1
 691 461 l 2
 748 461 807 469 866 473 c 1
 782 81 l 2
 775 45 780 25 818 23 c 1
 813 0 l 1
477 557 m 1
 469 565 466 579 469 593 c 0
 472 606 478 621 487 633 c 1
 491 656 454 661 438 661 c 0
 336 661 322 532 307 461 c 1
 447 461 l 1
 454 494 461 524 477 557 c 1
EndSplineSet
LCarets: 0 65535 '    ' 2 0 0 
Ligature: 0 2 'liga' ff i
Ligature: 0 2 'liga' f f i
EndChar
StartChar: ffl
Encoding: 263 64260 228
Width: 832
Flags: W
HStem: 417 44<112 159 307 438 584 714> 658 33<700 725>
Fore
813 0 m 1
 579 0 l 1
 584 23 l 1
 621 26 635 47 642 81 c 2
 714 417 l 1
 575 417 l 1
 503 81 l 2
 496 47 503 28 540 23 c 1
 535 0 l 1
 300 0 l 1
 305 23 l 1
 344 26 359 47 366 81 c 2
 438 417 l 1
 298 417 l 1
 226 81 l 2
 219 47 226 28 261 23 c 1
 256 0 l 1
 15 0 l 1
 20 23 l 1
 62 29 78 37 88 83 c 2
 159 417 l 1
 104 417 l 1
 113 461 l 1
 168 461 l 1
 202 608 280 691 438 691 c 0
 484 691 539 686 572 662 c 1
 615 686 660 691 702 691 c 0
 748 691 803 680 840 661 c 1
 893 690 l 1
 912 690 l 1
 782 81 l 2
 775 45 778 25 818 23 c 1
 813 0 l 1
723 461 m 1
 744 560 l 1
 730 562 727 583 729 595 c 0
 732 609 750 625 752 636 c 0
 757 658 727 658 710 658 c 0
 632 658 611 589 598 529 c 2
 584 461 l 1
 723 461 l 1
475 557 m 1
 467 565 466 579 469 593 c 0
 472 606 478 621 487 633 c 1
 491 656 454 661 438 661 c 0
 336 661 322 532 307 461 c 1
 447 461 l 1
 454 494 461 524 475 557 c 1
EndSplineSet
LCarets: 0 65535 '    ' 2 0 0 
Ligature: 0 2 'liga' ff l
Ligature: 0 2 'liga' f f l
EndChar
StartChar: zerospace
Encoding: 220 8203 229
Width: 0
Flags: HW
Back
710 -187 m 5
 642 -187 l 5
 670 -54 l 5
 676 -17 659 0 617 0 c 6
 220 0 l 6
 184 0 164 -15 157 -49 c 5
 129 -187 l 5
 61 -187 l 5
 114 61 l 5
 760 61 l 5
 710 -187 l 5
EndSplineSet
EndChar
